<?xml version="1.0" encoding="UTF-8" standalone="no"?>
<!-- Created with Inkscape (http://www.inkscape.org/) -->

<svg
   width="8.9827805mm"
   height="12.835467mm"
   viewBox="0 0 8.9827807 12.835467"
   version="1.1"
   id="svg11017"
   inkscape:export-filename="11.svg"
   inkscape:export-xdpi="96"
   inkscape:export-ydpi="96"
   xmlns:inkscape="http://www.inkscape.org/namespaces/inkscape"
   xmlns:sodipodi="http://sodipodi.sourceforge.net/DTD/sodipodi-0.dtd"
   xmlns="http://www.w3.org/2000/svg"
   xmlns:svg="http://www.w3.org/2000/svg">
  <sodipodi:namedview
     id="namedview11019"
     pagecolor="#ffffff"
     bordercolor="#000000"
     borderopacity="0.25"
     inkscape:showpageshadow="2"
     inkscape:pageopacity="0.0"
     inkscape:pagecheckerboard="0"
     inkscape:deskcolor="#d1d1d1"
     inkscape:document-units="mm"
     showgrid="false" />
  <defs
     id="defs11014" />
  <g
     inkscape:label="Layer 1"
     inkscape:groupmode="layer"
     id="layer1"
     transform="translate(-86.311716,38.156781)">
    <path
       d="m 90.080088,-35.257653 c 0,0.400403 0.324556,0.724958 0.724959,0.724958 0.400402,0 0.724605,-0.324555 0.724605,-0.724958 v -2.17417 c 0,-0.400403 -0.324203,-0.724958 -0.724605,-0.724958 -0.400403,0 -0.724959,0.324555 -0.724959,0.724958 v 2.17417"
       style="fill:#f2736d;fill-opacity:1;fill-rule:nonzero;stroke:none;stroke-width:0.0352778"
       id="path1454" />
    <path
       d="m 86.311716,-25.321314 h 8.982781 l -2.831395,-11.424003 h -3.319639 l -2.831747,11.424003"
       style="fill:#e9f3f4;fill-opacity:1;fill-rule:nonzero;stroke:none;stroke-width:0.0352778"
       id="path1456" />
    <path
       d="m 88.777633,-35.270706 0.36583,-1.474611 h 3.319639 l 0.365478,1.474611 h -4.050947"
       style="fill:#e4355c;fill-opacity:1;fill-rule:nonzero;stroke:none;stroke-width:0.0352778"
       id="path1458" />
    <path
       d="m 93.436769,-32.816784 0.577497,2.329745 h -6.42232 l 0.577498,-2.329745 h 5.267325"
       style="fill:#e4355c;fill-opacity:1;fill-rule:nonzero;stroke:none;stroke-width:0.0352778"
       id="path1460" />
    <path
       d="m 94.622455,-28.033117 0.672042,2.711803 h -8.982781 l 0.672041,-2.711803 h 7.638698"
       style="fill:#e4355c;fill-opacity:1;fill-rule:nonzero;stroke:none;stroke-width:0.0352778"
       id="path1462" />
    <path
       d="m 95.294497,-25.321314 -0.672042,-2.711803 h -3.677708 v -2.453922 h 3.069519 l -0.577497,-2.329745 h -2.492022 v -2.453922 h 1.883833 l -0.365478,-1.474611 2.831395,11.424003"
       style="fill:#f0f7f7;fill-opacity:1;fill-rule:nonzero;stroke:none;stroke-width:0.0352778"
       id="path1464" />
    <path
       d="m 92.82858,-35.270706 h -1.883833 v -1.474611 h 1.518355 l 0.365478,1.474611"
       style="fill:#ec728d;fill-opacity:1;fill-rule:nonzero;stroke:none;stroke-width:0.0352778"
       id="path1466" />
    <path
       d="m 94.014266,-30.487039 h -3.069519 v -2.329745 h 2.492022 l 0.577497,2.329745"
       style="fill:#ec728d;fill-opacity:1;fill-rule:nonzero;stroke:none;stroke-width:0.0352778"
       id="path1468" />
    <path
       d="m 95.294497,-25.321314 h -4.34975 v -2.711803 h 3.677708 l 0.672042,2.711803"
       style="fill:#ec728d;fill-opacity:1;fill-rule:nonzero;stroke:none;stroke-width:0.0352778"
       id="path1470" />
    <path
       d="m 88.630524,-37.015192 c 0,0.160161 0.129822,0.289983 0.289984,0.289983 h 3.696405 c 0.160162,0 0.289984,-0.129822 0.289984,-0.289983 0,-0.160161 -0.129822,-0.289984 -0.289984,-0.289984 h -3.696405 c -0.160162,0 -0.289984,0.129823 -0.289984,0.289984"
       style="fill:#e9f3f4;fill-opacity:1;fill-rule:nonzero;stroke:none;stroke-width:0.0352778"
       id="path1472" />
  </g>
</svg>
