<?xml version="1.0" encoding="UTF-8" standalone="no"?>
<!-- Created with Inkscape (http://www.inkscape.org/) -->

<svg
   width="5.5771871mm"
   height="6.8864698mm"
   viewBox="0 0 5.5771872 6.8864694"
   version="1.1"
   id="svg11017"
   inkscape:export-filename="13.svg"
   inkscape:export-xdpi="96"
   inkscape:export-ydpi="96"
   xmlns:inkscape="http://www.inkscape.org/namespaces/inkscape"
   xmlns:sodipodi="http://sodipodi.sourceforge.net/DTD/sodipodi-0.dtd"
   xmlns="http://www.w3.org/2000/svg"
   xmlns:svg="http://www.w3.org/2000/svg">
  <sodipodi:namedview
     id="namedview11019"
     pagecolor="#ffffff"
     bordercolor="#000000"
     borderopacity="0.25"
     inkscape:showpageshadow="2"
     inkscape:pageopacity="0.0"
     inkscape:pagecheckerboard="0"
     inkscape:deskcolor="#d1d1d1"
     inkscape:document-units="mm"
     showgrid="false" />
  <defs
     id="defs11014" />
  <g
     inkscape:label="Layer 1"
     inkscape:groupmode="layer"
     id="layer1"
     transform="translate(-64.621182,10.409431)">
    <path
       d="m 67.051997,-9.7190092 c 0,-0.1980495 0.156634,-0.3588458 0.348898,-0.3588458 0.191911,0 0.348544,0.1607963 0.348544,0.3588458 0,0.197873 -0.156633,0.3590925 -0.348544,0.3590925 -0.192264,0 -0.348898,-0.1612195 -0.348898,-0.3590925 m -0.321733,0 c 0,0.3812822 0.300214,0.6906684 0.670631,0.6906684 0.370064,0 0.669925,-0.3093862 0.669925,-0.6906684 0,-0.3814588 -0.299861,-0.6904218 -0.669925,-0.6904218 -0.370417,0 -0.670631,0.308963 -0.670631,0.6904218"
       style="fill:#e4355c;fill-opacity:1;fill-rule:nonzero;stroke:none;stroke-width:0.0352778"
       id="path1474" />
    <path
       d="m 67.417475,-9.3603048 v -0.00141 c 0.178506,-0.00882 0.322439,-0.155575 0.331259,-0.3394075 -0.0088,0.1841147 -0.152753,0.3319992 -0.331259,0.3408186 m 0.65017,-0.2889955 c 0,-2.823e-4 0,-2.823e-4 0,-2.823e-4 0,0 0,0 0,2.823e-4 m 3.53e-4,-0.00455 v 0 0 m 3.52e-4,-0.00427 v -2.822e-4 2.822e-4 m 3.53e-4,-0.00413 c 0,0 0,-4.233e-4 0,-7.055e-4 0,2.822e-4 0,7.055e-4 0,7.055e-4 m 3.53e-4,-0.00427 c 0,-4.233e-4 0,-7.055e-4 0,-0.00109 0,3.881e-4 0,6.703e-4 0,0.00109 m 3.53e-4,-0.00427 c 0,-2.822e-4 0,-7.056e-4 0,-9.878e-4 0,2.822e-4 0,7.056e-4 0,9.878e-4 m 3.52e-4,-0.00413 c 0,-8.467e-4 0,-0.00113 0,-0.00152 0,3.88e-4 0,6.702e-4 0,0.00152 m 0,-0.00469 c 0,-2.823e-4 3.53e-4,-7.056e-4 3.53e-4,-0.00138 0,6.703e-4 -3.53e-4,0.00109 -3.53e-4,0.00138 m 3.53e-4,-0.00413 c 0,-8.467e-4 0,-0.00113 0,-0.0018 0,6.703e-4 0,9.525e-4 0,0.0018 m 3.53e-4,-0.0043 c 0,-6.703e-4 0,-0.00138 0,-0.00176 0,3.88e-4 0,0.00109 0,0.00176 m 0,-0.00452 c 0,-8.467e-4 0,-0.00113 0,-0.0018 0,6.703e-4 0,9.525e-4 0,0.0018 m 3.53e-4,-0.0043 c 0,-6.703e-4 0,-0.00138 0,-0.00205 0,6.703e-4 0,0.00138 0,0.00205 m -0.322086,-0.00427 c 0,-6.703e-4 0,-0.00138 3.52e-4,-0.00205 -3.52e-4,6.703e-4 -3.52e-4,0.00138 -3.52e-4,0.00205 m 0.322086,-2.469e-4 c 0,-8.467e-4 0,-0.00152 0,-0.00222 0,7.055e-4 0,0.00138 0,0.00222 m -0.321734,-0.00222 c 0,-6.703e-4 0,-0.00138 0,-0.0018 0,4.233e-4 0,0.00113 0,0.0018 m 0.321734,-0.00208 c 0,-0.00109 0,-0.00176 0,-0.00289 0,0.00113 0,0.0018 0,0.00289 m -0.321734,-3.881e-4 c 0,-7.055e-4 0,-9.878e-4 0,-0.00166 0,6.702e-4 0,0.00138 0,0.00166 m 0,-0.0025 c 0,-2.469e-4 0,-9.525e-4 0,-0.00138 0,4.233e-4 0,0.00113 0,0.00138 m 0.321734,-0.00162 c 0,-8.466e-4 0,-0.0018 0,-0.00289 0,0.00109 0,0.00205 0,0.00289 m -0.321734,-8.466e-4 c 0,-2.823e-4 0,-6.703e-4 0,-9.525e-4 0,2.822e-4 0,6.702e-4 0,9.525e-4 m 0,-0.00233 c 0,-4.233e-4 0,-8.466e-4 0,-0.00113 0,2.823e-4 0,7.056e-4 0,0.00113 m 0.321734,-0.00113 c 0,-0.00138 0,-0.00314 0,-0.00452 v 0 c 0,0.00138 0,0.00314 0,0.00452 m -0.321734,-0.00138 c 0,-3.881e-4 0,-8.114e-4 0,-8.114e-4 0,4.233e-4 0,4.233e-4 0,8.114e-4 m 0.321734,-0.00314 c 0,-0.00152 0,-0.00289 0,-0.0043 0,0.00141 0,0.00279 0,0.0043 m -0.321734,-0.00222 c 0,-2.822e-4 0,-6.703e-4 0,-6.703e-4 0,0 0,3.881e-4 0,6.703e-4 m 0,-0.00247 c 0,-2.822e-4 0,-2.822e-4 0,-7.055e-4 0,4.233e-4 0,4.233e-4 0,7.055e-4 m 0.321734,-9.877e-4 c 0,-0.00109 0,-0.00219 0,-0.00314 0,9.525e-4 0,0.00205 0,0.00314 m -0.321734,-0.00109 c 0,-4.233e-4 0,-6.702e-4 0,-0.00109 0,4.234e-4 0,6.703e-4 0,0.00109 m 0,-0.00205 c 0,-8.466e-4 0,-0.00113 0,-0.0018 0,6.702e-4 0,9.525e-4 0,0.0018 m 0.321734,-0.0018 c 0,-7.056e-4 0,-0.0018 0,-0.0025 0,7.056e-4 0,0.0018 0,0.0025 m -0.321734,-7.056e-4 c 0,-3.88e-4 0,-0.00109 0,-0.0018 0,7.056e-4 0,0.00141 0,0.0018 m 0,-0.00219 c 0,-7.056e-4 0,-0.00138 0,-0.00208 0,7.056e-4 0,0.00138 0,0.00208 m 0.321734,-0.0018 c 0,-7.055e-4 0,-0.00166 0,-0.00233 0,6.703e-4 0,0.00162 0,0.00233 m -0.321734,-2.822e-4 c -3.52e-4,-6.703e-4 -3.52e-4,-0.00138 -3.52e-4,-0.00205 0,6.703e-4 0,0.00138 3.52e-4,0.00205 m -3.52e-4,-0.00247 c -0.0088,-0.1838326 -0.152753,-0.3301997 -0.331259,-0.3394077 v -9.88e-4 c 0.178506,0.0084 0.322439,0.1565631 0.331259,0.3403957 m 0.322086,-0.0018 c 0,-6.703e-4 0,-0.00138 0,-0.00208 0,7.056e-4 0,0.00141 0,0.00208 m -3.53e-4,-0.00455 c 0,-6.703e-4 0,-0.00138 0,-0.00205 0,6.703e-4 0,0.00138 0,0.00205 m 0,-0.00455 c 0,-6.703e-4 0,-0.00109 0,-0.0018 0,2.822e-4 0,0.00113 0,0.0018 m -3.53e-4,-0.00469 c 0,-2.47e-4 0,-9.525e-4 0,-0.00138 0,4.234e-4 0,0.00113 0,0.00138 m 0,-0.00452 c 0,-2.822e-4 -3.53e-4,-7.055e-4 -3.53e-4,-0.00141 0,7.056e-4 3.53e-4,0.00113 3.53e-4,0.00141 m -3.53e-4,-0.0043 c 0,-6.702e-4 0,-9.525e-4 0,-0.00138 0,4.233e-4 0,7.056e-4 0,0.00138 m -3.52e-4,-0.00452 c 0,-2.822e-4 0,-7.056e-4 0,-0.00113 0,4.233e-4 0,8.467e-4 0,0.00113 m -3.53e-4,-0.00455 c 0,-4.233e-4 0,-7.055e-4 0,-0.00113 0,4.233e-4 0,7.055e-4 0,0.00113 m -3.53e-4,-0.00455 c 0,0 0,-4.233e-4 0,-8.467e-4 0,4.234e-4 0,8.467e-4 0,8.467e-4 m -3.53e-4,-0.00427 c 0,-4.233e-4 0,-4.233e-4 0,-7.056e-4 0,2.823e-4 0,2.823e-4 0,7.056e-4 m -3.52e-4,-0.00455 v -4.234e-4 4.234e-4 m -3.53e-4,-0.00469 v 0 0"
       style="fill:#f9fcfc;fill-opacity:1;fill-rule:nonzero;stroke:none;stroke-width:0.0352778"
       id="path1476" />
    <path
       d="m 67.872206,-9.2282953 c -0.136878,-0.023707 -0.277283,-0.037077 -0.420159,-0.039299 -0.0011,0 -0.0018,0 -0.0025,0 -0.0021,0 -0.0042,0 -0.0063,0 -0.0014,0 -0.0032,0 -0.0046,-2.47e-4 -0.0011,0 -0.0018,0 -0.0028,0 -0.0021,0 -0.0046,0 -0.0071,0 -7.05e-4,0 -0.0014,0 -0.0021,0 -0.0025,0 -0.0049,0 -0.0074,0 -3.53e-4,0 -0.0011,0 -0.0014,0 -3.53e-4,0 -3.53e-4,0 -3.53e-4,0 v -0.092463 c 0.178506,-0.00882 0.322439,-0.1567039 0.331259,-0.3408186 v 0 c 0,-6.703e-4 0,-0.00138 3.52e-4,-0.00205 v -4.233e-4 c 0,-6.703e-4 0,-0.00138 0,-0.0018 0,-2.822e-4 0,-2.822e-4 0,-6.703e-4 0,-2.822e-4 0,-9.878e-4 0,-0.00166 0,0 0,-4.234e-4 0,-8.467e-4 0,-2.469e-4 0,-9.525e-4 0,-0.00138 0,-2.47e-4 0,-6.703e-4 0,-0.00109 0,-2.823e-4 0,-6.703e-4 0,-9.525e-4 0,-7.056e-4 0,-0.00109 0,-0.00138 0,-4.233e-4 0,-8.466e-4 0,-0.00113 0,-3.88e-4 0,-0.00109 0,-0.00138 0,-3.881e-4 0,-3.881e-4 0,-8.114e-4 0,-7.055e-4 3.53e-4,-0.00166 3.53e-4,-0.00233 v 0 0 0 c 0,-8.467e-4 -3.53e-4,-0.00152 -3.53e-4,-0.00222 0,-2.822e-4 0,-6.703e-4 0,-6.703e-4 0,-7.056e-4 0,-0.00113 0,-0.0018 0,-2.822e-4 0,-2.822e-4 0,-7.055e-4 0,-6.703e-4 0,-0.00109 0,-0.00138 0,-4.233e-4 0,-6.702e-4 0,-0.00109 0,-2.822e-4 0,-7.055e-4 0,-9.525e-4 0,-8.466e-4 0,-0.00113 0,-0.0018 0,0 0,-4.234e-4 0,-7.056e-4 0,-3.88e-4 0,-0.00109 0,-0.0018 v -3.88e-4 c 0,-7.056e-4 0,-0.00138 0,-0.00208 v 0 c -3.52e-4,-6.703e-4 -3.52e-4,-0.00138 -3.52e-4,-0.00205 0,0 0,0 0,-4.233e-4 -0.0088,-0.1838326 -0.152753,-0.3319637 -0.331259,-0.3403957 v -0.331258 c 0.339725,0.0088 0.616656,0.277248 0.65017,0.6201128 v 0 c 0,0.00152 3.53e-4,0.00289 3.53e-4,0.00427 v 4.234e-4 c 0,0.00138 3.52e-4,0.00233 3.52e-4,0.00385 0,2.823e-4 0,2.823e-4 0,7.056e-4 3.53e-4,9.525e-4 3.53e-4,0.00247 3.53e-4,0.00342 0,4.234e-4 0,8.467e-4 0,8.467e-4 3.53e-4,0.00138 3.53e-4,0.00233 3.53e-4,0.00342 0,4.233e-4 0,7.055e-4 0,0.00113 0,9.525e-4 3.53e-4,0.00247 3.53e-4,0.00342 0,4.233e-4 0,8.467e-4 0,0.00113 0,0.00109 3.52e-4,0.00205 3.52e-4,0.00314 0,4.233e-4 0,7.056e-4 0,0.00138 0,7.056e-4 0,0.0018 0,0.00289 0,7.056e-4 3.53e-4,0.00113 3.53e-4,0.00141 0,0.00109 0,0.00205 0,0.00314 0,4.234e-4 0,0.00113 0,0.00138 0,0.00113 3.53e-4,0.0018 3.53e-4,0.00289 0,7.055e-4 0,0.00113 0,0.0018 0,7.056e-4 0,0.00166 0,0.0025 0,6.703e-4 0,0.00138 0,0.00205 0,7.055e-4 0,0.00138 3.53e-4,0.00247 0,7.056e-4 0,0.00141 0,0.00208 0,7.055e-4 0,0.00138 0,0.00222 0,6.703e-4 0,0.00162 0,0.00233 0,8.114e-4 0,0.00152 0,0.00219 0,7.056e-4 0,0.0018 0,0.0025 0,6.702e-4 0,9.525e-4 0,0.0018 0,9.525e-4 0,0.00205 0,0.00314 0,2.822e-4 0,7.055e-4 0,0.00138 0,0.00141 0,0.00279 0,0.0043 v 0 c 0,0.00138 0,0.00314 0,0.00452 0,2.823e-4 0,0.00113 0,0.00141 0,0.00109 0,0.00205 0,0.00289 0,6.703e-4 0,0.00138 0,0.00162 0,0.00113 0,0.0018 0,0.00289 0,7.055e-4 0,0.00141 0,0.00208 0,7.055e-4 0,0.00138 0,0.00222 0,6.702e-4 0,0.00162 0,0.00247 0,6.703e-4 0,0.00138 0,0.00205 -3.53e-4,7.056e-4 -3.53e-4,0.00141 -3.53e-4,0.0025 0,6.703e-4 0,9.525e-4 0,0.0018 0,9.525e-4 0,0.00162 0,0.00275 0,3.88e-4 0,0.00109 0,0.00176 0,7.055e-4 -3.53e-4,0.0018 -3.53e-4,0.0025 0,6.703e-4 0,9.525e-4 0,0.0018 0,9.525e-4 0,0.00205 0,0.00275 0,6.703e-4 -3.53e-4,0.00109 -3.53e-4,0.00138 0,0.00109 0,0.00219 0,0.00318 0,3.88e-4 0,6.702e-4 0,0.00152 0,9.525e-4 -3.52e-4,0.00205 -3.52e-4,0.00314 0,2.822e-4 0,7.056e-4 0,9.878e-4 0,0.00109 -3.53e-4,0.00219 -3.53e-4,0.00318 0,3.881e-4 0,6.703e-4 0,0.00109 0,0.00109 0,0.00247 -3.53e-4,0.00356 0,2.822e-4 0,7.055e-4 0,7.055e-4 0,0.00138 0,0.00247 -3.53e-4,0.00385 v 2.822e-4 c 0,0.00152 -3.52e-4,0.00289 -3.52e-4,0.00427 v 0 c 0,0.00138 -3.53e-4,0.00289 -3.53e-4,0.00427 0,0 0,0 0,2.823e-4 -0.01587,0.1641122 -0.08784,0.31115 -0.195439,0.421005"
       style="fill:#e66e8a;fill-opacity:1;fill-rule:nonzero;stroke:none;stroke-width:0.0352778"
       id="path1478" />
    <path
       d="m 64.621182,-6.3955954 c 0,1.5867945 1.248481,2.8726343 2.788532,2.8726343 1.539875,0 2.788356,-1.2858398 2.788356,-2.8726343 0,-1.5859832 -1.248481,-2.8722463 -2.788356,-2.8722463 -1.540051,0 -2.788532,1.2862631 -2.788532,2.8722463"
       style="fill:#e9f3f4;fill-opacity:1;fill-rule:nonzero;stroke:none;stroke-width:0.0352778"
       id="path1480" />
    <path
       d="m 66.16208,-8.963712 c 0.375391,-0.1940277 0.798901,-0.3041297 1.247634,-0.3041297 0.448734,0 0.872067,0.110102 1.247422,0.3041297 H 66.16208"
       style="fill:#e4355c;fill-opacity:1;fill-rule:nonzero;stroke:none;stroke-width:0.0352778"
       id="path1482" />
    <path
       d="m 69.923256,-7.6366677 c 0.1651,0.354577 0.262467,0.7487003 0.27305,1.1655426 h -5.573219 c 0.01048,-0.4168423 0.107774,-0.8109656 0.272874,-1.1655426 h 5.027295"
       style="fill:#e4355c;fill-opacity:1;fill-rule:nonzero;stroke:none;stroke-width:0.0352778"
       id="path1484" />
    <path
       d="m 69.092111,-4.1064203 h -3.365076 c -0.353166,-0.2761544 -0.640927,-0.6370461 -0.833826,-1.0537825 h 5.032869 c -0.192969,0.4167364 -0.480483,0.7776281 -0.833967,1.0537825"
       style="fill:#e4355c;fill-opacity:1;fill-rule:nonzero;stroke:none;stroke-width:0.0352778"
       id="path1486" />
    <path
       d="m 70.188545,-6.1570823 v 0 0 m 7.05e-4,-0.00921 v 0 0 m 7.06e-4,-0.00882 c 0,-2.822e-4 0,-7.055e-4 0,-7.055e-4 0,0 0,4.233e-4 0,7.055e-4 m 7.06e-4,-0.0091 v -4.234e-4 c 0,4.234e-4 0,4.234e-4 0,4.234e-4 m 7.05e-4,-0.00924 c 0,0 0,0 0,-2.822e-4 0,2.822e-4 0,2.822e-4 0,2.822e-4 m 3.53e-4,-0.0091 3.53e-4,-3.88e-4 -3.53e-4,3.88e-4 m 7.05e-4,-0.00882 c 0,-6.703e-4 0,-0.00109 0,-0.00152 0,4.234e-4 0,0.00113 0,0.00152 m 7.06e-4,-0.00921 c 0,-2.823e-4 0,-7.056e-4 0,-0.00113 0,4.233e-4 0,8.466e-4 0,0.00113 m 3.53e-4,-0.0091 c 0,-4.233e-4 0,-0.00113 0,-0.00152 0,3.88e-4 0,0.00109 0,0.00152 m 3.53e-4,-0.00924 c 3.52e-4,-4.233e-4 3.52e-4,-0.00109 3.52e-4,-0.0018 0,7.055e-4 0,0.00138 -3.52e-4,0.0018 m 7.05e-4,-0.00924 c 0,-6.702e-4 0,-9.525e-4 0,-0.00205 0,6.703e-4 0,0.00138 0,0.00205 m 3.53e-4,-0.0091 c 0,-6.703e-4 0,-0.00138 0,-0.00176 0,3.88e-4 0,0.00109 0,0.00176 m 3.53e-4,-0.00921 c 0,-7.056e-4 0,-0.00138 0,-0.00208 0,7.055e-4 0,0.00138 0,0.00208 m 3.52e-4,-0.0091 c 0,-7.055e-4 0,-0.00152 0,-0.00222 0,7.056e-4 0,0.00152 0,0.00222 m 3.53e-4,-0.00924 c 0,-6.702e-4 0,-0.00109 0,-0.0018 0,7.055e-4 0,0.00113 0,0.0018 m 3.53e-4,-0.0091 c 0,-8.114e-4 0,-0.00176 0,-0.00247 0,7.056e-4 0,0.00166 0,0.00247 m 3.53e-4,-0.00921 c 0,-7.056e-4 0,-0.00138 0,-0.00208 0,7.055e-4 0,0.00138 0,0.00208 m 3.53e-4,-0.0091 c 0,-8.467e-4 0,-0.0018 0,-0.00247 0,6.703e-4 0,0.00162 0,0.00247 m 0,-0.00924 c 3.52e-4,-6.703e-4 3.52e-4,-0.0018 3.52e-4,-0.00289 0,0.00109 0,0.0018 -3.52e-4,0.00289 m 3.52e-4,-0.00924 c 0,-6.702e-4 0,-9.525e-4 0,-0.00162 0,6.702e-4 0,9.525e-4 0,0.00162 m 3.53e-4,-0.00907 c 0,-0.00113 0,-0.00222 0,-0.00289 0,0.00109 0,0.00176 0,0.00289 m 0,-0.00924 c 0,-0.00138 0,-0.00247 0,-0.00385 0,0.00138 0,0.00247 0,0.00385 m 0,-0.0091 c 0,-0.00219 0,-0.00385 3.53e-4,-0.00607 -3.53e-4,0.00222 -3.53e-4,0.00388 -3.53e-4,0.00607 m 3.53e-4,-0.00949 c 0,-0.0018 0,-0.00402 0,-0.00568 0,0.00166 0,0.00388 0,0.00568 m 0,-0.00924 c 0,-0.00247 0,-0.00526 0,-0.00773 0,0.00247 0,0.00526 0,0.00773 m 0,-0.00924 c 0,-0.00317 0,-0.00635 0,-0.00949 v 0 c 0,0.00314 0,0.00631 0,0.00949 m 0,-0.00949 c 0,-0.00279 0,-0.00593 0,-0.0091 0,0.00317 0,0.00631 0,0.0091 m 0,-0.010195 c 0,-0.00279 0,-0.00526 0,-0.00815 0,0.00289 0,0.00536 0,0.00815 m 0,-0.011324 c 0,-0.00205 0,-0.00427 0,-0.00593 0,0.00166 0,0.00388 0,0.00593 m 0,-0.0091 c 0,-0.00219 -3.53e-4,-0.00427 -3.53e-4,-0.00631 0,0.00205 3.53e-4,0.00413 3.53e-4,0.00631 m -3.53e-4,-0.011289 c 0,-0.00152 0,-0.00289 0,-0.00427 0,0.00138 0,0.00275 0,0.00427 m 0,-0.00991 c 0,-0.00109 0,-0.00247 0,-0.0036 0,0.00113 0,0.0025 0,0.0036 m -3.53e-4,-0.010195 c 0,-7.056e-4 0,-0.0018 0,-0.0025 0,7.056e-4 0,0.0018 0,0.0025 m 0,-0.00815 c 0,-0.00109 0,-0.00247 -3.52e-4,-0.00356 3.52e-4,0.00109 3.52e-4,0.00247 3.52e-4,0.00356 m -3.52e-4,-0.00921 c 0,-9.878e-4 0,-0.0025 0,-0.00346 0,9.525e-4 0,0.00247 0,0.00346 m -3.53e-4,-0.00953 c 0,-9.525e-4 0,-0.00208 0,-0.00317 0,0.00109 0,0.00222 0,0.00317 m 0,-0.00882 c -3.53e-4,-9.525e-4 -3.53e-4,-0.00247 -3.53e-4,-0.00385 0,0.00138 0,0.00247 3.53e-4,0.00385 m -3.53e-4,-0.00949 c -3.53e-4,-0.00113 -3.53e-4,-0.00208 -3.53e-4,-0.0036 0,0.00109 0,0.00247 3.53e-4,0.0036 m -3.53e-4,-0.0091 c -3.53e-4,-0.00113 -3.53e-4,-0.00222 -3.53e-4,-0.0036 0,0.00138 0,0.00247 3.53e-4,0.0036 m -3.53e-4,-0.00882 c -3.52e-4,-0.00113 -3.52e-4,-0.0025 -3.52e-4,-0.00402 0,0.00152 0,0.0025 3.52e-4,0.00402 m -7.05e-4,-0.00924 c 0,-0.00138 0,-0.00247 0,-0.00385 0,0.00138 0,0.00247 0,0.00385 m -3.53e-4,-0.00924 c 0,-0.00138 0,-0.00247 0,-0.00385 0,0.00138 0,0.00247 0,0.00385 m -3.53e-4,-0.0091 c 0,-0.00138 0,-0.00247 -3.52e-4,-0.00385 3.52e-4,0.00138 3.52e-4,0.00247 3.52e-4,0.00385 m -3.52e-4,-0.00949 c -3.53e-4,-0.00109 -3.53e-4,-0.00222 -3.53e-4,-0.00318 0,9.525e-4 0,0.00208 3.53e-4,0.00318 m -7.06e-4,-0.00924 c 0,-9.525e-4 0,-0.00205 0,-0.00318 0,0.00113 0,0.00222 0,0.00318 m -3.53e-4,-0.0091 c -3.53e-4,-0.00109 -3.53e-4,-0.00219 -3.53e-4,-0.00314 0,9.525e-4 0,0.00205 3.53e-4,0.00314 m -7.05e-4,-0.00921 c 0,-0.00113 0,-0.00208 -3.53e-4,-0.00318 3.53e-4,0.00109 3.53e-4,0.00205 3.53e-4,0.00318 m -7.06e-4,-0.00953 c 0,-0.00109 0,-0.0018 0,-0.00289 0,0.00109 0,0.0018 0,0.00289 m -7.05e-4,-0.00924 c 0,-6.702e-4 0,-0.00162 0,-0.00275 0,0.00113 0,0.00208 0,0.00275 m -3.53e-4,-0.0084 c 0,-0.00109 -3.53e-4,-0.00247 -3.53e-4,-0.00356 0,0.00109 3.53e-4,0.00247 3.53e-4,0.00356 m -7.06e-4,-0.00949 c 0,-7.055e-4 -3.53e-4,-0.00222 -3.53e-4,-0.00289 0,0.00109 3.53e-4,0.00176 3.53e-4,0.00289 m -7.05e-4,-0.00882 c 0,-0.00113 -3.53e-4,-0.00222 -3.53e-4,-0.00317 0,9.525e-4 3.53e-4,0.00205 3.53e-4,0.00317 m -7.06e-4,-0.00953 c -3.53e-4,-0.00109 -3.53e-4,-0.0018 -3.53e-4,-0.00289 0,0.00109 0,0.0018 3.53e-4,0.00289 m -7.05e-4,-0.00924 c -3.53e-4,-6.703e-4 -3.53e-4,-0.00176 -3.53e-4,-0.00247 0,7.056e-4 0,0.0018 3.53e-4,0.00247 m -0.0011,-0.00882 c 0,-0.00109 0,-0.00176 0,-0.00275 0,9.877e-4 0,0.00166 0,0.00275 m -7.05e-4,-0.00907 c 0,-8.466e-4 0,-0.0018 -3.53e-4,-0.00289 3.53e-4,0.00109 3.53e-4,0.00205 3.53e-4,0.00289 m -7.06e-4,-0.00924 c -3.53e-4,-7.056e-4 -3.53e-4,-0.0018 -3.53e-4,-0.00247 0,6.703e-4 0,0.00176 3.53e-4,0.00247 m -0.0011,-0.00924 c 0,-6.703e-4 0,-0.00138 -3.53e-4,-0.00233 3.53e-4,9.525e-4 3.53e-4,0.00166 3.53e-4,0.00233 m -7.06e-4,-0.0091 c -3.53e-4,-6.703e-4 -3.53e-4,-0.00138 -3.53e-4,-0.00205 0,6.703e-4 0,0.00138 3.53e-4,0.00205 m -0.0011,-0.00882 c 0,-6.703e-4 -3.53e-4,-0.00176 -3.53e-4,-0.00247 0,7.056e-4 3.53e-4,0.0018 3.53e-4,0.00247 m -0.0011,-0.00949 c 0,-7.056e-4 0,-0.00109 0,-0.0018 0,7.055e-4 0,0.00109 0,0.0018 m -0.0011,-0.00924 c 0,-6.703e-4 0,-9.525e-4 0,-0.0018 0,8.467e-4 0,0.00113 0,0.0018 m -0.0011,-0.0091 c 0,-3.88e-4 0,-0.00109 0,-0.00152 0,4.233e-4 0,0.00113 0,0.00152 m -7.06e-4,-0.00882 c -3.52e-4,-3.881e-4 -3.52e-4,-0.00109 -3.52e-4,-0.0018 0,7.056e-4 0,0.00141 3.52e-4,0.0018 m -0.0014,-0.00921 c 0,-2.823e-4 0,-0.00113 0,-0.00141 0,2.822e-4 0,0.00113 0,0.00141 m -0.0011,-0.0091 c 0,-4.233e-4 0,-8.467e-4 0,-0.00113 0,2.822e-4 0,7.056e-4 0,0.00113 m -0.0011,-0.00967 c 0,-2.822e-4 0,-2.822e-4 0,-2.822e-4 v 2.822e-4 m -0.0011,-0.00882 c 0,-2.822e-4 0,-2.822e-4 0,-6.702e-4 0,3.88e-4 0,3.88e-4 0,6.702e-4 m -0.0014,-0.0091 c 0,-3.881e-4 0,-3.881e-4 0,-3.881e-4 0,0 0,0 0,3.881e-4 m -0.0011,-0.00882 c 0,-3.88e-4 0,-3.88e-4 0,-3.88e-4 0,0 0,0 0,3.88e-4 m -0.0014,-0.00921 v 0 0 m -0.0025,-0.017921 v 0 0"
       style="fill:#f9fcfc;fill-opacity:1;fill-rule:nonzero;stroke:none;stroke-width:0.0352778"
       id="path1488" />
    <path
       d="m 67.426295,-3.5232433 v -0.583177 h 1.665816 c 0.353484,-0.2761544 0.640998,-0.6370461 0.833967,-1.0537825 h -2.499783 v -1.3109223 h 2.770011 v 0 c -0.01058,-0.4168423 -0.10795,-0.8109656 -0.27305,-1.1655426 H 67.426295 V -8.963712 h 1.230841 v 0 c -0.220486,-0.1139825 -0.457905,-0.1990019 -0.706966,-0.2498372 1.147939,0.2321984 2.043642,1.1903429 2.217208,2.3911632 v 0 c 0.0011,0.00593 0.0018,0.011995 0.0025,0.017921 v 0 c 7.05e-4,0.00289 0.0011,0.00564 0.0014,0.00882 0,0 0,0 0,3.88e-4 3.53e-4,0.00279 7.05e-4,0.00568 0.0011,0.00843 0,0 0,0 0,3.881e-4 3.53e-4,0.00279 7.06e-4,0.00568 0.0014,0.00843 0,3.88e-4 0,3.88e-4 0,6.702e-4 3.53e-4,0.00289 7.06e-4,0.00564 0.0011,0.00854 0,0 0,0 0,2.822e-4 3.52e-4,0.00289 7.05e-4,0.00564 0.0011,0.00854 0,2.822e-4 0,7.056e-4 0,0.00113 3.53e-4,0.00233 7.05e-4,0.00522 0.0011,0.00769 0,2.822e-4 0,0.00113 0,0.00141 3.53e-4,0.00247 7.06e-4,0.00494 0.0011,0.00741 0,7.056e-4 0,0.00141 3.52e-4,0.0018 0,0.0025 3.53e-4,0.00483 7.06e-4,0.0073 0,4.233e-4 0,0.00113 0,0.00152 3.53e-4,0.0025 7.05e-4,0.00483 0.0011,0.0073 0,8.467e-4 0,0.00113 0,0.0018 3.53e-4,0.00247 7.06e-4,0.00497 0.0011,0.00744 0,7.055e-4 0,0.00109 0,0.0018 3.52e-4,0.00247 7.05e-4,0.00455 7.05e-4,0.00702 0,7.056e-4 3.53e-4,0.0018 3.53e-4,0.00247 3.53e-4,0.00208 3.53e-4,0.00427 7.05e-4,0.00677 0,6.703e-4 0,0.00138 3.53e-4,0.00205 0,0.0025 3.53e-4,0.00455 3.53e-4,0.00677 3.53e-4,9.525e-4 3.53e-4,0.00166 3.53e-4,0.00233 3.53e-4,0.00222 3.53e-4,0.00469 7.05e-4,0.00677 0,6.703e-4 0,0.00176 3.53e-4,0.00247 0,0.00205 3.53e-4,0.00427 3.53e-4,0.00635 3.53e-4,0.00109 3.53e-4,0.00205 3.53e-4,0.00289 3.52e-4,0.00205 3.52e-4,0.00413 7.05e-4,0.00631 0,9.877e-4 0,0.00166 0,0.00275 3.53e-4,0.00222 3.53e-4,0.00427 7.06e-4,0.00635 0,7.056e-4 0,0.0018 3.53e-4,0.00247 0,0.00208 3.52e-4,0.00427 3.52e-4,0.00635 0,0.00109 0,0.0018 3.53e-4,0.00289 0,0.00208 3.53e-4,0.00413 3.53e-4,0.00635 0,9.525e-4 3.53e-4,0.00205 3.53e-4,0.00317 0,0.00176 3.52e-4,0.00385 3.52e-4,0.00593 0,6.703e-4 3.53e-4,0.00219 3.53e-4,0.00289 0,0.00205 3.53e-4,0.00427 3.53e-4,0.00593 0,0.00109 3.53e-4,0.00247 3.53e-4,0.00356 0,0.0018 3.53e-4,0.00388 3.53e-4,0.00564 0,0.00113 0,0.00208 0,0.00275 3.52e-4,0.00222 3.52e-4,0.0043 7.05e-4,0.00635 0,0.00109 0,0.0018 0,0.00289 3.53e-4,0.00208 3.53e-4,0.00427 3.53e-4,0.00635 3.53e-4,0.00109 3.53e-4,0.00205 3.53e-4,0.00318 0,0.00176 3.52e-4,0.00385 3.52e-4,0.00607 0,9.525e-4 0,0.00205 3.53e-4,0.00314 0,0.00208 0,0.00388 3.53e-4,0.00593 0,0.00113 0,0.00222 0,0.00318 0,0.0018 3.53e-4,0.00388 3.53e-4,0.00607 0,9.525e-4 0,0.00208 3.53e-4,0.00318 0,0.0018 0,0.00385 0,0.00564 3.52e-4,0.00138 3.52e-4,0.00247 3.52e-4,0.00385 0,0.0018 3.53e-4,0.00346 3.53e-4,0.00526 0,0.00138 0,0.00247 0,0.00385 3.53e-4,0.0018 3.53e-4,0.0036 3.53e-4,0.0054 0,0.00138 0,0.00247 0,0.00385 3.53e-4,0.0018 3.53e-4,0.0036 3.53e-4,0.00522 0,0.00152 0,0.00289 3.52e-4,0.00402 0,0.00166 0,0.00385 0,0.00522 0,0.00138 0,0.00247 3.53e-4,0.0036 0,0.00205 0,0.00385 0,0.0055 0,0.00152 0,0.00247 3.53e-4,0.0036 0,0.00205 0,0.00385 0,0.00564 0,0.00138 0,0.00289 3.53e-4,0.00385 0,0.0018 0,0.0036 0,0.00564 0,0.00109 0,0.00222 0,0.00317 0,0.00222 3.53e-4,0.00385 3.53e-4,0.00607 0,9.525e-4 0,0.00247 0,0.00346 0,0.00176 0,0.00356 0,0.00564 3.52e-4,0.00109 3.52e-4,0.00247 3.52e-4,0.00356 0,0.0018 0,0.00388 0,0.00564 0,7.056e-4 0,0.0018 0,0.0025 0,0.00247 0,0.00455 3.53e-4,0.0066 0,0.00113 0,0.0025 0,0.0036 0,0.0018 0,0.00385 0,0.00564 0,0.00138 0,0.00275 0,0.00427 0,0.0018 0,0.00346 0,0.00497 0,0.00205 3.53e-4,0.00413 3.53e-4,0.00631 0,9.878e-4 0,0.00208 0,0.00317 0,0.00166 0,0.00388 0,0.00593 0,0.00109 0,0.00222 0,0.00318 0,0.00289 0,0.00536 0,0.00815 0,3.881e-4 0,6.703e-4 0,0.00109 0,0.00317 0,0.00631 0,0.0091 v 0 c 0,0.00314 0,0.00631 0,0.00949 0,4.234e-4 0,8.467e-4 0,0.00152 0,0.00247 0,0.00526 0,0.00773 0,0.00109 0,0.00205 0,0.00356 0,0.00166 0,0.00388 0,0.00568 0,0.00138 0,0.00233 0,0.00342 -3.53e-4,0.00222 -3.53e-4,0.00388 -3.53e-4,0.00607 0,0.0018 0,0.00346 0,0.00526 0,0.00138 0,0.00247 0,0.00385 0,0.00219 0,0.00427 0,0.00635 0,6.702e-4 0,0.00176 0,0.00289 -3.53e-4,0.00247 -3.53e-4,0.00494 -3.53e-4,0.00744 0,6.702e-4 0,9.525e-4 0,0.00162 0,0.00222 0,0.0043 0,0.00635 0,0.00109 0,0.00222 -3.52e-4,0.00289 0,0.00247 0,0.00455 0,0.00677 0,6.703e-4 0,0.00162 0,0.00247 0,0.00233 -3.53e-4,0.00455 -3.53e-4,0.00702 0,7.055e-4 0,0.00138 0,0.00208 0,0.00205 0,0.00455 -3.53e-4,0.00674 0,7.056e-4 0,0.00166 0,0.00247 0,0.0025 0,0.00483 -3.53e-4,0.0073 0,7.055e-4 0,0.00113 0,0.0018 0,0.0025 0,0.00497 -3.53e-4,0.00702 0,7.056e-4 0,0.00152 0,0.00222 0,0.00247 0,0.00455 -3.52e-4,0.00702 0,7.055e-4 0,0.00138 0,0.00208 0,0.00247 0,0.00494 -3.53e-4,0.00744 0,3.88e-4 0,0.00109 0,0.00176 0,0.0025 -3.53e-4,0.00497 -3.53e-4,0.00706 0,0.00109 0,0.00138 0,0.00205 -3.53e-4,0.0025 -3.53e-4,0.00497 -3.53e-4,0.00744 0,7.055e-4 0,0.00138 -3.52e-4,0.0018 0,0.00275 0,0.00522 -3.53e-4,0.00773 0,3.88e-4 0,0.00109 0,0.00152 0,0.00275 -3.53e-4,0.00522 -3.53e-4,0.00797 0,4.233e-4 0,8.466e-4 0,0.00113 -3.53e-4,0.00247 -3.53e-4,0.00494 -7.06e-4,0.00769 0,4.234e-4 0,8.467e-4 0,0.00152 0,0.00275 -3.52e-4,0.00564 -3.52e-4,0.00843 l -3.53e-4,3.88e-4 c 0,0.00317 -3.53e-4,0.00593 -3.53e-4,0.00882 0,2.822e-4 0,2.822e-4 0,2.822e-4 -3.53e-4,0.00317 -3.53e-4,0.00607 -7.05e-4,0.00882 v 4.234e-4 c -3.53e-4,0.00275 -3.53e-4,0.00564 -7.06e-4,0.0084 0,0 0,4.233e-4 0,7.055e-4 -3.53e-4,0.00289 -3.53e-4,0.00603 -7.06e-4,0.00882 v 0 c 0,0.00314 -3.52e-4,0.00603 -7.05e-4,0.00921 v 0 c -0.117122,1.4692842 -1.307747,2.6250196 -2.76225,2.633839"
       style="fill:#e9f3f4;fill-opacity:1;fill-rule:nonzero;stroke:none;stroke-width:0.0352778"
       id="path1490" />
    <path
       d="m 68.657136,-8.963712 h -1.230841 v -0.3038827 c 0.179211,0.00113 0.354189,0.019861 0.523875,0.054046 0.249061,0.050835 0.48648,0.1358547 0.706966,0.2498372"
       style="fill:#e66e8a;fill-opacity:1;fill-rule:nonzero;stroke:none;stroke-width:0.0352778"
       id="path1492" />
    <path
       d="m 70.196306,-6.4711251 h -2.770011 v -1.1655426 h 2.496961 c 0.1651,0.354577 0.262467,0.7487003 0.27305,1.1655426"
       style="fill:#e66e8a;fill-opacity:1;fill-rule:nonzero;stroke:none;stroke-width:0.0352778"
       id="path1494" />
    <path
       d="m 69.092111,-4.1064203 h -1.665816 v -1.0537825 h 2.499783 c -0.192969,0.4167364 -0.480483,0.7776281 -0.833967,1.0537825"
       style="fill:#e66e8a;fill-opacity:1;fill-rule:nonzero;stroke:none;stroke-width:0.0352778"
       id="path1496" />
  </g>
</svg>
