<?xml version="1.0" encoding="UTF-8" standalone="no"?>
<!-- Created with Inkscape (http://www.inkscape.org/) -->

<svg
   width="80.819328mm"
   height="26.925783mm"
   viewBox="0 0 80.81933 26.925783"
   version="1.1"
   id="svg11017"
   inkscape:export-filename="3.svg"
   inkscape:export-xdpi="96"
   inkscape:export-ydpi="96"
   xmlns:inkscape="http://www.inkscape.org/namespaces/inkscape"
   xmlns:sodipodi="http://sodipodi.sourceforge.net/DTD/sodipodi-0.dtd"
   xmlns="http://www.w3.org/2000/svg"
   xmlns:svg="http://www.w3.org/2000/svg">
  <sodipodi:namedview
     id="namedview11019"
     pagecolor="#ffffff"
     bordercolor="#000000"
     borderopacity="0.25"
     inkscape:showpageshadow="2"
     inkscape:pageopacity="0.0"
     inkscape:pagecheckerboard="0"
     inkscape:deskcolor="#d1d1d1"
     inkscape:document-units="mm"
     showgrid="false" />
  <defs
     id="defs11014" />
  <g
     inkscape:label="Layer 1"
     inkscape:groupmode="layer"
     id="layer1"
     transform="translate(-92.42659,19.22255)">
    <path
       d="m 93.738102,2.2291618 c 0,0.1905 -0.15451,0.345017 -0.34501,0.345017 -0.19015,0 -0.34467,-0.154517 -0.34467,-0.345017 v -4.309181 c 0,-0.1905 0.15452,-0.345016 0.34467,-0.345016 0.1905,0 0.34501,0.154516 0.34501,0.345016 v 4.309181"
       style="fill:#447284;fill-opacity:1;fill-rule:nonzero;stroke:none;stroke-width:0.0352778"
       id="path1080" />
    <path
       d="m 94.760102,0.72421177 c 0.0469,0.08008 0.0201,0.183092 -0.0603,0.230364 -0.0801,0.04692 -0.18309,0.02011 -0.23001,-0.05997 l -1.06433,-1.814336 c -0.0469,-0.08008 -0.0201,-0.18344497 0.0603,-0.23036397 0.0801,-0.04692 0.18309,-0.02011 0.23001,0.05997 l 1.06433,1.81433597"
       style="fill:#447284;fill-opacity:1;fill-rule:nonzero;stroke:none;stroke-width:0.0352778"
       id="path1082" />
    <path
       d="m 95.294562,2.7565648 c 0,0.145345 -0.11818,0.263525 -0.26388,0.263525 -0.14534,0 -0.26353,-0.11818 -0.26353,-0.263525 v -3.29529703 c 0,-0.145345 0.11819,-0.263525 0.26353,-0.263525 0.1457,0 0.26388,0.11818 0.26388,0.263525 V 2.7565648"
       style="fill:#447284;fill-opacity:1;fill-rule:nonzero;stroke:none;stroke-width:0.0352778"
       id="path1084" />
    <path
       d="m 96.242472,2.7565648 c 0,0.145345 -0.11783,0.263525 -0.26352,0.263525 -0.1457,0 -0.26353,-0.11818 -0.26353,-0.263525 v -3.29529703 c 0,-0.145345 0.11783,-0.263525 0.26353,-0.263525 0.14569,0 0.26352,0.11818 0.26352,0.263525 V 2.7565648"
       style="fill:#447284;fill-opacity:1;fill-rule:nonzero;stroke:none;stroke-width:0.0352778"
       id="path1086" />
    <path
       d="m 159.34878,0.15765077 c 0,0.96978603 -0.78599,1.75612803 -1.75578,1.75612803 h -5.64938 c -0.96979,0 -1.75578,-0.786342 -1.75578,-1.75612803 0,-0.969786 0.78599,-1.75577497 1.75578,-1.75577497 h 5.64938 c 0.96979,0 1.75578,0.78598897 1.75578,1.75577497"
       style="fill:#447284;fill-opacity:1;fill-rule:nonzero;stroke:none;stroke-width:0.0352778"
       id="path1088" />
    <path
       d="m 145.68357,-3.3538992 2.48815,-1.215672 -0.0279,-0.05644 -2.48779,1.215672 0.0275,0.05644"
       style="fill:#1e4559;fill-opacity:1;fill-rule:nonzero;stroke:none;stroke-width:0.0352778"
       id="path1090" />
    <path
       d="m 146.29423,-3.5355802 0.84667,-0.413808 -0.12876,-0.263525 -0.84667,0.413808 0.12876,0.263525"
       style="fill:#29516a;fill-opacity:1;fill-rule:nonzero;stroke:none;stroke-width:0.0352778"
       id="path1092" />
    <path
       d="m 146.67735,-3.2879302 c -0.15205,-0.429683 -0.27093,-0.698147 -0.61524,-0.766586 l -0.70415,-0.139347 c -0.41663,-0.08255 -0.65722,0.234244 -0.93204,0.686506 -0.26811,0.440972 -0.51329,0.862541 -0.15346,1.235075 l 2.23415,0.07091 c 0.25576,-0.274814 0.30938,-0.696383 0.17074,-1.086556"
       style="fill:#447284;fill-opacity:1;fill-rule:nonzero;stroke:none;stroke-width:0.0352778"
       id="path1094" />
    <path
       d="m 148.94077,0.13225077 c 0,0.42157 -0.34184,0.763411 -0.76341,0.763411 h -5.70018 c -0.42157,0 -0.76341,-0.341841 -0.76341,-0.763411 V -2.1071822 c 0,-0.42157 0.34184,-0.763412 0.76341,-0.763412 h 5.70018 c 0.42157,0 0.76341,0.341842 0.76341,0.763412 v 2.23943297"
       style="fill:#588399;fill-opacity:1;fill-rule:nonzero;stroke:none;stroke-width:0.0352778"
       id="path1096" />
    <path
       d="m 126.34818,-5.3135802 h -0.11183 v -7.0033448 h 0.11183 v 7.0033448"
       style="fill:#29516a;fill-opacity:1;fill-rule:nonzero;stroke:none;stroke-width:0.0352778"
       id="path1098" />
    <path
       d="m 127.82455,-6.7994802 h -0.11183 v -7.0033448 h 0.11183 v 7.0033448"
       style="fill:#29516a;fill-opacity:1;fill-rule:nonzero;stroke:none;stroke-width:0.0352778"
       id="path1100" />
    <path
       d="m 123.23915,-6.7892492 h -0.38171 v -1.908528 h 0.38171 v 1.908528"
       style="fill:#29516a;fill-opacity:1;fill-rule:nonzero;stroke:none;stroke-width:0.0352778"
       id="path1102" />
    <path
       d="m 123.23915,-7.9343662 h -0.68722 v -1.22167 h 0.68722 v 1.22167"
       style="fill:#29516a;fill-opacity:1;fill-rule:nonzero;stroke:none;stroke-width:0.0352778"
       id="path1104" />
    <path
       d="m 124.02513,-7.5914662 h -0.25047 v -1.25342 h 0.25047 v 1.25342"
       style="fill:#29516a;fill-opacity:1;fill-rule:nonzero;stroke:none;stroke-width:0.0352778"
       id="path1106" />
    <path
       d="m 124.02513,-8.3435882 h -0.4512 v -0.802217 h 0.4512 v 0.802217"
       style="fill:#29516a;fill-opacity:1;fill-rule:nonzero;stroke:none;stroke-width:0.0352778"
       id="path1108" />
    <path
       d="m 124.99492,-7.3812112 h -0.36265 v -1.812925 h 0.36265 v 1.812925"
       style="fill:#29516a;fill-opacity:1;fill-rule:nonzero;stroke:none;stroke-width:0.0352778"
       id="path1110" />
    <path
       d="m 129.95709,-6.7130492 h -0.83961 v -6.1838418 h 0.22895 l 0.61066,6.1838418"
       style="fill:#29516a;fill-opacity:1;fill-rule:nonzero;stroke:none;stroke-width:0.0352778"
       id="path1112" />
    <path
       d="m 120.26699,-13.676178 h -2.19639 v 0.05927 h 2.19639 v -0.05927"
       style="fill:#29516a;fill-opacity:1;fill-rule:nonzero;stroke:none;stroke-width:0.0352778"
       id="path1114" />
    <path
       d="m 120.44479,-12.756133 h -2.52271 v 0.05927 h 2.52271 v -0.05927"
       style="fill:#29516a;fill-opacity:1;fill-rule:nonzero;stroke:none;stroke-width:0.0352778"
       id="path1116" />
    <path
       d="m 120.50441,-11.747189 h -2.74531 v 0.05962 h 2.74531 v -0.05962"
       style="fill:#29516a;fill-opacity:1;fill-rule:nonzero;stroke:none;stroke-width:0.0352778"
       id="path1118" />
    <path
       d="m 120.68221,-10.648991 h -3.042 v 0.05927 h 3.042 v -0.05927"
       style="fill:#29516a;fill-opacity:1;fill-rule:nonzero;stroke:none;stroke-width:0.0352778"
       id="path1120" />
    <path
       d="m 120.54921,-10.5675 -3.20639,1.1031368 0.0145,0.05786 3.20605,-1.1034888 -0.0141,-0.0575"
       style="fill:#29516a;fill-opacity:1;fill-rule:nonzero;stroke:none;stroke-width:0.0352778"
       id="path1122" />
    <path
       d="m 120.67551,-11.70415 -3.20605,1.103137 0.0141,0.0575 3.20639,-1.103136 -0.0145,-0.0575"
       style="fill:#29516a;fill-opacity:1;fill-rule:nonzero;stroke:none;stroke-width:0.0352778"
       id="path1124" />
    <path
       d="m 120.40916,-12.692986 -2.64301,0.964142 0.0141,0.05786 2.64301,-0.964494 -0.0141,-0.0575"
       style="fill:#29516a;fill-opacity:1;fill-rule:nonzero;stroke:none;stroke-width:0.0352778"
       id="path1126" />
    <path
       d="m 120.13717,-13.545297 -2.20804,0.856544 0.0141,0.05786 2.20803,-0.856897 -0.0141,-0.0575"
       style="fill:#29516a;fill-opacity:1;fill-rule:nonzero;stroke:none;stroke-width:0.0352778"
       id="path1128" />
    <path
       d="m 118.04202,-13.545297 2.20804,0.856544 -0.0141,0.05786 -2.20804,-0.856897 0.0141,-0.0575"
       style="fill:#29516a;fill-opacity:1;fill-rule:nonzero;stroke:none;stroke-width:0.0352778"
       id="path1130" />
    <path
       d="m 117.92913,-12.532119 2.61762,0.75565 -0.0201,0.05891 -2.61761,-0.75565 0.0201,-0.05891"
       style="fill:#29516a;fill-opacity:1;fill-rule:nonzero;stroke:none;stroke-width:0.0352778"
       id="path1132" />
    <path
       d="m 117.87269,-11.690039 2.96898,1.106664 -0.025,0.05397 -2.96898,-1.106664 0.025,-0.05398"
       style="fill:#29516a;fill-opacity:1;fill-rule:nonzero;stroke:none;stroke-width:0.0352778"
       id="path1134" />
    <path
       d="m 117.67125,-10.636644 3.2565,1.0354028 -0.0289,0.05539 -3.25685,-1.0357558 0.0293,-0.05503"
       style="fill:#29516a;fill-opacity:1;fill-rule:nonzero;stroke:none;stroke-width:0.0352778"
       id="path1136" />
    <path
       d="m 117.4744,-8.7217662 h -0.38417 l 0.83255,-5.8906838 h 0.38418 l -0.83256,5.8906838"
       style="fill:#29516a;fill-opacity:1;fill-rule:nonzero;stroke:none;stroke-width:0.0352778"
       id="path1138" />
    <path
       d="m 120.87095,-8.7217662 h 0.38417 l -0.8322,-5.8906838 h -0.38417 l 0.8322,5.8906838"
       style="fill:#29516a;fill-opacity:1;fill-rule:nonzero;stroke:none;stroke-width:0.0352778"
       id="path1140" />
    <path
       d="m 120.48395,-14.58458 v -0.604309 c 0,-0.707319 -0.57326,-1.280583 -1.28058,-1.280583 -0.70732,0 -1.28059,0.573264 -1.28059,1.280583 v 0.604309 h 2.56117"
       style="fill:#a5c1cc;fill-opacity:1;fill-rule:nonzero;stroke:none;stroke-width:0.0352778"
       id="path1142" />
    <path
       d="m 120.93198,-14.676655 h -5.12233 v 0.192263 h 5.12233 v -0.192263"
       style="fill:#29516a;fill-opacity:1;fill-rule:nonzero;stroke:none;stroke-width:0.0352778"
       id="path1144" />
    <path
       d="m 122.02065,-6.2248052 h -5.05848 v -2.881136 h 5.05848 v 2.881136"
       style="fill:#466480;fill-opacity:1;fill-rule:nonzero;stroke:none;stroke-width:0.0352778"
       id="path1146" />
    <path
       d="m 131.30435,-4.9819692 c 0,0.08467 -0.0684,0.152753 -0.15275,0.152753 h -14.50517 c -0.0843,0 -0.15275,-0.06809 -0.15275,-0.152753 v -2.442633 c 0,-0.08431 0.0684,-0.152753 0.15275,-0.152753 h 14.50517 c 0.0843,0 0.15275,0.06844 0.15275,0.152753 v 2.442633"
       style="fill:#29516a;fill-opacity:1;fill-rule:nonzero;stroke:none;stroke-width:0.0352778"
       id="path1148" />
    <path
       d="m 130.69264,-7.4492972 h -10.01219 c -0.0843,0 -0.15275,0.06844 -0.15275,0.152753 v 2.442634 c 0,0.08431 0.0684,0.152752 0.15275,0.152752 h 10.01219 v -2.748139"
       style="fill:#466480;fill-opacity:1;fill-rule:nonzero;stroke:none;stroke-width:0.0352778"
       id="path1150" />
    <path
       d="m 116.06647,-5.7492602 c 0.3175,0.61348 0.0152,1.173691 -0.71508,1.173691 h -2.77601 c -0.73025,0 -1.32221,-0.560211 -1.32221,-1.173691 v -2.778478 c 0,-0.271639 0.34184,-0.475545 0.76341,-0.475545 h 1.60337 c 0.42157,0 0.8689,0.203906 1.0093,0.475545 l 1.43722,2.778478"
       style="fill:#29516a;fill-opacity:1;fill-rule:nonzero;stroke:none;stroke-width:0.0352778"
       id="path1152" />
    <path
       d="m 107.51266,-6.6368492 h 0.45791 v -2.824339 h -0.45791 v 2.824339"
       style="fill:#1e4559;fill-opacity:1;fill-rule:nonzero;stroke:none;stroke-width:0.0352778"
       id="path1154" />
    <path
       d="m 108.73398,-6.7130492 h -3.2064 v -0.916164 h 3.2064 v 0.916164"
       style="fill:#466480;fill-opacity:1;fill-rule:nonzero;stroke:none;stroke-width:0.0352778"
       id="path1156" />
    <path
       d="m 109.11569,-4.7283212 h -2.29024 v -3.511551 h 2.29024 v 3.511551"
       style="fill:#1e4559;fill-opacity:1;fill-rule:nonzero;stroke:none;stroke-width:0.0352778"
       id="path1158" />
    <path
       d="m 105.22243,-3.7356052 c 0,0.08431 -0.0684,0.152753 -0.15275,0.152753 h -1.90853 c -0.0843,0 -0.15275,-0.06844 -0.15275,-0.152753 v -0.839964 c 0,-0.08431 0.0684,-0.152752 0.15275,-0.152752 h 1.90853 c 0.0843,0 0.15275,0.06844 0.15275,0.152752 v 0.839964"
       style="fill:#466480;fill-opacity:1;fill-rule:nonzero;stroke:none;stroke-width:0.0352778"
       id="path1160" />
    <path
       d="M 105.37483,-0.98746623 H 103.0084 V -3.4304522 h 2.36643 v 2.44298597"
       style="fill:#3b5972;fill-opacity:1;fill-rule:nonzero;stroke:none;stroke-width:0.0352778"
       id="path1162" />
    <path
       d="m 105.75654,-3.3538992 h -3.12985 v -0.381706 h 3.12985 v 0.381706"
       style="fill:#1e4559;fill-opacity:1;fill-rule:nonzero;stroke:none;stroke-width:0.0352778"
       id="path1164" />
    <path
       d="m 105.18151,0.61061777 c -0.0335,0.157339 0.0187,0.285044 0.11677,0.285044 h 31.76235 c 0.0981,0 0.15028,-0.127705 0.11677,-0.285044 l -1.29011,-6.09211997 c -0.0279,-0.132292 -0.12277,-0.239183 -0.21202,-0.239183 h -28.99163 c -0.0893,0 -0.18415,0.106891 -0.21202,0.239183 l -1.29011,6.09211997"
       style="fill:#466480;fill-opacity:1;fill-rule:nonzero;stroke:none;stroke-width:0.0352778"
       id="path1166" />
    <path
       d="m 108.99468,-0.18701323 c -0.0314,0.09172 0.0176,0.166511 0.11007,0.166511 h 29.99881 c 0.0924,0 0.14182,-0.07479 0.11042,-0.166511 l -1.21849,-3.56164397 c -0.0265,-0.07726 -0.11642,-0.139701 -0.20073,-0.139701 h -27.3812 c -0.0843,0 -0.17392,0.06244 -0.20073,0.139701 l -1.21815,3.56164397"
       style="fill:#29516a;fill-opacity:1;fill-rule:nonzero;stroke:none;stroke-width:0.0352778"
       id="path1168" />
    <path
       d="m 123.40742,1.8809708 v 0 H 97.295162 l 2.729798,-2.967214 h 23.38246 v 2.967214"
       style="fill:#3b5972;fill-opacity:1;fill-rule:nonzero;stroke:none;stroke-width:0.0352778"
       id="path1170" />
    <path
       d="m 133.10281,1.4992648 v 0 h -26.11226 l 2.73015,-2.967214 h 23.38211 v 2.967214"
       style="fill:#1e4559;fill-opacity:1;fill-rule:nonzero;stroke:none;stroke-width:0.0352778"
       id="path1172" />
    <path
       d="m 147.38291,1.9995038 -3.0861,0.593725 -35.13244,-0.593725 c 0,0 4.06753,-1.46579203 4.06753,-3.560586 h 28.57253 l 5.57848,3.560586"
       style="fill:#447284;fill-opacity:1;fill-rule:nonzero;stroke:none;stroke-width:0.0352778"
       id="path1174" />
    <path
       d="m 149.75992,0.53371177 c -9.98114,0 -57.172578,0 -57.172578,0 -0.19262,-0.192616 -0.1584,2.08985603 -0.1584,2.08985603 l 0.2473,1.896181 c 0,0 67.677598,0.222955 74.068878,0.222955 2.53894,-3.77119503 4.99074,-6.923264 6.47911,-8.061325 0.76482,-0.584906 -18.92653,3.85233297 -23.46431,3.85233297"
       style="fill:#588399;fill-opacity:1;fill-rule:nonzero;stroke:none;stroke-width:0.0352778"
       id="path1176" />
    <path
       d="m 149.75992,0.94081777 c 4.03225,0 20.0279,-3.50308397 23.00605,-3.87349997 0.16087,-0.146403 0.31433,-0.275873 0.45826,-0.385939 0.76482,-0.584906 -18.92653,3.85233297 -23.46431,3.85233297 -9.98114,0 -57.172578,0 -57.172578,0 -0.0607,-0.06068 -0.0988,0.124884 -0.12277,0.407106 6.58495,0 48.112548,0 57.295348,0"
       style="fill:#a5c1cc;fill-opacity:1;fill-rule:nonzero;stroke:none;stroke-width:0.0352778"
       id="path1178" />
    <path
       d="m 114.51883,-1.0146302 h -0.75953 v -0.239183 h 0.75953 v 0.239183"
       style="fill:#29516a;fill-opacity:1;fill-rule:nonzero;stroke:none;stroke-width:0.0352778"
       id="path1180" />
    <path
       d="m 115.58175,-1.0146302 h -0.75953 v -0.239183 h 0.75953 v 0.239183"
       style="fill:#29516a;fill-opacity:1;fill-rule:nonzero;stroke:none;stroke-width:0.0352778"
       id="path1182" />
    <path
       d="m 116.64467,-1.0146302 h -0.75953 v -0.239183 h 0.75953 v 0.239183"
       style="fill:#29516a;fill-opacity:1;fill-rule:nonzero;stroke:none;stroke-width:0.0352778"
       id="path1184" />
    <path
       d="m 117.70759,-1.0146302 h -0.75953 v -0.239183 h 0.75953 v 0.239183"
       style="fill:#29516a;fill-opacity:1;fill-rule:nonzero;stroke:none;stroke-width:0.0352778"
       id="path1186" />
    <path
       d="m 118.77051,-1.0146302 h -0.75953 v -0.239183 h 0.75953 v 0.239183"
       style="fill:#29516a;fill-opacity:1;fill-rule:nonzero;stroke:none;stroke-width:0.0352778"
       id="path1188" />
    <path
       d="m 119.83308,-1.0146302 h -0.75918 v -0.239183 h 0.75918 v 0.239183"
       style="fill:#29516a;fill-opacity:1;fill-rule:nonzero;stroke:none;stroke-width:0.0352778"
       id="path1190" />
    <path
       d="m 120.896,-1.0146302 h -0.75918 v -0.239183 h 0.75918 v 0.239183"
       style="fill:#29516a;fill-opacity:1;fill-rule:nonzero;stroke:none;stroke-width:0.0352778"
       id="path1192" />
    <path
       d="m 121.95892,-1.0146302 h -0.75918 v -0.239183 h 0.75918 v 0.239183"
       style="fill:#29516a;fill-opacity:1;fill-rule:nonzero;stroke:none;stroke-width:0.0352778"
       id="path1194" />
    <path
       d="m 123.02183,-1.0146302 h -0.75953 v -0.239183 h 0.75953 v 0.239183"
       style="fill:#29516a;fill-opacity:1;fill-rule:nonzero;stroke:none;stroke-width:0.0352778"
       id="path1196" />
    <path
       d="m 124.08475,-1.0146302 h -0.75953 v -0.239183 h 0.75953 v 0.239183"
       style="fill:#29516a;fill-opacity:1;fill-rule:nonzero;stroke:none;stroke-width:0.0352778"
       id="path1198" />
    <path
       d="m 125.14767,-1.0146302 h -0.75953 v -0.239183 h 0.75953 v 0.239183"
       style="fill:#29516a;fill-opacity:1;fill-rule:nonzero;stroke:none;stroke-width:0.0352778"
       id="path1200" />
    <path
       d="m 126.21059,-1.0146302 h -0.75953 v -0.239183 h 0.75953 v 0.239183"
       style="fill:#29516a;fill-opacity:1;fill-rule:nonzero;stroke:none;stroke-width:0.0352778"
       id="path1202" />
    <path
       d="m 127.27351,-1.0146302 h -0.75953 v -0.239183 h 0.75953 v 0.239183"
       style="fill:#29516a;fill-opacity:1;fill-rule:nonzero;stroke:none;stroke-width:0.0352778"
       id="path1204" />
    <path
       d="m 128.33608,-1.0146302 h -0.75918 v -0.239183 h 0.75918 v 0.239183"
       style="fill:#29516a;fill-opacity:1;fill-rule:nonzero;stroke:none;stroke-width:0.0352778"
       id="path1206" />
    <path
       d="m 129.399,-1.0146302 h -0.75918 v -0.239183 h 0.75918 v 0.239183"
       style="fill:#29516a;fill-opacity:1;fill-rule:nonzero;stroke:none;stroke-width:0.0352778"
       id="path1208" />
    <path
       d="m 130.46192,-1.0146302 h -0.75918 v -0.239183 h 0.75918 v 0.239183"
       style="fill:#29516a;fill-opacity:1;fill-rule:nonzero;stroke:none;stroke-width:0.0352778"
       id="path1210" />
    <path
       d="m 131.52484,-1.0146302 h -0.75918 v -0.239183 h 0.75918 v 0.239183"
       style="fill:#29516a;fill-opacity:1;fill-rule:nonzero;stroke:none;stroke-width:0.0352778"
       id="path1212" />
    <path
       d="m 132.58776,-1.0146302 h -0.75953 v -0.239183 h 0.75953 v 0.239183"
       style="fill:#29516a;fill-opacity:1;fill-rule:nonzero;stroke:none;stroke-width:0.0352778"
       id="path1214" />
    <path
       d="m 133.65068,-1.0146302 h -0.75953 v -0.239183 h 0.75953 v 0.239183"
       style="fill:#29516a;fill-opacity:1;fill-rule:nonzero;stroke:none;stroke-width:0.0352778"
       id="path1216" />
    <path
       d="m 134.7136,-1.0146302 h -0.75953 v -0.239183 h 0.75953 v 0.239183"
       style="fill:#29516a;fill-opacity:1;fill-rule:nonzero;stroke:none;stroke-width:0.0352778"
       id="path1218" />
    <path
       d="m 135.77652,-1.0146302 h -0.75953 v -0.239183 h 0.75953 v 0.239183"
       style="fill:#29516a;fill-opacity:1;fill-rule:nonzero;stroke:none;stroke-width:0.0352778"
       id="path1220" />
    <path
       d="m 136.83944,-1.0146302 h -0.75954 v -0.239183 h 0.75954 v 0.239183"
       style="fill:#29516a;fill-opacity:1;fill-rule:nonzero;stroke:none;stroke-width:0.0352778"
       id="path1222" />
    <path
       d="m 137.902,-1.0146302 h -0.75918 v -0.239183 h 0.75918 v 0.239183"
       style="fill:#29516a;fill-opacity:1;fill-rule:nonzero;stroke:none;stroke-width:0.0352778"
       id="path1224" />
    <path
       d="m 138.96492,-1.0146302 h -0.75918 v -0.239183 h 0.75918 v 0.239183"
       style="fill:#29516a;fill-opacity:1;fill-rule:nonzero;stroke:none;stroke-width:0.0352778"
       id="path1226" />
    <path
       d="m 140.02784,-1.0146302 h -0.75918 v -0.239183 h 0.75918 v 0.239183"
       style="fill:#29516a;fill-opacity:1;fill-rule:nonzero;stroke:none;stroke-width:0.0352778"
       id="path1228" />
    <path
       d="m 141.09076,-1.0146302 h -0.75953 v -0.239183 h 0.75953 v 0.239183"
       style="fill:#29516a;fill-opacity:1;fill-rule:nonzero;stroke:none;stroke-width:0.0352778"
       id="path1230" />
    <path
       d="m 171.31465,-3.1076602 c -3.09492,1.551164 -7.2697,3.79800597 -11.79654,6.323542 -5.14103,0 -49.77095,-0.144286 -67.038368,-0.200731 l 0.1965,1.504598 c 0,0 67.677598,0.222955 74.068878,0.222955 2.53894,-3.77119503 4.99074,-6.923264 6.47911,-8.061325 0.16087,-0.12312 -0.58808,-0.02293 -1.90958,0.210961"
       style="fill:#447284;fill-opacity:1;fill-rule:nonzero;stroke:none;stroke-width:0.0352778"
       id="path1232" />
    <path
       d="m 163.64349,2.5177348 -1.16381,0.9017 -1.36913,-1.600906 1.16381,-0.90170003 1.36913,1.60090603"
       style="fill:#29516a;fill-opacity:1;fill-rule:nonzero;stroke:none;stroke-width:0.0352778"
       id="path1234" />
    <path
       d="m 98.103372,5.9802488 c 2.307518,0.166864 3.677358,0.938389 3.679478,0.582083 H 98.103372 Z M 167.08978,4.4227348 H 92.640962 l 0.0713,1.212497 c 0.0586,0 0.13371,0.0014 0.21696,0.0039 l 0.4251,2.064102 h 1.28341 l 0.40181,-1.951214 c 0.72531,0.04657 0.19473,0.105128 1.13771,0.172156 v 0.638175 h -0.99836 v 0.356306 l 2.94816,-0.02258 c 2.772828,0.319969 3.303408,0.642055 3.303408,0.642055 0,0 47.56433,-0.08749 64.79505,-0.08749 1.39877,0 1.51977,-0.994834 0.16934,-1.576212 -0.4565,-0.196497 0.69497,-1.45168 0.69497,-1.45168"
       style="fill:#e4355c;fill-opacity:1;fill-rule:nonzero;stroke:none;stroke-width:0.0352778"
       id="path1236" />
    <path
       d="m 92.712222,5.6352318 -10e-4,-0.02716 h 73.589098 c -0.0286,0.124531 -0.007,0.22225 0.0949,0.266347 0.13264,0.05715 0.24694,0.118886 0.35136,0.182739 H 98.847092 c -0.23566,-0.03175 -0.48331,-0.05821 -0.74331,-0.07691 v 0.07691 h -1.92616 v -0.132997 c -0.94298,-0.06703 -0.4124,-0.125589 -1.13771,-0.172156 l -0.0628,0.305153 h -1.96144 l -0.0861,-0.418041 c -0.0833,-0.0025 -0.15839,-0.0039 -0.21696,-0.0039"
       style="fill:#f2736d;fill-opacity:1;fill-rule:nonzero;stroke:none;stroke-width:0.0352778"
       id="path1238" />
    <path
       d="m 125.14767,-1.5219242 h -7.1 v -1.984728 h 7.1 v 1.984728"
       style="fill:#1e4559;fill-opacity:1;fill-rule:nonzero;stroke:none;stroke-width:0.0352778"
       id="path1240" />
    <path
       d="m 128.58302,-3.5066522 v 0.992364 h 3.2826 v 0.992364 h 3.81706 v -1.984728 h -7.09966"
       style="fill:#1e4559;fill-opacity:1;fill-rule:nonzero;stroke:none;stroke-width:0.0352778"
       id="path1242" />
    <path
       d="m 111.73436,-3.6371802 c 0,0.219428 -0.1778,0.397228 -0.39723,0.397228 h -0.7553 c -0.21943,0 -0.39723,-0.1778 -0.39723,-0.397228 0,-0.21978 0.1778,-0.39758 0.39723,-0.39758 h 0.7553 c 0.21943,0 0.39723,0.1778 0.39723,0.39758"
       style="fill:#a5c1cc;fill-opacity:1;fill-rule:nonzero;stroke:none;stroke-width:0.0352778"
       id="path1244" />
    <path
       d="m 113.56668,-3.6371802 c 0,0.219428 -0.1778,0.397228 -0.39722,0.397228 h -0.7553 c -0.21943,0 -0.39758,-0.1778 -0.39758,-0.397228 0,-0.21978 0.17815,-0.39758 0.39758,-0.39758 h 0.7553 c 0.21942,0 0.39722,0.1778 0.39722,0.39758"
       style="fill:#a5c1cc;fill-opacity:1;fill-rule:nonzero;stroke:none;stroke-width:0.0352778"
       id="path1246" />
    <path
       d="m 115.39901,-3.6371802 c 0,0.219428 -0.17815,0.397228 -0.39758,0.397228 h -0.75494 c -0.21978,0 -0.39758,-0.1778 -0.39758,-0.397228 0,-0.21978 0.1778,-0.39758 0.39758,-0.39758 h 0.75494 c 0.21943,0 0.39758,0.1778 0.39758,0.39758"
       style="fill:#a5c1cc;fill-opacity:1;fill-rule:nonzero;stroke:none;stroke-width:0.0352778"
       id="path1248" />
    <path
       d="m 117.23099,-3.6371802 c 0,0.219428 -0.1778,0.397228 -0.39723,0.397228 h -0.7553 c -0.21943,0 -0.39723,-0.1778 -0.39723,-0.397228 0,-0.21978 0.1778,-0.39758 0.39723,-0.39758 h 0.7553 c 0.21943,0 0.39723,0.1778 0.39723,0.39758"
       style="fill:#a5c1cc;fill-opacity:1;fill-rule:nonzero;stroke:none;stroke-width:0.0352778"
       id="path1250" />
    <path
       d="m 119.06331,-3.6371802 c 0,0.219428 -0.1778,0.397228 -0.39722,0.397228 h -0.7553 c -0.21943,0 -0.39758,-0.1778 -0.39758,-0.397228 0,-0.21978 0.17815,-0.39758 0.39758,-0.39758 h 0.7553 c 0.21942,0 0.39722,0.1778 0.39722,0.39758"
       style="fill:#a5c1cc;fill-opacity:1;fill-rule:nonzero;stroke:none;stroke-width:0.0352778"
       id="path1252" />
    <path
       d="m 120.89564,-3.6371802 c 0,0.219428 -0.17815,0.397228 -0.39758,0.397228 h -0.75494 c -0.21978,0 -0.39758,-0.1778 -0.39758,-0.397228 0,-0.21978 0.1778,-0.39758 0.39758,-0.39758 h 0.75494 c 0.21943,0 0.39758,0.1778 0.39758,0.39758"
       style="fill:#a5c1cc;fill-opacity:1;fill-rule:nonzero;stroke:none;stroke-width:0.0352778"
       id="path1254" />
    <path
       d="m 122.72797,-3.6371802 c 0,0.219428 -0.17815,0.397228 -0.39758,0.397228 h -0.7553 c -0.21943,0 -0.39723,-0.1778 -0.39723,-0.397228 0,-0.21978 0.1778,-0.39758 0.39723,-0.39758 h 0.7553 c 0.21943,0 0.39758,0.1778 0.39758,0.39758"
       style="fill:#a5c1cc;fill-opacity:1;fill-rule:nonzero;stroke:none;stroke-width:0.0352778"
       id="path1256" />
    <path
       d="m 124.55995,-3.6371802 c 0,0.219428 -0.1778,0.397228 -0.39723,0.397228 h -0.7553 c -0.21943,0 -0.39758,-0.1778 -0.39758,-0.397228 0,-0.21978 0.17815,-0.39758 0.39758,-0.39758 h 0.7553 c 0.21943,0 0.39723,0.1778 0.39723,0.39758"
       style="fill:#a5c1cc;fill-opacity:1;fill-rule:nonzero;stroke:none;stroke-width:0.0352778"
       id="path1258" />
    <path
       d="m 130.04493,-3.6371802 c 0,0.219428 -0.1778,0.397228 -0.39722,0.397228 h -0.7553 c -0.21943,0 -0.39723,-0.1778 -0.39723,-0.397228 0,-0.21978 0.1778,-0.39758 0.39723,-0.39758 h 0.7553 c 0.21942,0 0.39722,0.1778 0.39722,0.39758"
       style="fill:#a5c1cc;fill-opacity:1;fill-rule:nonzero;stroke:none;stroke-width:0.0352778"
       id="path1260" />
    <path
       d="m 131.87726,-3.6371802 c 0,0.219428 -0.1778,0.397228 -0.39758,0.397228 h -0.75494 c -0.21943,0 -0.39758,-0.1778 -0.39758,-0.397228 0,-0.21978 0.17815,-0.39758 0.39758,-0.39758 h 0.75494 c 0.21978,0 0.39758,0.1778 0.39758,0.39758"
       style="fill:#a5c1cc;fill-opacity:1;fill-rule:nonzero;stroke:none;stroke-width:0.0352778"
       id="path1262" />
    <path
       d="m 133.70959,-3.6371802 c 0,0.219428 -0.17815,0.397228 -0.39758,0.397228 h -0.7553 c -0.21942,0 -0.39722,-0.1778 -0.39722,-0.397228 0,-0.21978 0.1778,-0.39758 0.39722,-0.39758 h 0.7553 c 0.21943,0 0.39758,0.1778 0.39758,0.39758"
       style="fill:#a5c1cc;fill-opacity:1;fill-rule:nonzero;stroke:none;stroke-width:0.0352778"
       id="path1264" />
    <path
       d="m 135.54157,-3.6371802 c 0,0.219428 -0.1778,0.397228 -0.39723,0.397228 h -0.7553 c -0.21943,0 -0.39723,-0.1778 -0.39723,-0.397228 0,-0.21978 0.1778,-0.39758 0.39723,-0.39758 h 0.7553 c 0.21943,0 0.39723,0.1778 0.39723,0.39758"
       style="fill:#a5c1cc;fill-opacity:1;fill-rule:nonzero;stroke:none;stroke-width:0.0352778"
       id="path1266" />
    <path
       d="m 137.37389,-3.6371802 c 0,0.219428 -0.1778,0.397228 -0.39758,0.397228 h -0.75494 c -0.21943,0 -0.39758,-0.1778 -0.39758,-0.397228 0,-0.21978 0.17815,-0.39758 0.39758,-0.39758 h 0.75494 c 0.21978,0 0.39758,0.1778 0.39758,0.39758"
       style="fill:#a5c1cc;fill-opacity:1;fill-rule:nonzero;stroke:none;stroke-width:0.0352778"
       id="path1268" />
    <path
       d="m 121.76489,-5.4917332 h -2.39572 v 1.22167 h 2.39572 v -1.22167"
       style="fill:#1e4559;fill-opacity:1;fill-rule:nonzero;stroke:none;stroke-width:0.0352778"
       id="path1270" />
    <path
       d="m 124.58958,-5.4917332 h -2.62467 v 1.22167 h 2.62467 v -1.22167"
       style="fill:#1e4559;fill-opacity:1;fill-rule:nonzero;stroke:none;stroke-width:0.0352778"
       id="path1272" />
    <path
       d="m 127.41427,-5.4917332 h -2.62467 v 1.22167 h 2.62467 v -1.22167"
       style="fill:#1e4559;fill-opacity:1;fill-rule:nonzero;stroke:none;stroke-width:0.0352778"
       id="path1274" />
    <path
       d="m 129.7807,-5.4917332 h -2.1664 v 1.22167 h 2.1664 v -1.22167"
       style="fill:#1e4559;fill-opacity:1;fill-rule:nonzero;stroke:none;stroke-width:0.0352778"
       id="path1276" />
    <path
       d="m 129.98073,-5.4917332 v 1.22167 h 2.2666 v -1.22167 h -2.2666"
       style="fill:#1e4559;fill-opacity:1;fill-rule:nonzero;stroke:none;stroke-width:0.0352778"
       id="path1278" />
    <path
       d="m 119.16915,-5.4917332 h -3.10621 v 1.22167 h 3.10621 v -1.22167"
       style="fill:#1e4559;fill-opacity:1;fill-rule:nonzero;stroke:none;stroke-width:0.0352778"
       id="path1280" />
    <path
       d="m 108.50503,-9.0413832 c 0,0.316089 -0.25647,0.572559 -0.57256,0.572559 h -0.83996 c -0.31609,0 -0.57256,-0.25647 -0.57256,-0.572559 0,-0.316442 0.25647,-0.572558 0.57256,-0.572558 h 0.83996 c 0.31609,0 0.57256,0.256116 0.57256,0.572558"
       style="fill:#466480;fill-opacity:1;fill-rule:nonzero;stroke:none;stroke-width:0.0352778"
       id="path1282" />
    <path
       d="m 111.55867,-8.1636722 h 1.60303 c 0.42192,0 0.95214,0.204259 1.20332,0.475545 l 1.58433,1.712736 -1.3201,-2.552347 c -0.1404,-0.271639 -0.58773,-0.475545 -1.0093,-0.475545 h -1.60337 c -0.42157,0 -0.76341,0.203906 -0.76341,0.475545 v 0.409222 c 0.0871,-0.02822 0.18944,-0.04516 0.3055,-0.04516"
       style="fill:#466480;fill-opacity:1;fill-rule:nonzero;stroke:none;stroke-width:0.0352778"
       id="path1284" />
    <path
       d="M 116.98581,-17.737708 H 116.578 l -0.001,0.02928 h 0.40992 l -0.001,-0.02928"
       style="fill:#29516a;fill-opacity:1;fill-rule:nonzero;stroke:none;stroke-width:0.0352778"
       id="path1286" />
    <path
       d="m 117.0172,-17.191256 h -0.48895 l -0.001,0.03563 h 0.49177 l -10e-4,-0.03563"
       style="fill:#29516a;fill-opacity:1;fill-rule:nonzero;stroke:none;stroke-width:0.0352778"
       id="path1288" />
    <path
       d="m 117.08211,-16.455361 h -0.60854 l -0.002,0.04515 h 0.61277 l -0.002,-0.04515"
       style="fill:#29516a;fill-opacity:1;fill-rule:nonzero;stroke:none;stroke-width:0.0352778"
       id="path1290" />
    <path
       d="m 117.05813,-16.393272 -0.70062,0.968022 v 0.05821 l 0.7052,-0.98178 -0.005,-0.04445"
       style="fill:#29516a;fill-opacity:1;fill-rule:nonzero;stroke:none;stroke-width:0.0352778"
       id="path1292" />
    <path
       d="m 117.0486,-17.165503 -0.61101,0.746478 3.5e-4,0.0441 0.61489,-0.756003 -0.004,-0.03457"
       style="fill:#29516a;fill-opacity:1;fill-rule:nonzero;stroke:none;stroke-width:0.0352778"
       id="path1294" />
    <path
       d="m 116.98122,-17.706311 -0.45191,0.525992 0.001,0.03457 0.45403,-0.531989 -0.003,-0.02857"
       style="fill:#29516a;fill-opacity:1;fill-rule:nonzero;stroke:none;stroke-width:0.0352778"
       id="path1296" />
    <path
       d="m 116.92548,-18.099658 -0.34784,0.395464 10e-4,0.02858 0.34925,-0.399345 -0.003,-0.02469"
       style="fill:#29516a;fill-opacity:1;fill-rule:nonzero;stroke:none;stroke-width:0.0352778"
       id="path1298" />
    <path
       d="m 116.60975,-18.099658 0.34536,0.395464 -0.001,0.02858 -0.34713,-0.399345 0.003,-0.02469"
       style="fill:#29516a;fill-opacity:1;fill-rule:nonzero;stroke:none;stroke-width:0.0352778"
       id="path1300" />
    <path
       d="m 116.57482,-17.625172 0.44909,0.416278 -0.002,0.03528 -0.4512,-0.421216 0.004,-0.03034"
       style="fill:#29516a;fill-opacity:1;fill-rule:nonzero;stroke:none;stroke-width:0.0352778"
       id="path1302" />
    <path
       d="m 116.5473,-17.157036 0.56903,0.751417 -0.003,0.04163 -0.57185,-0.760236 0.006,-0.03281"
       style="fill:#29516a;fill-opacity:1;fill-rule:nonzero;stroke:none;stroke-width:0.0352778"
       id="path1304" />
    <path
       d="m 116.47922,-16.446189 0.6992,0.885825 -0.004,0.05398 -0.70308,-0.897819 0.008,-0.04198"
       style="fill:#29516a;fill-opacity:1;fill-rule:nonzero;stroke:none;stroke-width:0.0352778"
       id="path1306" />
    <path
       d="m 116.34587,-14.600455 h -0.0981 l 0.35948,-3.917951 h 0.0533 l -0.31468,3.917951"
       style="fill:#29516a;fill-opacity:1;fill-rule:nonzero;stroke:none;stroke-width:0.0352778"
       id="path1308" />
    <path
       d="m 117.21405,-14.600455 h 0.0984 l -0.35948,-3.917951 h -0.0533 l 0.31432,3.917951"
       style="fill:#29516a;fill-opacity:1;fill-rule:nonzero;stroke:none;stroke-width:0.0352778"
       id="path1310" />
    <path
       d="m 117.53861,-18.390347 h -2.94534 v -0.128059 h 2.94534 v 0.128059"
       style="fill:#29516a;fill-opacity:1;fill-rule:nonzero;stroke:none;stroke-width:0.0352778"
       id="path1312" />
    <path
       d="M 117.09023,-18.4542 H 116.578 l 0.12805,-0.76835 z"
       style="fill:#29516a;fill-opacity:1;fill-rule:nonzero;stroke:none;stroke-width:0.0352778"
       id="path1314" />
    <path
       d="m 122.10849,-13.07575 h -1.7526 l 0.19191,0.896409 1.44075,-0.576439 0.11994,-0.0441 v -0.275872"
       style="fill:#29516a;fill-opacity:1;fill-rule:nonzero;stroke:none;stroke-width:0.0352778"
       id="path1316" />
    <path
       d="m 122.5664,-11.859372 h -2.0186 l 0.23672,0.896408 1.77306,-0.576086 0.009,-0.0028 v -0.3175"
       style="fill:#29516a;fill-opacity:1;fill-rule:nonzero;stroke:none;stroke-width:0.0352778"
       id="path1318" />
    <path
       d="m 124.99492,-8.4688242 h -0.65264 v -1.160287 h 0.65264 v 1.160287"
       style="fill:#29516a;fill-opacity:1;fill-rule:nonzero;stroke:none;stroke-width:0.0352778"
       id="path1320" />
    <path
       d="m 146.44699,0.15765077 -3.2826,-1.98472797 v -0.305505 l 3.2826,1.98507997 v 0.305153"
       style="fill:#447284;fill-opacity:1;fill-rule:nonzero;stroke:none;stroke-width:0.0352778"
       id="path1322" />
    <path
       d="m 148.54637,-2.1325822 h -3.35915 v -0.305153 h 3.35915 v 0.305153"
       style="fill:#447284;fill-opacity:1;fill-rule:nonzero;stroke:none;stroke-width:0.0352778"
       id="path1324" />
  </g>
</svg>
