<?xml version="1.0" encoding="UTF-8" standalone="no"?>
<!-- Created with Inkscape (http://www.inkscape.org/) -->

<svg
   width="99.406662mm"
   height="28.795378mm"
   viewBox="0 0 99.406664 28.795378"
   version="1.1"
   id="svg11017"
   inkscape:export-filename="4.svg"
   inkscape:export-xdpi="96"
   inkscape:export-ydpi="96"
   xmlns:inkscape="http://www.inkscape.org/namespaces/inkscape"
   xmlns:sodipodi="http://sodipodi.sourceforge.net/DTD/sodipodi-0.dtd"
   xmlns="http://www.w3.org/2000/svg"
   xmlns:svg="http://www.w3.org/2000/svg">
  <sodipodi:namedview
     id="namedview11019"
     pagecolor="#ffffff"
     bordercolor="#000000"
     borderopacity="0.25"
     inkscape:showpageshadow="2"
     inkscape:pageopacity="0.0"
     inkscape:pagecheckerboard="0"
     inkscape:deskcolor="#d1d1d1"
     inkscape:document-units="mm"
     showgrid="false" />
  <defs
     id="defs11014" />
  <g
     inkscape:label="Layer 1"
     inkscape:groupmode="layer"
     id="layer1"
     transform="translate(-105.98952,18.858108)">
    <path
       d="m 162.03768,-4.5808375 -0.0388,0.033514 -8.13294,-9.5126535 0.0392,-0.03351 8.13258,9.5126536"
       style="fill:#254254;fill-opacity:1;fill-rule:nonzero;stroke:none;stroke-width:0.0352778"
       id="path594" />
    <path
       d="m 160.86787,-3.6928958 -0.0423,0.028928 -7.02063,-10.3607312 0.0423,-0.02893 7.02063,10.3607314"
       style="fill:#254254;fill-opacity:1;fill-rule:nonzero;stroke:none;stroke-width:0.0352778"
       id="path596" />
    <path
       d="m 169.0823,-9.7821934 c 0,0.396875 -0.32173,0.7182556 -0.71825,0.7182556 -0.39652,0 -0.7179,-0.3213806 -0.7179,-0.7182556 0,-0.3965226 0.32138,-0.7179026 0.7179,-0.7179026 0.39652,0 0.71825,0.32138 0.71825,0.7179026"
       style="fill:#254254;fill-opacity:1;fill-rule:nonzero;stroke:none;stroke-width:0.0352778"
       id="path598" />
    <path
       d="m 161.79885,-6.858371 h -1.07703 v -3.179939 h 1.07703 v 3.179939"
       style="fill:#466480;fill-opacity:1;fill-rule:nonzero;stroke:none;stroke-width:0.0352778"
       id="path600" />
    <path
       d="m 162.67057,-8.1064988 h -0.10231 v -5.2659142 h 0.10231 v 5.2659142"
       style="fill:#254254;fill-opacity:1;fill-rule:nonzero;stroke:none;stroke-width:0.0352778"
       id="path602" />
    <path
       d="m 164.20938,-8.1064988 h -0.10265 v -5.2659142 h 0.10265 v 5.2659142"
       style="fill:#254254;fill-opacity:1;fill-rule:nonzero;stroke:none;stroke-width:0.0352778"
       id="path604" />
    <path
       d="m 163.33414,-6.858371 h -1.24989 v -3.179939 h 1.24989 v 3.179939"
       style="fill:#466480;fill-opacity:1;fill-rule:nonzero;stroke:none;stroke-width:0.0352778"
       id="path606" />
    <path
       d="m 164.92446,-6.858371 h -1.25024 v -3.179939 h 1.25024 v 3.179939"
       style="fill:#466480;fill-opacity:1;fill-rule:nonzero;stroke:none;stroke-width:0.0352778"
       id="path608" />
    <path
       d="m 165.85333,-2.1269151 h -5.31142 v -5.4017337 h 4.86127 l 0.45015,5.4017337"
       style="fill:#254254;fill-opacity:1;fill-rule:nonzero;stroke:none;stroke-width:0.0352778"
       id="path610" />
    <path
       d="m 159.10151,-0.86679282 h -5.31142 V -6.2681737 h 4.86128 l 0.45014,5.40138088"
       style="fill:#254254;fill-opacity:1;fill-rule:nonzero;stroke:none;stroke-width:0.0352778"
       id="path612" />
    <path
       d="m 142.87232,-2.5498957 h 5.12904 v -4.1035114 h -5.12904 v 4.1035114"
       style="fill:#254254;fill-opacity:1;fill-rule:nonzero;stroke:none;stroke-width:0.0352778"
       id="path614" />
    <path
       d="m 141.38501,-5.3195542 h 0.35878 v -4.1035114 h -0.35878 v 4.1035114"
       style="fill:#254254;fill-opacity:1;fill-rule:nonzero;stroke:none;stroke-width:0.0352778"
       id="path616" />
    <path
       d="m 143.05753,-5.1657431 h 1.39912 v -4.1035114 h -1.39912 v 4.1035114"
       style="fill:#254254;fill-opacity:1;fill-rule:nonzero;stroke:none;stroke-width:0.0352778"
       id="path618" />
    <path
       d="m 143.51967,-7.1659932 h 0.47484 v -3.6932308 h -0.47484 v 3.6932308"
       style="fill:#254254;fill-opacity:1;fill-rule:nonzero;stroke:none;stroke-width:0.0352778"
       id="path620" />
    <path
       d="m 138.27972,-3.4731152 h 6.95198 v -4.513792 h -5.59082 l -1.36116,4.513792"
       style="fill:#466480;fill-opacity:1;fill-rule:nonzero;stroke:none;stroke-width:0.0352778"
       id="path622" />
    <path
       d="m 171.57433,-1.0978623 h -5.31143 v -5.4013809 h 4.86128 l 0.45015,5.4013809"
       style="fill:#3b5972;fill-opacity:1;fill-rule:nonzero;stroke:none;stroke-width:0.0352778"
       id="path624" />
    <path
       d="m 173.86562,-2.3971429 h -5.31142 v -5.4013809 h 4.86127 l 0.45015,5.4013809"
       style="fill:#254254;fill-opacity:1;fill-rule:nonzero;stroke:none;stroke-width:0.0352778"
       id="path626" />
    <path
       d="m 147.21819,-0.86679282 h -5.31142 V -6.2681737 h 4.86163 l 0.44979,5.40138088"
       style="fill:#254254;fill-opacity:1;fill-rule:nonzero;stroke:none;stroke-width:0.0352778"
       id="path628" />
    <path
       d="m 149.73914,2.4641352 h -11.61323 v -7.0216894 h 11.61323 v 7.0216894"
       style="fill:#3b5972;fill-opacity:1;fill-rule:nonzero;stroke:none;stroke-width:0.0352778"
       id="path630" />
    <path
       d="m 174.31576,2.4641352 h -18.3649 v -7.0216894 h 18.3649 v 7.0216894"
       style="fill:#3b5972;fill-opacity:1;fill-rule:nonzero;stroke:none;stroke-width:0.0352778"
       id="path632" />
    <path
       d="m 175.2157,-2.4871013 -7.11165,2.79082522 V -6.2681737 h 6.39163 l 0.72002,3.7810724"
       style="fill:#466480;fill-opacity:1;fill-rule:nonzero;stroke:none;stroke-width:0.0352778"
       id="path634" />
    <path
       d="m 168.82407,-3.0272041 h -20.70559 v 1.3504335 h -9.09228 v 4.9512364 h 20.70538 V 1.9240324 h 9.09249 v -4.9512365"
       style="fill:#466480;fill-opacity:1;fill-rule:nonzero;stroke:none;stroke-width:0.0352778"
       id="path636" />
    <path
       d="M 175.2157,4.5345881 H 156.22073 V -2.4871013 H 175.2157 V 4.5345881"
       style="fill:#254254;fill-opacity:1;fill-rule:nonzero;stroke:none;stroke-width:0.0352778"
       id="path638" />
    <path
       d="m 151.17954,3.5443408 -0.0903,-3.87103081 h -3.92325 L 146.31826,-1.1366678 H 125.61249 V 2.734363 h 4.77132 v 0.8099778 h 20.79573"
       style="fill:#254254;fill-opacity:1;fill-rule:nonzero;stroke:none;stroke-width:0.0352778"
       id="path640" />
    <path
       d="m 141.41923,-6.636121 h -1.53881 v -0.4102805 h 1.53881 v 0.4102805"
       style="fill:#254254;fill-opacity:1;fill-rule:nonzero;stroke:none;stroke-width:0.0352778"
       id="path642" />
    <path
       d="m 143.16301,-6.636121 h -1.53881 v -0.4102805 h 1.53881 v 0.4102805"
       style="fill:#254254;fill-opacity:1;fill-rule:nonzero;stroke:none;stroke-width:0.0352778"
       id="path644" />
    <path
       d="m 144.90679,-6.636121 h -1.53881 v -0.4102805 h 1.53881 v 0.4102805"
       style="fill:#254254;fill-opacity:1;fill-rule:nonzero;stroke:none;stroke-width:0.0352778"
       id="path646" />
    <path
       d="m 141.4531,-7.6154321 h -1.53846 v -0.1612195 h 1.53846 v 0.1612195"
       style="fill:#254254;fill-opacity:1;fill-rule:nonzero;stroke:none;stroke-width:0.0352778"
       id="path648" />
    <path
       d="m 143.19723,-7.6154321 h -1.53881 v -0.1612195 h 1.53881 v 0.1612195"
       style="fill:#254254;fill-opacity:1;fill-rule:nonzero;stroke:none;stroke-width:0.0352778"
       id="path650" />
    <path
       d="m 144.94101,-7.6154321 h -1.53881 v -0.1612195 h 1.53881 v 0.1612195"
       style="fill:#254254;fill-opacity:1;fill-rule:nonzero;stroke:none;stroke-width:0.0352778"
       id="path652" />
    <path
       d="m 144.12363,-6.2642932 v -2.0806834 h -0.78705 v 2.0806834 h 0.78705"
       style="fill:#3b5972;fill-opacity:1;fill-rule:nonzero;stroke:none;stroke-width:0.0352778"
       id="path654" />
    <path
       d="m 145.24617,-6.2642932 v -2.0806834 h -0.91405 v 2.0806834 h 0.91405"
       style="fill:#3b5972;fill-opacity:1;fill-rule:nonzero;stroke:none;stroke-width:0.0352778"
       id="path656" />
    <path
       d="m 146.40822,-6.2642932 v -2.0806834 h -0.9137 v 2.0806834 h 0.9137"
       style="fill:#3b5972;fill-opacity:1;fill-rule:nonzero;stroke:none;stroke-width:0.0352778"
       id="path658" />
    <path
       d="m 142.6917,-1.5240179 c 0,0.1414639 -0.0568,0.2564695 -0.127,0.2564695 h -0.60854 c -0.0699,0 -0.12665,-0.1150056 -0.12665,-0.2564695 0,-0.1418166 0.0568,-0.2564694 0.12665,-0.2564694 h 0.60854 c 0.0702,0 0.127,0.1146528 0.127,0.2564694"
       style="fill:#254254;fill-opacity:1;fill-rule:nonzero;stroke:none;stroke-width:0.0352778"
       id="path660" />
    <path
       d="m 143.60434,-1.5240179 c 0,0.1414639 -0.0568,0.2564695 -0.12665,0.2564695 h -0.60854 c -0.0702,0 -0.127,-0.1150056 -0.127,-0.2564695 0,-0.1418166 0.0568,-0.2564694 0.127,-0.2564694 h 0.60854 c 0.0699,0 0.12665,0.1146528 0.12665,0.2564694"
       style="fill:#254254;fill-opacity:1;fill-rule:nonzero;stroke:none;stroke-width:0.0352778"
       id="path662" />
    <path
       d="m 144.51733,-1.5240179 c 0,0.1414639 -0.0568,0.2564695 -0.12665,0.2564695 h -0.60889 c -0.0699,0 -0.12665,-0.1150056 -0.12665,-0.2564695 0,-0.1418166 0.0568,-0.2564694 0.12665,-0.2564694 h 0.60889 c 0.0699,0 0.12665,0.1146528 0.12665,0.2564694"
       style="fill:#254254;fill-opacity:1;fill-rule:nonzero;stroke:none;stroke-width:0.0352778"
       id="path664" />
    <path
       d="m 145.43032,-1.5240179 c 0,0.1414639 -0.0568,0.2564695 -0.127,0.2564695 h -0.60855 c -0.0699,0 -0.12664,-0.1150056 -0.12664,-0.2564695 0,-0.1418166 0.0568,-0.2564694 0.12664,-0.2564694 h 0.60855 c 0.0702,0 0.127,0.1146528 0.127,0.2564694"
       style="fill:#254254;fill-opacity:1;fill-rule:nonzero;stroke:none;stroke-width:0.0352778"
       id="path666" />
    <path
       d="m 146.34295,-1.5240179 c 0,0.1414639 -0.0568,0.2564695 -0.12664,0.2564695 h -0.60855 c -0.0702,0 -0.127,-0.1150056 -0.127,-0.2564695 0,-0.1418166 0.0568,-0.2564694 0.127,-0.2564694 h 0.60855 c 0.0699,0 0.12664,0.1146528 0.12664,0.2564694"
       style="fill:#254254;fill-opacity:1;fill-rule:nonzero;stroke:none;stroke-width:0.0352778"
       id="path668" />
    <path
       d="m 142.6917,-2.1053957 c 0,0.1414639 -0.0568,0.2564695 -0.127,0.2564695 h -0.60854 c -0.0699,0 -0.12665,-0.1150056 -0.12665,-0.2564695 0,-0.1418167 0.0568,-0.2564694 0.12665,-0.2564694 h 0.60854 c 0.0702,0 0.127,0.1146527 0.127,0.2564694"
       style="fill:#254254;fill-opacity:1;fill-rule:nonzero;stroke:none;stroke-width:0.0352778"
       id="path670" />
    <path
       d="m 143.60434,-2.1053957 c 0,0.1414639 -0.0568,0.2564695 -0.12665,0.2564695 h -0.60854 c -0.0702,0 -0.127,-0.1150056 -0.127,-0.2564695 0,-0.1418167 0.0568,-0.2564694 0.127,-0.2564694 h 0.60854 c 0.0699,0 0.12665,0.1146527 0.12665,0.2564694"
       style="fill:#254254;fill-opacity:1;fill-rule:nonzero;stroke:none;stroke-width:0.0352778"
       id="path672" />
    <path
       d="m 144.51733,-2.1053957 c 0,0.1414639 -0.0568,0.2564695 -0.12665,0.2564695 h -0.60889 c -0.0699,0 -0.12665,-0.1150056 -0.12665,-0.2564695 0,-0.1418167 0.0568,-0.2564694 0.12665,-0.2564694 h 0.60889 c 0.0699,0 0.12665,0.1146527 0.12665,0.2564694"
       style="fill:#254254;fill-opacity:1;fill-rule:nonzero;stroke:none;stroke-width:0.0352778"
       id="path674" />
    <path
       d="m 145.43032,-2.1053957 c 0,0.1414639 -0.0568,0.2564695 -0.127,0.2564695 h -0.60855 c -0.0699,0 -0.12664,-0.1150056 -0.12664,-0.2564695 0,-0.1418167 0.0568,-0.2564694 0.12664,-0.2564694 h 0.60855 c 0.0702,0 0.127,0.1146527 0.127,0.2564694"
       style="fill:#254254;fill-opacity:1;fill-rule:nonzero;stroke:none;stroke-width:0.0352778"
       id="path676" />
    <path
       d="m 146.34295,-2.1053957 c 0,0.1414639 -0.0568,0.2564695 -0.12664,0.2564695 h -0.60855 c -0.0702,0 -0.127,-0.1150056 -0.127,-0.2564695 0,-0.1418167 0.0568,-0.2564694 0.127,-0.2564694 h 0.60855 c 0.0699,0 0.12664,0.1146527 0.12664,0.2564694"
       style="fill:#254254;fill-opacity:1;fill-rule:nonzero;stroke:none;stroke-width:0.0352778"
       id="path678" />
    <path
       d="m 147.07391,-1.9367679 c 0.0582,0.50165 0.31362,0.8794751 0.61983,0.8794751 h 4.24004 c 0.30621,0 0.56162,-0.3778251 0.61983,-0.8794751 h -5.4797"
       style="fill:#254254;fill-opacity:1;fill-rule:nonzero;stroke:none;stroke-width:0.0352778"
       id="path680" />
    <path
       d="m 134.51188,0.06595168 h -0.5129 v -0.9232195 h 0.5129 v 0.9232195"
       style="fill:#3b5972;fill-opacity:1;fill-rule:nonzero;stroke:none;stroke-width:0.0352778"
       id="path682" />
    <path
       d="m 135.38377,0.06595168 h -0.5129 v -0.9232195 h 0.5129 v 0.9232195"
       style="fill:#3b5972;fill-opacity:1;fill-rule:nonzero;stroke:none;stroke-width:0.0352778"
       id="path684" />
    <path
       d="m 136.2558,0.06595168 h -0.5129 v -0.9232195 h 0.5129 v 0.9232195"
       style="fill:#3b5972;fill-opacity:1;fill-rule:nonzero;stroke:none;stroke-width:0.0352778"
       id="path686" />
    <path
       d="m 137.12769,0.06595168 h -0.51294 v -0.9232195 h 0.51294 v 0.9232195"
       style="fill:#3b5972;fill-opacity:1;fill-rule:nonzero;stroke:none;stroke-width:0.0352778"
       id="path688" />
    <path
       d="m 137.99969,0.06595168 h -0.51305 v -0.9232195 h 0.51305 v 0.9232195"
       style="fill:#3b5972;fill-opacity:1;fill-rule:nonzero;stroke:none;stroke-width:0.0352778"
       id="path690" />
    <path
       d="m 138.87158,0.06595168 h -0.51291 v -0.9232195 h 0.51291 v 0.9232195"
       style="fill:#3b5972;fill-opacity:1;fill-rule:nonzero;stroke:none;stroke-width:0.0352778"
       id="path692" />
    <path
       d="m 139.74354,0.06595168 h -0.51283 v -0.9232195 h 0.51283 v 0.9232195"
       style="fill:#3b5972;fill-opacity:1;fill-rule:nonzero;stroke:none;stroke-width:0.0352778"
       id="path694" />
    <path
       d="m 140.61561,0.06595168 h -0.51294 v -0.9232195 h 0.51294 v 0.9232195"
       style="fill:#3b5972;fill-opacity:1;fill-rule:nonzero;stroke:none;stroke-width:0.0352778"
       id="path696" />
    <path
       d="m 141.48732,0.06595168 h -0.51294 v -0.9232195 h 0.51294 v 0.9232195"
       style="fill:#3b5972;fill-opacity:1;fill-rule:nonzero;stroke:none;stroke-width:0.0352778"
       id="path698" />
    <path
       d="m 142.35939,0.06595168 h -0.51294 v -0.9232195 h 0.51294 v 0.9232195"
       style="fill:#3b5972;fill-opacity:1;fill-rule:nonzero;stroke:none;stroke-width:0.0352778"
       id="path700" />
    <path
       d="m 143.23145,0.06595168 h -0.51294 v -0.9232195 h 0.51294 v 0.9232195"
       style="fill:#3b5972;fill-opacity:1;fill-rule:nonzero;stroke:none;stroke-width:0.0352778"
       id="path702" />
    <path
       d="m 144.10317,0.06595168 h -0.51294 v -0.9232195 h 0.51294 v 0.9232195"
       style="fill:#3b5972;fill-opacity:1;fill-rule:nonzero;stroke:none;stroke-width:0.0352778"
       id="path704" />
    <path
       d="m 144.97523,0.06595168 h -0.51294 v -0.9232195 h 0.51294 v 0.9232195"
       style="fill:#3b5972;fill-opacity:1;fill-rule:nonzero;stroke:none;stroke-width:0.0352778"
       id="path706" />
    <path
       d="m 145.8473,0.06595168 h -0.51294 v -0.9232195 h 0.51294 v 0.9232195"
       style="fill:#3b5972;fill-opacity:1;fill-rule:nonzero;stroke:none;stroke-width:0.0352778"
       id="path708" />
    <path
       d="m 142.76967,-4.0887125 h -4.46225 v -0.2564694 h 4.46225 v 0.2564694"
       style="fill:#254254;fill-opacity:1;fill-rule:nonzero;stroke:none;stroke-width:0.0352778"
       id="path710" />
    <path
       d="m 141.28236,-2.652554 h -0.92322 v -1.0258779 h 0.92322 v 1.0258779"
       style="fill:#254254;fill-opacity:1;fill-rule:nonzero;stroke:none;stroke-width:0.0352778"
       id="path712" />
    <path
       d="m 139.89735,-1.2163956 h -0.25647 v -1.5899696 h 0.25647 v 1.5899696"
       style="fill:#254254;fill-opacity:1;fill-rule:nonzero;stroke:none;stroke-width:0.0352778"
       id="path714" />
    <path
       d="m 140.51295,-5.011932 h -0.46179 v -1.2308417 h 0.46179 v 1.2308417"
       style="fill:#254254;fill-opacity:1;fill-rule:nonzero;stroke:none;stroke-width:0.0352778"
       id="path716" />
    <path
       d="m 141.1797,-5.011932 h -0.46144 v -1.2308417 h 0.46144 v 1.2308417"
       style="fill:#254254;fill-opacity:1;fill-rule:nonzero;stroke:none;stroke-width:0.0352778"
       id="path718" />
    <path
       d="m 141.84645,-5.011932 h -0.46144 v -1.2308417 h 0.46144 v 1.2308417"
       style="fill:#254254;fill-opacity:1;fill-rule:nonzero;stroke:none;stroke-width:0.0352778"
       id="path720" />
    <path
       d="m 142.5132,-5.011932 h -0.46144 v -1.2308417 h 0.46144 v 1.2308417"
       style="fill:#254254;fill-opacity:1;fill-rule:nonzero;stroke:none;stroke-width:0.0352778"
       id="path722" />
    <path
       d="m 143.59023,-4.9092736 h -0.46144 v -0.7182556 h 0.46144 v 0.7182556"
       style="fill:#254254;fill-opacity:1;fill-rule:nonzero;stroke:none;stroke-width:0.0352778"
       id="path724" />
    <path
       d="m 144.35964,-4.9092736 h -0.46144 v -0.7182556 h 0.46144 v 0.7182556"
       style="fill:#254254;fill-opacity:1;fill-rule:nonzero;stroke:none;stroke-width:0.0352778"
       id="path726" />
    <path
       d="m 145.12904,-4.9092736 h -0.46143 v -0.7182556 h 0.46143 v 0.7182556"
       style="fill:#254254;fill-opacity:1;fill-rule:nonzero;stroke:none;stroke-width:0.0352778"
       id="path728" />
    <path
       d="m 135.25561,-1.8062401 h -9.61719 v 0.66675 h 0.077 v -0.5898444 h 0.88474 v 0.5898444 h 0.0769 v -0.5898444 h 0.88483 v 0.5898444 h 0.0769 v -0.5898444 h 0.88484 v 0.5898444 h 0.0769 v -0.5898444 h 0.0899 v 0.5640917 h 0.23069 v -0.5640917 h 0.5643 v 0.5898444 h 0.0769 v -0.5898444 h 0.88473 v 0.5898444 h 0.077 v -0.5898444 h 0.24363 v 0.5640917 h 0.23082 v -0.5640917 h 0.41025 v 0.5898444 h 0.077 v -0.5898444 h 0.88469 v 0.5898444 h 0.0769 v -0.5898444 h 0.88483 v 0.5898444 h 0.0769 v -0.5898444 h 0.88484 v 0.5898444 h 0.0769 v -0.5898444 h 0.88484 v 0.5898444 h 0.0769 v -0.66675 h -0.0769"
       style="fill:#3b5972;fill-opacity:1;fill-rule:nonzero;stroke:none;stroke-width:0.0352778"
       id="path730" />
    <path
       d="m 143.08928,-4.713482 h -0.49706 v -1.0279945 h 0.49706 v 1.0279945"
       style="fill:#466480;fill-opacity:1;fill-rule:nonzero;stroke:none;stroke-width:0.0352778"
       id="path732" />
    <path
       d="m 144.1515,-4.713482 h -0.49671 v -1.0279945 h 0.49671 v 1.0279945"
       style="fill:#466480;fill-opacity:1;fill-rule:nonzero;stroke:none;stroke-width:0.0352778"
       id="path734" />
    <path
       d="M 145.21371,-4.713482 H 144.717 v -1.0279945 h 0.49671 v 1.0279945"
       style="fill:#466480;fill-opacity:1;fill-rule:nonzero;stroke:none;stroke-width:0.0352778"
       id="path736" />
    <path
       d="m 146.27592,-4.713482 h -0.49671 v -1.0279945 h 0.49671 v 1.0279945"
       style="fill:#466480;fill-opacity:1;fill-rule:nonzero;stroke:none;stroke-width:0.0352778"
       id="path738" />
    <path
       d="m 147.65387,-6.6548182 h -0.41345 v -0.5214056 h 0.41345 v 0.5214056"
       style="fill:#254254;fill-opacity:1;fill-rule:nonzero;stroke:none;stroke-width:0.0352778"
       id="path740" />
    <path
       d="m 146.99206,-6.6548182 h -0.41345 v -0.5214056 h 0.41345 v 0.5214056"
       style="fill:#254254;fill-opacity:1;fill-rule:nonzero;stroke:none;stroke-width:0.0352778"
       id="path742" />
    <path
       d="m 157.72956,-3.0459013 h -0.61524 v -4.4450003 h 0.61524 v 4.4450003"
       style="fill:#466480;fill-opacity:1;fill-rule:nonzero;stroke:none;stroke-width:0.0352778"
       id="path744" />
    <path
       d="m 158.07176,-4.3451819 h -1.36808 v -1.0600973 h 1.36808 v 1.0600973"
       style="fill:#466480;fill-opacity:1;fill-rule:nonzero;stroke:none;stroke-width:0.0352778"
       id="path746" />
    <path
       d="m 158.37938,-3.8664625 h -2.01754 v -0.7521222 h 2.01754 v 0.7521222"
       style="fill:#254254;fill-opacity:1;fill-rule:nonzero;stroke:none;stroke-width:0.0352778"
       id="path748" />
    <path
       d="m 158.687,-3.0713013 h -2.56434 v -0.9405056 h 2.56434 v 0.9405056"
       style="fill:#466480;fill-opacity:1;fill-rule:nonzero;stroke:none;stroke-width:0.0352778"
       id="path750" />
    <path
       d="m 165.16506,0.39015448 h -0.13123 V -2.7629735 h 0.13123 v 3.15312798"
       style="fill:#466480;fill-opacity:1;fill-rule:nonzero;stroke:none;stroke-width:0.0352778"
       id="path752" />
    <path
       d="m 166.11756,0.39015448 h -0.13123 V -2.7629735 h 0.13123 v 3.15312798"
       style="fill:#466480;fill-opacity:1;fill-rule:nonzero;stroke:none;stroke-width:0.0352778"
       id="path754" />
    <path
       d="m 154.35948,0.32453781 h -0.16405 V -2.9929846 h 0.16405 v 3.31752241"
       style="fill:#254254;fill-opacity:1;fill-rule:nonzero;stroke:none;stroke-width:0.0352778"
       id="path756" />
    <path
       d="m 155.39417,0.32453781 h -0.16439 V -2.9929846 h 0.16439 v 3.31752241"
       style="fill:#254254;fill-opacity:1;fill-rule:nonzero;stroke:none;stroke-width:0.0352778"
       id="path758" />
    <path
       d="m 168.12098,-5.0292181 h -9.78746 v -0.1640417 h 9.78746 v 0.1640417"
       style="fill:#466480;fill-opacity:1;fill-rule:nonzero;stroke:none;stroke-width:0.0352778"
       id="path760" />
    <path
       d="m 158.82635,-4.5653153 h -0.0984 v -0.6311195 h 0.0984 v 0.6311195"
       style="fill:#466480;fill-opacity:1;fill-rule:nonzero;stroke:none;stroke-width:0.0352778"
       id="path762" />
    <path
       d="m 159.97605,-4.5653153 h -0.0988 v -0.6311195 h 0.0988 v 0.6311195"
       style="fill:#466480;fill-opacity:1;fill-rule:nonzero;stroke:none;stroke-width:0.0352778"
       id="path764" />
    <path
       d="m 161.1254,-4.5653153 h -0.0984 v -0.6311195 h 0.0984 v 0.6311195"
       style="fill:#466480;fill-opacity:1;fill-rule:nonzero;stroke:none;stroke-width:0.0352778"
       id="path766" />
    <path
       d="m 162.2751,-4.5653153 h -0.0984 v -0.6311195 h 0.0984 v 0.6311195"
       style="fill:#466480;fill-opacity:1;fill-rule:nonzero;stroke:none;stroke-width:0.0352778"
       id="path768" />
    <path
       d="m 163.42481,-4.5653153 h -0.0984 v -0.6311195 h 0.0984 v 0.6311195"
       style="fill:#466480;fill-opacity:1;fill-rule:nonzero;stroke:none;stroke-width:0.0352778"
       id="path770" />
    <path
       d="m 164.57451,-4.5653153 h -0.0988 v -0.6311195 h 0.0988 v 0.6311195"
       style="fill:#466480;fill-opacity:1;fill-rule:nonzero;stroke:none;stroke-width:0.0352778"
       id="path772" />
    <path
       d="m 165.72386,-4.5653153 h -0.0984 v -0.6311195 h 0.0984 v 0.6311195"
       style="fill:#466480;fill-opacity:1;fill-rule:nonzero;stroke:none;stroke-width:0.0352778"
       id="path774" />
    <path
       d="m 166.87356,-4.5653153 h -0.0984 v -0.6311195 h 0.0984 v 0.6311195"
       style="fill:#466480;fill-opacity:1;fill-rule:nonzero;stroke:none;stroke-width:0.0352778"
       id="path776" />
    <path
       d="M 156.05422,0.33688503 V 0.20529892 h 19.13326 v 0.13158611 h -19.13326"
       style="fill:#466480;fill-opacity:1;fill-rule:nonzero;stroke:none;stroke-width:0.0352778"
       id="path778" />
    <path
       d="m 186.71273,-0.83680671 h 6.23358 v -0.0924278 h -6.23358 v 0.0924278"
       style="fill:#254254;fill-opacity:1;fill-rule:nonzero;stroke:none;stroke-width:0.0352778"
       id="path780" />
    <path
       d="m 187.63983,-0.68229003 h 1.39065 V -1.1147956 h -1.39065 v 0.43250557"
       style="fill:#3b5972;fill-opacity:1;fill-rule:nonzero;stroke:none;stroke-width:0.0352778"
       id="path782" />
    <path
       d="m 188.3034,0.24481003 h -1.50389 c -0.32173,-0.16157223 -0.58314,-0.4656667 -0.65864,-0.81879728 -0.11077,-0.52034725 0.2212,-0.94262225 0.7419,-0.94262225 h 0.96978 c 0.52035,0 0.64982,0.422275 0.76059,0.94262225 0.0751,0.35313058 -0.0564,0.65722505 -0.30974,0.81879728"
       style="fill:#466480;fill-opacity:1;fill-rule:nonzero;stroke:none;stroke-width:0.0352778"
       id="path784" />
    <path
       d="M 153.38687,4.7847075 H 115.02119 V -0.139365 h 38.36568 v 4.9240725"
       style="fill:#466480;fill-opacity:1;fill-rule:nonzero;stroke:none;stroke-width:0.0352778"
       id="path786" />
    <path
       d="m 187.57104,-0.45757057 -0.74225,0.8311445 h -67.81818 c -0.40957,0.97225557 -2.37603,1.70991397 -4.74169,1.70991397 h -8.2794 l 0.31213,2.3935974 h 93.96551 l 5.12903,-5.7446337 -17.82515,0.80997783"
       style="fill:#29516a;fill-opacity:1;fill-rule:nonzero;stroke:none;stroke-width:0.0352778"
       id="path788" />
    <path
       d="m 113.4593,6.3207021 c 2.91292,0.2106083 6.36739,0.4737806 9.74206,0.7348361 h -9.74206 z m 86.78316,-1.9660307 h -93.98505 l 0.09,1.5303501 c 0.0736,0 0.16881,0.00212 0.27368,0.00494 l 0.53661,2.6059696 h 1.62028 l 0.50712,-2.4634474 c 0.91585,0.058914 1.99376,0.1326445 3.18396,0.2173111 v 0.8057445 h -1.26033 v 0.4501445 h 17.16553 c 3.50033,0.4035778 4.17022,0.8099778 4.17022,0.8099778 0,0 34.78276,0 56.53504,0 1.86726,0 4.28555,1.6206613 6.93173,1.6206613 3.60116,0 3.9624,0.091722 3.06106,-1.5307029 -0.90029,-1.6203085 1.17016,-4.0509475 1.17016,-4.0509475"
       style="fill:#e4355c;fill-opacity:1;fill-rule:nonzero;stroke:none;stroke-width:0.0352778"
       id="path790" />
    <path
       d="M 119.49251,-0.14112888 V -1.0795178 h -1.84658 v 0.93838892 h 1.84658"
       style="fill:#254254;fill-opacity:1;fill-rule:nonzero;stroke:none;stroke-width:0.0352778"
       id="path792" />
    <path
       d="m 119.1586,-1.3723234 v -0.5792612 h -1.17877 v 0.5792612 h 1.17877"
       style="fill:#254254;fill-opacity:1;fill-rule:nonzero;stroke:none;stroke-width:0.0352778"
       id="path794" />
    <path
       d="M 119.79127,-0.68652336 V -1.1137373 h -2.39282 v 0.42721394 h 2.39282"
       style="fill:#3b5972;fill-opacity:1;fill-rule:nonzero;stroke:none;stroke-width:0.0352778"
       id="path796" />
    <path
       d="M 107.76871,2.1078296 H 106.5377 V 0.36369615 h 1.23101 V 2.1078296"
       style="fill:#466480;fill-opacity:1;fill-rule:nonzero;stroke:none;stroke-width:0.0352778"
       id="path798" />
    <path
       d="m 109.83906,2.1078296 h -1.23084 V 0.36369615 h 1.23084 V 2.1078296"
       style="fill:#466480;fill-opacity:1;fill-rule:nonzero;stroke:none;stroke-width:0.0352778"
       id="path800" />
    <path
       d="M 107.76871,0.88510174 H 106.5377 V 0.53585171 h 1.23101 v 0.34925003"
       style="fill:#254254;fill-opacity:1;fill-rule:nonzero;stroke:none;stroke-width:0.0352778"
       id="path802" />
    <path
       d="m 113.58969,0.99940174 h -3.52284 v -0.0927806 h 3.52284 v 0.0927806"
       style="fill:#254254;fill-opacity:1;fill-rule:nonzero;stroke:none;stroke-width:0.0352778"
       id="path804" />
    <path
       d="m 112.66255,1.1539184 h -1.39058 V 0.72106006 h 1.39058 V 1.1539184"
       style="fill:#3b5972;fill-opacity:1;fill-rule:nonzero;stroke:none;stroke-width:0.0352778"
       id="path806" />
    <path
       d="m 111.99873,2.0806657 h 1.504 c 0.32191,-0.1612195 0.58331,-0.4653139 0.65856,-0.8187973 0.11092,-0.52034723 -0.22119,-0.94226948 -0.74168,-0.94226948 h -0.96971 c -0.52063,0 -0.64975,0.42192225 -0.76066,0.94226948 -0.0754,0.3534834 0.0563,0.6575778 0.30949,0.8187973"
       style="fill:#466480;fill-opacity:1;fill-rule:nonzero;stroke:none;stroke-width:0.0352778"
       id="path808" />
    <path
       d="m 109.83906,0.88510174 h -1.23084 V 0.53585171 h 1.23084 v 0.34925003"
       style="fill:#254254;fill-opacity:1;fill-rule:nonzero;stroke:none;stroke-width:0.0352778"
       id="path810" />
    <path
       d="m 117.38053,1.707074 h -11.3866 V 1.3994518 h 11.3866 V 1.707074"
       style="fill:#254254;fill-opacity:1;fill-rule:nonzero;stroke:none;stroke-width:0.0352778"
       id="path812" />
    <path
       d="m 119.8825,-0.95181227 c -1.17976,0 -2.45029,0 -3.47102,0 -0.72139,0 0.0846,-0.76446953 1.67214,-0.76446953 1.43742,0 1.86252,0.046567 2.43469,0.046567 0.17957,0 0.44373,0.71790283 -0.63581,0.71790283"
       style="fill:#466480;fill-opacity:1;fill-rule:nonzero;stroke:none;stroke-width:0.0352778"
       id="path814" />
    <path
       d="m 166.62027,-5.8839987 h -0.30798 v -6.4625363 h 0.30798 v 6.4625363"
       style="fill:#254254;fill-opacity:1;fill-rule:nonzero;stroke:none;stroke-width:0.0352778"
       id="path816" />
    <path
       d="m 168.26139,-10.477518 h -2.35938 v -0.788812 h 2.35938 v 0.788812"
       style="fill:#466480;fill-opacity:1;fill-rule:nonzero;stroke:none;stroke-width:0.0352778"
       id="path818" />
    <path
       d="m 165.90201,-10.579471 v 0.101953 h 2.35938 v -0.101953 h -2.35938"
       style="fill:#254254;fill-opacity:1;fill-rule:nonzero;stroke:none;stroke-width:0.0352778"
       id="path820" />
    <path
       d="m 166.46646,-9.5539461 v 0.1019527 l 1.79493,-1.0255246 v -0.101953 l -1.79493,1.0255249"
       style="fill:#254254;fill-opacity:1;fill-rule:nonzero;stroke:none;stroke-width:0.0352778"
       id="path822" />
    <path
       d="m 169.23612,-8.8586211 h -3.38526 v -0.5644445 h 3.38526 v 0.5644445"
       style="fill:#466480;fill-opacity:1;fill-rule:nonzero;stroke:none;stroke-width:0.0352778"
       id="path824" />
    <path
       d="m 169.23612,-8.8547405 h -3.38526 v -0.1107723 h 3.38526 v 0.1107723"
       style="fill:#254254;fill-opacity:1;fill-rule:nonzero;stroke:none;stroke-width:0.0352778"
       id="path826" />
    <path
       d="m 168.92673,-6.2427737 h -0.20532 l -0.61559,-2.667353 h 0.20531 l 0.6156,2.667353"
       style="fill:#254254;fill-opacity:1;fill-rule:nonzero;stroke:none;stroke-width:0.0352778"
       id="path828" />
    <path
       d="m 168.51786,-7.5766266 h -2.0514 v -0.1023055 h 2.0514 v 0.1023055"
       style="fill:#254254;fill-opacity:1;fill-rule:nonzero;stroke:none;stroke-width:0.0352778"
       id="path830" />
    <path
       d="m 168.67167,-7.525121 -2.20521,-1.2823473 v -0.1026584 l 2.20521,1.2823473 v 0.1026584"
       style="fill:#254254;fill-opacity:1;fill-rule:nonzero;stroke:none;stroke-width:0.0352778"
       id="path832" />
    <path
       d="m 168.80008,-6.2685265 -2.20556,-1.2823473 v -0.1026583 l 2.20556,1.2823473 v 0.1026583"
       style="fill:#254254;fill-opacity:1;fill-rule:nonzero;stroke:none;stroke-width:0.0352778"
       id="path834" />
    <path
       d="m 168.6886,-7.6535321 -2.20556,1.2823473 v 0.1026583 l 2.20556,-1.2823473 v -0.1026583"
       style="fill:#254254;fill-opacity:1;fill-rule:nonzero;stroke:none;stroke-width:0.0352778"
       id="path836" />
    <path
       d="m 168.26139,-8.9101267 -1.79493,1.2823473 v 0.1026584 l 1.79493,-1.2823473 v -0.1026584"
       style="fill:#254254;fill-opacity:1;fill-rule:nonzero;stroke:none;stroke-width:0.0352778"
       id="path838" />
    <path
       d="m 169.95896,-6.6749265 -0.0988,-0.1181806 4.00967,-3.3602089 0.0988,0.117828 -4.00967,3.3605615"
       style="fill:#254254;fill-opacity:1;fill-rule:nonzero;stroke:none;stroke-width:0.0352778"
       id="path840" />
    <path
       d="m 172.62137,-3.2166457 h -1.84679 v -2.4108835 h 1.84679 v 2.4108835"
       style="fill:#3b5972;fill-opacity:1;fill-rule:nonzero;stroke:none;stroke-width:0.0352778"
       id="path842" />
    <path
       d="m 153.70578,-18.638327 h 0.18309 v 15.5754924 h -0.18309 V -18.638327"
       style="fill:#254254;fill-opacity:1;fill-rule:nonzero;stroke:none;stroke-width:0.0352778"
       id="path844" />
    <path
       d="m 151.50021,-14.24448 h 0.18309 l -1.07703,11.1816454 h -0.18309 l 1.07703,-11.1816454"
       style="fill:#254254;fill-opacity:1;fill-rule:nonzero;stroke:none;stroke-width:0.0352778"
       id="path846" />
    <path
       d="m 155.78046,-14.074088 h -4.82106 v -0.172861 h 4.82106 v 0.172861"
       style="fill:#254254;fill-opacity:1;fill-rule:nonzero;stroke:none;stroke-width:0.0352778"
       id="path848" />
    <path
       d="m 155.60972,-15.450627 h -2.66735 v -0.588433 h 2.66735 v 0.588433"
       style="fill:#254254;fill-opacity:1;fill-rule:nonzero;stroke:none;stroke-width:0.0352778"
       id="path850" />
    <path
       d="m 153.86735,-12.541269 h -2.42041 v -0.172861 h 2.42041 v 0.172861"
       style="fill:#254254;fill-opacity:1;fill-rule:nonzero;stroke:none;stroke-width:0.0352778"
       id="path852" />
    <path
       d="m 153.86735,-11.031027 h -6.12246 v -0.172861 h 6.12246 v 0.172861"
       style="fill:#254254;fill-opacity:1;fill-rule:nonzero;stroke:none;stroke-width:0.0352778"
       id="path854" />
    <path
       d="m 153.86735,-9.4904461 h -4.48098 l -0.061,-0.1728612 h 4.54201 v 0.1728612"
       style="fill:#254254;fill-opacity:1;fill-rule:nonzero;stroke:none;stroke-width:0.0352778"
       id="path856" />
    <path
       d="m 153.86735,-7.7805321 h -3.81847 V -7.953746 h 3.81847 v 0.1732139"
       style="fill:#254254;fill-opacity:1;fill-rule:nonzero;stroke:none;stroke-width:0.0352778"
       id="path858" />
    <path
       d="m 153.86735,-5.9524376 h -3.11326 v -0.1728611 h 3.11326 v 0.1728611"
       style="fill:#254254;fill-opacity:1;fill-rule:nonzero;stroke:none;stroke-width:0.0352778"
       id="path860" />
    <path
       d="m 153.86735,-4.3430653 h -3.21592 v -0.1732139 h 3.21592 v 0.1732139"
       style="fill:#254254;fill-opacity:1;fill-rule:nonzero;stroke:none;stroke-width:0.0352778"
       id="path862" />
    <path
       d="m 153.86735,-3.0187374 -3.21592,-1.2057945 V -4.397393 l 3.21592,1.2057945 v 0.1728611"
       style="fill:#254254;fill-opacity:1;fill-rule:nonzero;stroke:none;stroke-width:0.0352778"
       id="path864" />
    <path
       d="m 153.83172,-4.6446903 -2.98873,-1.2057945 v -0.1728611 l 2.98873,1.2057945 v 0.1728611"
       style="fill:#254254;fill-opacity:1;fill-rule:nonzero;stroke:none;stroke-width:0.0352778"
       id="path866" />
    <path
       d="m 153.84724,-7.8179266 -2.68076,-1.6160751 v -0.1728611 l 2.68076,1.6160751 v 0.1728611"
       style="fill:#254254;fill-opacity:1;fill-rule:nonzero;stroke:none;stroke-width:0.0352778"
       id="path868" />
    <path
       d="m 153.80773,-6.0522737 -2.81764,-1.6160751 v -0.1728611 l 2.81764,1.6160751 v 0.1728611"
       style="fill:#254254;fill-opacity:1;fill-rule:nonzero;stroke:none;stroke-width:0.0352778"
       id="path870" />
    <path
       d="m 153.76328,-9.5232545 -2.43875,-1.4111115 v -0.172861 l 2.43875,1.4107586 v 0.1732139"
       style="fill:#254254;fill-opacity:1;fill-rule:nonzero;stroke:none;stroke-width:0.0352778"
       id="path872" />
    <path
       d="m 153.7975,-11.047255 -2.3047,-1.376891 v -0.172861 l 2.3047,1.376891 v 0.172861"
       style="fill:#254254;fill-opacity:1;fill-rule:nonzero;stroke:none;stroke-width:0.0352778"
       id="path874" />
    <path
       d="m 153.89981,-12.604416 -2.28812,-1.376892 v -0.172861 l 2.28812,1.376539 v 0.173214"
       style="fill:#254254;fill-opacity:1;fill-rule:nonzero;stroke:none;stroke-width:0.0352778"
       id="path876" />
    <path
       d="m 151.49527,-12.609002 2.28812,-1.376892 v -0.172861 l -2.28812,1.376539 v 0.173214"
       style="fill:#254254;fill-opacity:1;fill-rule:nonzero;stroke:none;stroke-width:0.0352778"
       id="path878" />
    <path
       d="m 153.84865,-12.59736 1.14406,-1.376892 v -0.172861 l -1.14406,1.376539 v 0.173214"
       style="fill:#254254;fill-opacity:1;fill-rule:nonzero;stroke:none;stroke-width:0.0352778"
       id="path880" />
    <path
       d="m 151.26703,-11.094527 2.48814,-1.376892 v -0.172861 l -2.48814,1.376892 v 0.172861"
       style="fill:#254254;fill-opacity:1;fill-rule:nonzero;stroke:none;stroke-width:0.0352778"
       id="path882" />
    <path
       d="m 151.11709,-9.5200795 2.65924,-1.5134165 v -0.172861 l -2.65924,1.5134164 v 0.1728611"
       style="fill:#254254;fill-opacity:1;fill-rule:nonzero;stroke:none;stroke-width:0.0352778"
       id="path884" />
    <path
       d="m 150.9594,-7.9050627 2.85574,-1.5134168 v -0.1728611 l -2.85574,1.5134168 v 0.1728611"
       style="fill:#254254;fill-opacity:1;fill-rule:nonzero;stroke:none;stroke-width:0.0352778"
       id="path886" />
    <path
       d="m 150.74597,-6.0395737 2.99262,-1.684514 v -0.1728611 l -2.99262,1.684514 v 0.1728611"
       style="fill:#254254;fill-opacity:1;fill-rule:nonzero;stroke:none;stroke-width:0.0352778"
       id="path888" />
    <path
       d="m 150.59146,-4.4079764 3.16335,-1.5137695 V -6.094607 l -3.16335,1.5137695 v 0.1728611"
       style="fill:#254254;fill-opacity:1;fill-rule:nonzero;stroke:none;stroke-width:0.0352778"
       id="path890" />
    <path
       d="m 150.42883,-3.0593068 3.33445,-1.3426724 v -0.1728611 l -3.33445,1.3423196 v 0.1732139"
       style="fill:#254254;fill-opacity:1;fill-rule:nonzero;stroke:none;stroke-width:0.0352778"
       id="path892" />
    <path
       d="m 150.79007,-6.0046487 -2.08633,-4.9604083 0.0328,-0.170745 2.08633,4.9604088 -0.0328,0.1707445"
       style="fill:#254254;fill-opacity:1;fill-rule:nonzero;stroke:none;stroke-width:0.0352778"
       id="path894" />
    <path
       d="m 154.39581,-18.296486 h -1.19697 v -0.175683 h 1.19697 v 0.175683"
       style="fill:#254254;fill-opacity:1;fill-rule:nonzero;stroke:none;stroke-width:0.0352778"
       id="path896" />
    <path
       d="m 154.19049,-18.623511 h -0.85478 v -0.234597 h 0.85478 v 0.234597"
       style="fill:#254254;fill-opacity:1;fill-rule:nonzero;stroke:none;stroke-width:0.0352778"
       id="path898" />
    <path
       d="m 154.00246,-16.791888 h -0.47872 v -0.410281 h 0.47872 v 0.410281"
       style="fill:#254254;fill-opacity:1;fill-rule:nonzero;stroke:none;stroke-width:0.0352778"
       id="path900" />
    <path
       d="m 153.83172,-14.192974 h -0.44485 v -2.017536 h 0.44485 v 2.017536"
       style="fill:#254254;fill-opacity:1;fill-rule:nonzero;stroke:none;stroke-width:0.0352778"
       id="path902" />
    <path
       d="m 150.9594,-14.91123 v 0.786695 h 0.13653 v -0.684036 h 4.47957 v 0.684036 h 0.13688 v -0.786695 h -4.75298"
       style="fill:#254254;fill-opacity:1;fill-rule:nonzero;stroke:none;stroke-width:0.0352778"
       id="path904" />
    <path
       d="m 155.60972,-14.500949 h -4.58223 v -0.06809 h 4.58223 v 0.06809"
       style="fill:#254254;fill-opacity:1;fill-rule:nonzero;stroke:none;stroke-width:0.0352778"
       id="path906" />
    <path
       d="m 154.72072,-14.090316 h -0.0684 v -0.786694 h 0.0684 v 0.786694"
       style="fill:#254254;fill-opacity:1;fill-rule:nonzero;stroke:none;stroke-width:0.0352778"
       id="path908" />
    <path
       d="m 152.32712,-14.090316 h -0.0684 v -0.786694 h 0.0684 v 0.786694"
       style="fill:#254254;fill-opacity:1;fill-rule:nonzero;stroke:none;stroke-width:0.0352778"
       id="path910" />
    <path
       d="m 153.42179,-14.227899 h -0.0684 l -0.30903,-1.264003 h 0.0684 l 0.30903,1.264003"
       style="fill:#254254;fill-opacity:1;fill-rule:nonzero;stroke:none;stroke-width:0.0352778"
       id="path912" />
    <path
       d="m 153.67826,-14.313271 h -0.0684 l 1.50354,-1.332442 h 0.0681 l -1.50319,1.332442"
       style="fill:#254254;fill-opacity:1;fill-rule:nonzero;stroke:none;stroke-width:0.0352778"
       id="path914" />
    <path
       d="m 150.43764,-11.895332 h -2.1283 c -0.41875,0 -0.75918,-0.340431 -0.75918,-0.758825 0,-0.418748 0.34043,-0.759178 0.75918,-0.759178 h 2.1283 c 0.41875,0 0.75918,0.34043 0.75918,0.759178 0,0.418394 -0.34043,0.758825 -0.75918,0.758825 z m 0,-1.579739 h -2.1283 c -0.45332,0 -0.82092,0.367594 -0.82092,0.820914 0,0.452966 0.3676,0.820561 0.82092,0.820561 h 2.1283 c 0.45332,0 0.82092,-0.367595 0.82092,-0.820561 0,-0.45332 -0.3676,-0.820914 -0.82092,-0.820914"
       style="fill:#254254;fill-opacity:1;fill-rule:nonzero;stroke:none;stroke-width:0.0352778"
       id="path916" />
    <path
       d="m 151.18165,-12.859474 h -3.61632 v -0.07691 h 3.61632 v 0.07691"
       style="fill:#254254;fill-opacity:1;fill-rule:nonzero;stroke:none;stroke-width:0.0352778"
       id="path918" />
    <path
       d="m 151.18165,-12.449194 h -3.61632 v -0.07691 h 3.61632 v 0.07691"
       style="fill:#254254;fill-opacity:1;fill-rule:nonzero;stroke:none;stroke-width:0.0352778"
       id="path920" />
    <path
       d="m 151.00209,-12.038913 h -3.2572 v -0.07691 h 3.2572 v 0.07691"
       style="fill:#254254;fill-opacity:1;fill-rule:nonzero;stroke:none;stroke-width:0.0352778"
       id="path922" />
    <path
       d="m 151.00209,-13.167096 h -3.2572 v -0.07691 h 3.2572 v 0.07691"
       style="fill:#254254;fill-opacity:1;fill-rule:nonzero;stroke:none;stroke-width:0.0352778"
       id="path924" />
    <path
       d="m 148.12977,-11.885102 h -0.0258 v -1.538464 h 0.0258 v 1.538464"
       style="fill:#254254;fill-opacity:1;fill-rule:nonzero;stroke:none;stroke-width:0.0352778"
       id="path926" />
    <path
       d="m 148.5016,-11.885102 h -0.0257 v -1.538464 h 0.0257 v 1.538464"
       style="fill:#254254;fill-opacity:1;fill-rule:nonzero;stroke:none;stroke-width:0.0352778"
       id="path928" />
    <path
       d="m 148.87343,-11.885102 h -0.0258 v -1.538464 h 0.0258 v 1.538464"
       style="fill:#254254;fill-opacity:1;fill-rule:nonzero;stroke:none;stroke-width:0.0352778"
       id="path930" />
    <path
       d="m 149.24526,-11.885102 h -0.0258 v -1.538464 h 0.0258 v 1.538464"
       style="fill:#254254;fill-opacity:1;fill-rule:nonzero;stroke:none;stroke-width:0.0352778"
       id="path932" />
    <path
       d="m 149.61708,-11.885102 h -0.0257 v -1.538464 h 0.0257 v 1.538464"
       style="fill:#254254;fill-opacity:1;fill-rule:nonzero;stroke:none;stroke-width:0.0352778"
       id="path934" />
    <path
       d="m 149.98891,-11.885102 h -0.0254 v -1.538464 h 0.0254 v 1.538464"
       style="fill:#254254;fill-opacity:1;fill-rule:nonzero;stroke:none;stroke-width:0.0352778"
       id="path936" />
    <path
       d="m 150.36074,-11.885102 h -0.0257 v -1.538464 h 0.0257 v 1.538464"
       style="fill:#254254;fill-opacity:1;fill-rule:nonzero;stroke:none;stroke-width:0.0352778"
       id="path938" />
    <path
       d="m 150.73257,-11.885102 h -0.0254 v -1.538464 h 0.0254 v 1.538464"
       style="fill:#254254;fill-opacity:1;fill-rule:nonzero;stroke:none;stroke-width:0.0352778"
       id="path940" />
    <path
       d="m 151.10439,-12.26963 h -0.0254 v -0.769408 h 0.0254 v 0.769408"
       style="fill:#254254;fill-opacity:1;fill-rule:nonzero;stroke:none;stroke-width:0.0352778"
       id="path942" />
    <path
       d="m 147.78334,-12.090066 h -0.0254 v -1.128536 h 0.0254 v 1.128536"
       style="fill:#254254;fill-opacity:1;fill-rule:nonzero;stroke:none;stroke-width:0.0352778"
       id="path944" />
    <path
       d="m 149.51443,-11.872049 h -0.20497 v -1.179689 h 0.20497 v 1.179689"
       style="fill:#254254;fill-opacity:1;fill-rule:nonzero;stroke:none;stroke-width:0.0352778"
       id="path946" />
    <path
       d="m 148.82228,-12.231177 v -0.205317 h 1.17968 v 0.205317 h -1.17968"
       style="fill:#254254;fill-opacity:1;fill-rule:nonzero;stroke:none;stroke-width:0.0352778"
       id="path948" />
    <path
       d="m 149.89931,-11.166846 h -0.94898 v -0.384881 h 0.94898 v 0.384881"
       style="fill:#254254;fill-opacity:1;fill-rule:nonzero;stroke:none;stroke-width:0.0352778"
       id="path950" />
    <path
       d="m 149.18105,-11.423316 h -0.12806 v -0.948972 h 0.12806 v 0.948972"
       style="fill:#254254;fill-opacity:1;fill-rule:nonzero;stroke:none;stroke-width:0.0352778"
       id="path952" />
    <path
       d="m 149.79665,-11.423316 h -0.12841 v -0.948972 h 0.12841 v 0.948972"
       style="fill:#254254;fill-opacity:1;fill-rule:nonzero;stroke:none;stroke-width:0.0352778"
       id="path954" />
    <path
       d="m 114.04759,7.5056827 c -0.21636,-0.020461 -0.43078,-0.040217 -0.64174,-0.059972 v 0.059972 h 0.64174"
       style="fill:#f2736d;fill-opacity:1;fill-rule:nonzero;stroke:none;stroke-width:0.0352778"
       id="path956" />
    <path
       d="m 198.84687,7.4104327 c 0.0416,-1.465439 1.39559,-3.0557613 1.39559,-3.0557613 h -93.98505 l 0.0568,0.9648473 92.53268,2.090914"
       style="fill:#f2736d;fill-opacity:1;fill-rule:nonzero;stroke:none;stroke-width:0.0352778"
       id="path958" />
    <path
       d="m 106.05856,2.613713 0.24309,1.8633723 h 93.96551 l 2.5146,-2.8162252 -96.7232,0.9528529"
       style="fill:#254254;fill-opacity:1;fill-rule:nonzero;stroke:none;stroke-width:0.0352778"
       id="path960" />
  </g>
</svg>
