<?xml version="1.0" encoding="UTF-8" standalone="no"?>
<!-- Created with Inkscape (http://www.inkscape.org/) -->

<svg
   width="80.905701mm"
   height="20.01342mm"
   viewBox="0 0 80.905703 20.01342"
   version="1.1"
   id="svg11017"
   inkscape:export-filename="5.svg"
   inkscape:export-xdpi="96"
   inkscape:export-ydpi="96"
   xmlns:inkscape="http://www.inkscape.org/namespaces/inkscape"
   xmlns:sodipodi="http://sodipodi.sourceforge.net/DTD/sodipodi-0.dtd"
   xmlns="http://www.w3.org/2000/svg"
   xmlns:svg="http://www.w3.org/2000/svg">
  <sodipodi:namedview
     id="namedview11019"
     pagecolor="#ffffff"
     bordercolor="#000000"
     borderopacity="0.25"
     inkscape:showpageshadow="2"
     inkscape:pageopacity="0.0"
     inkscape:pagecheckerboard="0"
     inkscape:deskcolor="#d1d1d1"
     inkscape:document-units="mm"
     showgrid="false" />
  <defs
     id="defs11014" />
  <g
     inkscape:label="Layer 1"
     inkscape:groupmode="layer"
     id="layer1"
     transform="translate(-54.225784,24.780967)">
    <path
       d="m 65.7976,-12.906855 c 0,0.144286 -0.154164,0.270651 -0.343958,0.270651 h -1.979084 c -0.190147,0 -0.252588,-0.126365 -0.147813,-0.270651 l 0.608541,-0.838799 c 0.05539,-0.0762 0.199672,-0.134797 0.325261,-0.134797 h 1.309512 c 0.125588,0 0.227541,0.0586 0.227541,0.134797 v 0.838799"
       style="fill:#4f6d8c;fill-opacity:1;fill-rule:nonzero;stroke:none;stroke-width:0.0352778"
       id="path962" />
    <path
       d="m 60.076955,-10.94534 h -5.386211 v -0.971267 h 5.386211 v 0.971267"
       style="fill:#4f6d8c;fill-opacity:1;fill-rule:nonzero;stroke:none;stroke-width:0.0352778"
       id="path964" />
    <path
       d="m 86.566335,-22.55882 h -1.147939 v -0.922514 h 1.147939 v 0.922514"
       style="fill:#36556e;fill-opacity:1;fill-rule:nonzero;stroke:none;stroke-width:0.0352778"
       id="path966" />
    <path
       d="m 87.005896,-23.446762 -0.05574,0.05539 h -1.884539 l -0.05539,-0.05539 v -0.683683 l 0.05539,-0.05539 h 1.884539 l 0.05574,0.05539 v 0.683683"
       style="fill:#4f6d8c;fill-opacity:1;fill-rule:nonzero;stroke:none;stroke-width:0.0352778"
       id="path968" />
    <path
       d="m 102.67029,-15.230214 h -0.94474 v -0.759178 h 0.94474 v 0.759178"
       style="fill:#36556e;fill-opacity:1;fill-rule:nonzero;stroke:none;stroke-width:0.0352778"
       id="path970" />
    <path
       d="m 103.03189,-15.960852 -0.0455,0.04561 h -1.55117 l -0.0459,-0.04561 v -0.562645 l 0.0459,-0.04551 h 1.55117 l 0.0455,0.04551 v 0.562645"
       style="fill:#4f6d8c;fill-opacity:1;fill-rule:nonzero;stroke:none;stroke-width:0.0352778"
       id="path972" />
    <path
       d="m 69.440384,-15.277486 h -0.504472 v -0.405271 h 0.504472 v 0.405271"
       style="fill:#36556e;fill-opacity:1;fill-rule:nonzero;stroke:none;stroke-width:0.0352778"
       id="path974" />
    <path
       d="m 69.633353,-15.667623 -0.02434,0.02427 h -0.82797 l -0.02434,-0.02427 v -0.300249 l 0.02434,-0.02441 h 0.82797 l 0.02434,0.02441 v 0.300249"
       style="fill:#4f6d8c;fill-opacity:1;fill-rule:nonzero;stroke:none;stroke-width:0.0352778"
       id="path976" />
    <path
       d="m 93.080024,-18.579839 h 0.655461 v -1.336675 h -0.288572 l -0.366889,1.336675"
       style="fill:#4f6d8c;fill-opacity:1;fill-rule:nonzero;stroke:none;stroke-width:0.0352778"
       id="path978" />
    <path
       d="m 94.492194,-18.579839 h -0.655109 v -1.336675 h 0.28822 l 0.366889,1.336675"
       style="fill:#4f6d8c;fill-opacity:1;fill-rule:nonzero;stroke:none;stroke-width:0.0352778"
       id="path980" />
    <path
       d="m 107.47265,-12.663756 h 1.40688 v -1.857727 h -0.61877 l -0.78811,1.857727"
       style="fill:#4f6d8c;fill-opacity:1;fill-rule:nonzero;stroke:none;stroke-width:0.0352778"
       id="path982" />
    <path
       d="m 110.15165,-12.663756 h -1.40688 v -1.857727 h 0.61912 l 0.78776,1.857727"
       style="fill:#36556e;fill-opacity:1;fill-rule:nonzero;stroke:none;stroke-width:0.0352778"
       id="path984" />
    <path
       d="m 78.707857,-22.55882 h -1.147939 v -0.922514 h 1.147939 v 0.922514"
       style="fill:#36556e;fill-opacity:1;fill-rule:nonzero;stroke:none;stroke-width:0.0352778"
       id="path986" />
    <path
       d="m 91.113641,-14.918641 -3.738739,-7.683571 c -0.05256,-0.07267 -0.321381,-0.13088 -0.600781,-0.13088 h -9.587442 c -0.279047,0 -0.547864,0.05821 -0.600781,0.13088 l -4.798131,7.683571 h 19.325874"
       style="fill:#5c789a;fill-opacity:1;fill-rule:nonzero;stroke:none;stroke-width:0.0352778"
       id="path988" />
    <path
       d="m 90.864932,-15.430168 -3.49003,-7.172044 c -0.03246,-0.0448 -1.719087,-0.08431 -1.867959,-0.10795 l 3.002139,7.279994 h 2.35585"
       style="fill:#396384;fill-opacity:1;fill-rule:nonzero;stroke:none;stroke-width:0.0352778"
       id="path990" />
    <path
       d="m 99.003516,-11.324576 -3.019425,-7.151899 c -0.05256,-0.08364 -0.321381,-0.151024 -0.600781,-0.151024 h -8.266289 l 3.083278,7.302923 h 8.803217"
       style="fill:#4f6d8c;fill-opacity:1;fill-rule:nonzero;stroke:none;stroke-width:0.0352778"
       id="path992" />
    <path
       d="m 105.27873,-12.384038 -1.7519,-2.781265 c -0.0526,-0.08368 -0.32138,-0.151059 -0.60078,-0.151059 H 69.240006 c -0.2794,0 -0.548217,0.06738 -0.600781,0.151059 l -1.752247,2.781265 h 38.391752"
       style="fill:#36556e;fill-opacity:1;fill-rule:nonzero;stroke:none;stroke-width:0.0352778"
       id="path994" />
    <path
       d="m 120.84328,-13.025776 2.59998,-1.976261 -0.0448,-0.05884 -2.59997,1.976262 0.0448,0.05884"
       style="fill:#36556e;fill-opacity:1;fill-rule:nonzero;stroke:none;stroke-width:0.0352778"
       id="path996" />
    <path
       d="m 121.50792,-13.375661 0.88512,-0.672747 -0.2092,-0.275202 -0.88512,0.672465 0.2092,0.275484"
       style="fill:#4f6d8c;fill-opacity:1;fill-rule:nonzero;stroke:none;stroke-width:0.0352778"
       id="path998" />
    <path
       d="m 122.05966,-11.880624 -2.60068,0.430071 c -0.502,-0.348897 -0.31467,-0.892527 -0.10583,-1.464028 0.21449,-0.586634 0.42051,-1.007886 0.9211,-1.007886 h 0.84667 c 0.41416,0 0.61278,0.283316 0.88759,0.745385 0.24941,0.420158 0.28399,0.919691 0.0511,1.296458"
       style="fill:#5c789a;fill-opacity:1;fill-rule:nonzero;stroke:none;stroke-width:0.0352778"
       id="path1000" />
    <path
       d="m 113.55878,-13.754192 2.59997,-1.976261 -0.0448,-0.05898 -2.59998,1.976402 0.0448,0.05884"
       style="fill:#36556e;fill-opacity:1;fill-rule:nonzero;stroke:none;stroke-width:0.0352778"
       id="path1002" />
    <path
       d="m 114.22341,-14.104077 0.88512,-0.672782 -0.20955,-0.275202 -0.88477,0.672782 0.2092,0.275202"
       style="fill:#4f6d8c;fill-opacity:1;fill-rule:nonzero;stroke:none;stroke-width:0.0352778"
       id="path1004" />
    <path
       d="m 114.77515,-12.609075 -2.60067,0.430107 c -0.50201,-0.348933 -0.31468,-0.892563 -0.10584,-1.464169 0.21414,-0.586634 0.42016,-1.007745 0.92075,-1.007745 h 0.84702 c 0.41381,0 0.61278,0.283174 0.88724,0.745349 0.24976,0.420193 0.28434,0.919727 0.0515,1.296458"
       style="fill:#5c789a;fill-opacity:1;fill-rule:nonzero;stroke:none;stroke-width:0.0352778"
       id="path1006" />
    <path
       d="M 118.72203,-8.885858 H 62.892475 v -3.935977 h 55.829555 v 3.935977"
       style="fill:#4f6d8c;fill-opacity:1;fill-rule:nonzero;stroke:none;stroke-width:0.0352778"
       id="path1008" />
    <path
       d="m 120.88315,-13.076223 -0.59302,0.664351 H 66.081586 c -0.327377,0.77724 -1.899355,1.366626 -3.790244,1.366626 h -7.953023 l 0.656519,1.9131138 h 76.036672 l 4.09998,-4.5917558 -14.24834,0.647665"
       style="fill:#274152;fill-opacity:1;fill-rule:nonzero;stroke:none;stroke-width:0.0352778"
       id="path1010" />
    <path
       d="m 61.644347,-7.6581913 c 2.328334,0.168275 5.089526,0.3785659 7.786865,0.5873398 H 61.644347 Z M 131.01175,-9.2298164 H 54.938747 l 0.331964,1.2233981 c 0.05891,0 0.823736,0.00138 0.907697,0.00388 l 0.428625,2.0829059 h 1.2954 l 0.405342,-1.9689587 c 0.732014,0.04699 1.593497,0.1058334 2.544939,0.1736372 v 0.6441018 H 59.84518 v 0.3599391 h 13.72094 c 2.797881,0.3223331 3.333045,0.6472768 3.333045,0.6472768 0,0 27.802775,0 45.189775,0 1.49261,0 3.42548,1.2953295 5.54073,1.2953295 2.87831,0 3.16724,0.073448 2.44687,-1.2233982 -0.71967,-1.2949414 0.93521,-3.2381121 0.93521,-3.2381121"
       style="fill:#e4355c;fill-opacity:1;fill-rule:nonzero;stroke:none;stroke-width:0.0352778"
       id="path1012" />
    <path
       d="M 64.778425,-11.345813 H 54.277994 l -0.05221,-0.246239 h 10.552642 v 0.246239"
       style="fill:#04090d;fill-opacity:1;fill-rule:nonzero;stroke:none;stroke-width:0.0352778"
       id="path1014" />
    <path
       d="m 129.89627,-6.7871124 c 0.0332,-1.1716103 1.11548,-2.442704 1.11548,-2.442704 H 54.938747 l 0.209197,0.7715603 74.748326,1.6711437"
       style="fill:#f2736d;fill-opacity:1;fill-rule:nonzero;stroke:none;stroke-width:0.0352778"
       id="path1016" />
    <path
       d="m 54.483663,-10.621525 0.511175,1.4893928 h 76.036672 l 3.77366,-4.2263138 -21.30778,2.810228 -59.013727,-0.07331"
       style="fill:#19313d;fill-opacity:1;fill-rule:nonzero;stroke:none;stroke-width:0.0352778"
       id="path1018" />
    <path
       d="m 87.714274,-22.821639 c 0,0.09772 -0.07902,0.176741 -0.176742,0.176741 H 76.147395 c -0.09772,0 -0.176741,-0.07902 -0.176741,-0.176741 0,-0.09737 0.07902,-0.176389 0.176741,-0.176389 h 11.390137 c 0.09772,0 0.176742,0.07902 0.176742,0.176389"
       style="fill:#4f6d8c;fill-opacity:1;fill-rule:nonzero;stroke:none;stroke-width:0.0352778"
       id="path1020" />
    <path
       d="m 96.246205,-18.610813 c 0,0.09768 -0.07902,0.176636 -0.176742,0.176636 h -9.012414 c -0.09772,0 -0.176742,-0.07895 -0.176742,-0.176636 0,-0.09744 0.07902,-0.176389 0.176742,-0.176389 h 9.012414 c 0.09772,0 0.176742,0.07895 0.176742,0.176389"
       style="fill:#36556e;fill-opacity:1;fill-rule:nonzero;stroke:none;stroke-width:0.0352778"
       id="path1022" />
    <path
       d="m 103.71557,-15.222523 c 0,0.09786 -0.079,0.176812 -0.17674,0.176812 H 68.655453 c -0.09737,0 -0.176389,-0.07895 -0.176389,-0.176812 0,-0.09726 0.07902,-0.176389 0.176389,-0.176389 h 34.883377 c 0.0977,0 0.17674,0.07913 0.17674,0.176389"
       style="fill:#4f6d8c;fill-opacity:1;fill-rule:nonzero;stroke:none;stroke-width:0.0352778"
       id="path1024" />
    <path
       d="m 85.153813,-20.83483 c 0,0.07303 -0.05962,0.132291 -0.132645,0.132291 h -6.445603 c -0.07338,0 -0.132645,-0.05927 -0.132645,-0.132291 v -0.971127 c 0,-0.07345 0.05927,-0.13268 0.132645,-0.13268 h 6.445603 c 0.07303,0 0.132645,0.05923 0.132645,0.13268 v 0.971127"
       style="fill:#4f6d8c;fill-opacity:1;fill-rule:nonzero;stroke:none;stroke-width:0.0352778"
       id="path1026" />
    <path
       d="m 85.153813,-18.494784 c 0,0.07302 -0.05962,0.132291 -0.132645,0.132291 h -6.445603 c -0.07338,0 -0.132645,-0.05927 -0.132645,-0.132291 v -1.63382 c 0,-0.07288 0.05927,-0.132292 0.132645,-0.132292 h 6.445603 c 0.07303,0 0.132645,0.05941 0.132645,0.132292 v 1.63382"
       style="fill:#4f6d8c;fill-opacity:1;fill-rule:nonzero;stroke:none;stroke-width:0.0352778"
       id="path1028" />
    <path
       d="m 79.147065,-23.446762 -0.05539,0.05539 H 77.20714 l -0.05539,-0.05539 v -0.683683 l 0.05539,-0.05539 h 1.884539 l 0.05539,0.05539 v 0.683683"
       style="fill:#4f6d8c;fill-opacity:1;fill-rule:nonzero;stroke:none;stroke-width:0.0352778"
       id="path1030" />
    <path
       d="M 77.824854,-20.790733 H 76.58872 v -0.971127 h 1.236134 v 0.971127"
       style="fill:#4f6d8c;fill-opacity:1;fill-rule:nonzero;stroke:none;stroke-width:0.0352778"
       id="path1032" />
    <path
       d="M 77.824854,-19.377858 H 76.58872 v -0.971232 h 1.236134 v 0.971232"
       style="fill:#4f6d8c;fill-opacity:1;fill-rule:nonzero;stroke:none;stroke-width:0.0352778"
       id="path1034" />
    <path
       d="M 77.294982,-17.80909 H 76.58872 v -1.283371 h 0.706262 v 1.283371"
       style="fill:#4f6d8c;fill-opacity:1;fill-rule:nonzero;stroke:none;stroke-width:0.0352778"
       id="path1036" />
    <path
       d="m 87.720977,-20.702539 h -0.706262 l -0.366888,-1.28337 h 0.706613 l 0.366537,1.28337"
       style="fill:#36556e;fill-opacity:1;fill-rule:nonzero;stroke:none;stroke-width:0.0352778"
       id="path1038" />
    <path
       d="m 88.250849,-19.17748 h -0.706261 l -0.366889,-1.283794 h 0.706261 l 0.366889,1.283794"
       style="fill:#36556e;fill-opacity:1;fill-rule:nonzero;stroke:none;stroke-width:0.0352778"
       id="path1040" />
    <path
       d="m 95.572752,-17.611887 h -5.474406 v -0.264866 h 5.474406 v 0.264866"
       style="fill:#36556e;fill-opacity:1;fill-rule:nonzero;stroke:none;stroke-width:0.0352778"
       id="path1042" />
    <path
       d="m 80.72751,-22.909834 h 0.917222 v -1.871133 h -0.403578 l -0.513644,1.871133"
       style="fill:#4f6d8c;fill-opacity:1;fill-rule:nonzero;stroke:none;stroke-width:0.0352778"
       id="path1044" />
    <path
       d="m 82.704476,-22.909834 h -0.917222 v -1.871133 h 0.403578 l 0.513644,1.871133"
       style="fill:#4f6d8c;fill-opacity:1;fill-rule:nonzero;stroke:none;stroke-width:0.0352778"
       id="path1046" />
    <path
       d="m 109.71314,-15.505416 c 0.0194,0.06876 0.0307,0.141781 0.0307,0.218405 0,0.379236 -0.26212,0.686541 -0.58561,0.686541 h -0.68122 c -0.3235,0 -0.58561,-0.307305 -0.58561,-0.686541 0,-0.07662 0.0109,-0.149649 0.0307,-0.218405 -0.11783,0.123472 -0.1905,0.290089 -0.1905,0.473781 0,0.379236 0.30762,0.686929 0.68686,0.686929 h 0.79834 c 0.37923,0 0.68685,-0.307693 0.68685,-0.686929 0,-0.183692 -0.0727,-0.350309 -0.1905,-0.473781"
       style="fill:#36556e;fill-opacity:1;fill-rule:nonzero;stroke:none;stroke-width:0.0352778"
       id="path1048" />
    <path
       d="m 109.69586,-15.438706 c 0,0.4717 -0.38241,0.854358 -0.85443,0.854358 -0.47166,0 -0.85407,-0.382658 -0.85407,-0.854358 0,-0.471981 0.38241,-0.854392 0.85407,-0.854392 0.47202,0 0.85443,0.382411 0.85443,0.854392"
       style="fill:#5c789a;fill-opacity:1;fill-rule:nonzero;stroke:none;stroke-width:0.0352778"
       id="path1050" />
    <path
       d="m 84.535393,-17.258686 h -2.472267 v -0.529873 h 2.472267 v 0.529873"
       style="fill:#36556e;fill-opacity:1;fill-rule:nonzero;stroke:none;stroke-width:0.0352778"
       id="path1052" />
    <path
       d="m 81.268671,-16.728849 h -1.942748 v -0.35306 h 1.942748 v 0.35306"
       style="fill:#36556e;fill-opacity:1;fill-rule:nonzero;stroke:none;stroke-width:0.0352778"
       id="path1054" />
    <path
       d="m 86.919465,-16.110783 h -3.973336 v -0.35306 h 3.973336 v 0.35306"
       style="fill:#36556e;fill-opacity:1;fill-rule:nonzero;stroke:none;stroke-width:0.0352778"
       id="path1056" />
    <path
       d="m 77.736659,-17.611887 h -3.267075 v -0.794703 h 3.267075 v 0.794703"
       style="fill:#36556e;fill-opacity:1;fill-rule:nonzero;stroke:none;stroke-width:0.0352778"
       id="path1058" />
    <path
       d="m 67.695898,-11.770945 h -1.110192 v -0.379519 h 1.110192 v 0.379519"
       style="fill:#04090d;fill-opacity:1;fill-rule:nonzero;stroke:none;stroke-width:0.0352778"
       id="path1060" />
    <path
       d="m 69.373356,-11.770945 h -1.109839 v -0.379519 h 1.109839 v 0.379519"
       style="fill:#04090d;fill-opacity:1;fill-rule:nonzero;stroke:none;stroke-width:0.0352778"
       id="path1062" />
    <path
       d="m 71.051167,-11.770945 h -1.110191 v -0.379519 h 1.110191 v 0.379519"
       style="fill:#04090d;fill-opacity:1;fill-rule:nonzero;stroke:none;stroke-width:0.0352778"
       id="path1064" />
    <path
       d="m 72.728978,-11.770945 h -1.110191 v -0.379519 h 1.110191 v 0.379519"
       style="fill:#04090d;fill-opacity:1;fill-rule:nonzero;stroke:none;stroke-width:0.0352778"
       id="path1066" />
    <path
       d="m 74.406437,-11.770945 h -1.109839 v -0.379519 h 1.109839 v 0.379519"
       style="fill:#04090d;fill-opacity:1;fill-rule:nonzero;stroke:none;stroke-width:0.0352778"
       id="path1068" />
    <path
       d="m 76.084248,-11.770945 h -1.110192 v -0.379519 h 1.110192 v 0.379519"
       style="fill:#04090d;fill-opacity:1;fill-rule:nonzero;stroke:none;stroke-width:0.0352778"
       id="path1070" />
    <path
       d="m 80.120732,-10.590798 v -1.105323 H 76.23559 v 1.105323 h 3.885142"
       style="fill:#36556e;fill-opacity:1;fill-rule:nonzero;stroke:none;stroke-width:0.0352778"
       id="path1072" />
    <path
       d="m 80.609329,-11.680246 h -4.944886 v -0.176671 h 4.944886 v 0.176671"
       style="fill:#5c789a;fill-opacity:1;fill-rule:nonzero;stroke:none;stroke-width:0.0352778"
       id="path1074" />
    <path
       d="m 85.948268,-10.590798 v -1.105323 h -3.885142 v 1.105323 h 3.885142"
       style="fill:#36556e;fill-opacity:1;fill-rule:nonzero;stroke:none;stroke-width:0.0352778"
       id="path1076" />
    <path
       d="m 86.436865,-11.680246 h -4.944533 v -0.176671 h 4.944533 v 0.176671"
       style="fill:#5c789a;fill-opacity:1;fill-rule:nonzero;stroke:none;stroke-width:0.0352778"
       id="path1078" />
  </g>
</svg>
