<?xml version="1.0" encoding="UTF-8" standalone="no"?>
<!-- Created with Inkscape (http://www.inkscape.org/) -->

<svg
   width="129.85663mm"
   height="30.08066mm"
   viewBox="0 0 129.85663 30.08066"
   version="1.1"
   id="svg11017"
   inkscape:export-filename="1.svg"
   inkscape:export-xdpi="96"
   inkscape:export-ydpi="96"
   xmlns:inkscape="http://www.inkscape.org/namespaces/inkscape"
   xmlns:sodipodi="http://sodipodi.sourceforge.net/DTD/sodipodi-0.dtd"
   xmlns="http://www.w3.org/2000/svg"
   xmlns:svg="http://www.w3.org/2000/svg">
  <sodipodi:namedview
     id="namedview11019"
     pagecolor="#ffffff"
     bordercolor="#000000"
     borderopacity="0.25"
     inkscape:showpageshadow="2"
     inkscape:pageopacity="0.0"
     inkscape:pagecheckerboard="0"
     inkscape:deskcolor="#d1d1d1"
     inkscape:document-units="mm"
     showgrid="false" />
  <defs
     id="defs11014" />
  <g
     inkscape:label="Layer 1"
     inkscape:groupmode="layer"
     id="layer1"
     transform="translate(-31.126486,-21.783751)">
    <path
       d="m 75.642696,29.463371 c 0,0.21131 -0.17145,0.38276 -0.38277,0.38276 h -1.3402 c -0.21167,0 -0.38312,-0.17145 -0.38312,-0.38276 v -1.91453 c 0,-0.21166 0.17145,-0.38311 0.38312,-0.38311 h 1.3402 c 0.21132,0 0.38277,0.17145 0.38277,0.38311 v 1.91453"
       style="fill:#254254;fill-opacity:1;fill-rule:nonzero;stroke:none;stroke-width:0.0352778"
       id="path168" />
    <path
       d="m 74.691256,30.453621 h -0.78282 v -1.33068 h 0.78282 v 1.33068"
       style="fill:#254254;fill-opacity:1;fill-rule:nonzero;stroke:none;stroke-width:0.0352778"
       id="path170" />
    <path
       d="m 65.519736,33.380261 h -1.34211 l 0.33556,-5.47052 h 0.67106 l 0.33549,5.47052"
       style="fill:#254254;fill-opacity:1;fill-rule:nonzero;stroke:none;stroke-width:0.0352778"
       id="path172" />
    <path
       d="m 70.503076,30.348141 h -2.60915 l 0.97508,-8.00665 h 0.65934 l 0.97473,8.00665"
       style="fill:#254254;fill-opacity:1;fill-rule:nonzero;stroke:none;stroke-width:0.0352778"
       id="path174" />
    <path
       d="m 76.292156,41.090931 h -12.61833 v -8.37036 h 12.61833 v 8.37036"
       style="fill:#466480;fill-opacity:1;fill-rule:nonzero;stroke:none;stroke-width:0.0352778"
       id="path176" />
    <path
       d="m 68.389586,39.104081 h -3.89375 v -1.45168 h 3.89375 v 1.45168"
       style="fill:#254254;fill-opacity:1;fill-rule:nonzero;stroke:none;stroke-width:0.0352778"
       id="path178" />
    <path
       d="m 72.800366,34.655551 v 2.42429 h -9.12654 v 2.52624 h 0.23481 v -2.3502 h 9.12668 v -2.42429 h 3.25684 v -0.17604 h -3.49179"
       style="fill:#254254;fill-opacity:1;fill-rule:nonzero;stroke:none;stroke-width:0.0352778"
       id="path180" />
    <path
       d="m 77.548756,32.754791 h -12.44706 v -0.92252 h 12.44706 v 0.92252"
       style="fill:#3b5972;fill-opacity:1;fill-rule:nonzero;stroke:none;stroke-width:0.0352778"
       id="path182" />
    <path
       d="m 77.548756,31.903891 h -12.44706 v -0.39512 h 12.44706 v 0.39512"
       style="fill:#254254;fill-opacity:1;fill-rule:nonzero;stroke:none;stroke-width:0.0352778"
       id="path184" />
    <path
       d="m 78.916476,30.650821 h -12.28831 v -0.28434 h 12.28831 v 0.28434"
       style="fill:#3b5972;fill-opacity:1;fill-rule:nonzero;stroke:none;stroke-width:0.0352778"
       id="path186" />
    <path
       d="m 78.916476,30.388711 h -12.28831 v -0.12171 h 12.28831 v 0.12171"
       style="fill:#254254;fill-opacity:1;fill-rule:nonzero;stroke:none;stroke-width:0.0352778"
       id="path188" />
    <path
       d="m 78.211976,31.516181 h -11.58381 v -0.65722 h 11.58381 v 0.65722"
       style="fill:#3b5972;fill-opacity:1;fill-rule:nonzero;stroke:none;stroke-width:0.0352778"
       id="path190" />
    <path
       d="m 78.211976,30.910111 h -11.58381 v -0.28152 h 11.58381 v 0.28152"
       style="fill:#254254;fill-opacity:1;fill-rule:nonzero;stroke:none;stroke-width:0.0352778"
       id="path192" />
    <path
       d="m 78.345676,35.861701 -2.20592,1.77694 v -2.2673 h 2.20592 v 0.49036"
       style="fill:#3b5972;fill-opacity:1;fill-rule:nonzero;stroke:none;stroke-width:0.0352778"
       id="path194" />
    <path
       d="m 62.361776,32.897661 1.45662,0.64841 v -0.82727 h -1.45662 v 0.17886"
       style="fill:#3b5972;fill-opacity:1;fill-rule:nonzero;stroke:none;stroke-width:0.0352778"
       id="path196" />
    <path
       d="m 62.361776,33.523841 1.45662,0.64841 v -0.82727 h -1.45662 v 0.17886"
       style="fill:#3b5972;fill-opacity:1;fill-rule:nonzero;stroke:none;stroke-width:0.0352778"
       id="path198" />
    <path
       d="m 62.361776,34.150021 1.45662,0.64841 v -0.82727 h -1.45662 v 0.17886"
       style="fill:#3b5972;fill-opacity:1;fill-rule:nonzero;stroke:none;stroke-width:0.0352778"
       id="path200" />
    <path
       d="m 65.298546,29.042511 h -1.02006 l -0.87118,-0.88936 h 2.7626 z m -2.01652,-0.9331 0.95677,0.97649 h 1.09961 l 0.95638,-0.97649 h -3.01276"
       style="fill:#254254;fill-opacity:1;fill-rule:nonzero;stroke:none;stroke-width:0.0352778"
       id="path202" />
    <path
       d="m 65.121096,27.791911 c 0,0.0974 -0.0787,0.17639 -0.17604,0.17639 -0.0974,0 -0.17603,-0.079 -0.17603,-0.17639 v -0.97826 c 0,-0.0974 0.0787,-0.17638 0.17603,-0.17638 0.0974,0 0.17604,0.079 0.17604,0.17638 v 0.97826"
       style="fill:#254254;fill-opacity:1;fill-rule:nonzero;stroke:none;stroke-width:0.0352778"
       id="path204" />
    <path
       d="m 67.743646,22.958151 v -0.75354 h -0.2346 v 0.98849 h 2.99403 v -0.23495 h -2.75943"
       style="fill:#254254;fill-opacity:1;fill-rule:nonzero;stroke:none;stroke-width:0.0352778"
       id="path206" />
    <path
       d="m 69.759776,22.342901 c 0,0.0783 -0.0635,0.14182 -0.14147,0.14182 h -1.29046 c -0.0783,0 -0.14182,-0.0635 -0.14182,-0.14182 v -0.34713 c 0,-0.0783 0.0635,-0.14182 0.14182,-0.14182 h 1.29046 c 0.078,0 0.14147,0.0635 0.14147,0.14182 z m -0.14147,-0.55915 h -1.29046 c -0.11712,0 -0.21202,0.0949 -0.21202,0.21202 v 0.34748 c 0,0.11677 0.0949,0.21167 0.21202,0.21167 h 1.29046 c 0.11677,0 0.21202,-0.0949 0.21202,-0.21167 v -0.34748 c 0,-0.11712 -0.0952,-0.21202 -0.21202,-0.21202"
       style="fill:#254254;fill-opacity:1;fill-rule:nonzero;stroke:none;stroke-width:0.0352778"
       id="path208" />
    <path
       d="m 70.297756,23.119371 h 0.14676 v -0.41064 h -0.14676 v 0.41064"
       style="fill:#254254;fill-opacity:1;fill-rule:nonzero;stroke:none;stroke-width:0.0352778"
       id="path210" />
    <path
       d="m 70.953926,22.499541 c 0,-0.0557 -0.0452,-0.1009 -0.10125,-0.1009 h -0.92145 c -0.0557,0 -0.10125,0.0452 -0.10125,0.1009 v 0.248 c 0,0.0561 0.0455,0.10125 0.10125,0.10125 h 0.92145 c 0.0561,0 0.10125,-0.0452 0.10125,-0.10125 v -0.248"
       style="fill:#3b5972;fill-opacity:1;fill-rule:nonzero;stroke:none;stroke-width:0.0352778"
       id="path212" />
    <path
       d="m 64.426516,28.021921 c -0.0973,0 -0.17611,-0.0787 -0.17611,-0.17604 0,-0.0974 0.0788,-0.17603 0.17611,-0.17603 h 0.97857 c 0.0974,0 0.17603,0.0787 0.17603,0.17603 0,0.0974 -0.0787,0.17604 -0.17603,0.17604 h -0.97857"
       style="fill:#466480;fill-opacity:1;fill-rule:nonzero;stroke:none;stroke-width:0.0352778"
       id="path214" />
    <path
       d="m 63.330536,28.261811 c -0.0595,0 -0.1076,-0.0483 -0.1076,-0.1076 0,-0.0593 0.0481,-0.1076 0.1076,-0.1076 h 1.09598 c 0.0594,0 0.10763,0.0483 0.10763,0.1076 0,0.0593 -0.0483,0.1076 -0.10763,0.1076 h -1.09598"
       style="fill:#466480;fill-opacity:1;fill-rule:nonzero;stroke:none;stroke-width:0.0352778"
       id="path216" />
    <path
       d="m 71.970986,25.130551 h -5.51886 v -0.31326 h 5.51886 v 0.31326"
       style="fill:#466480;fill-opacity:1;fill-rule:nonzero;stroke:none;stroke-width:0.0352778"
       id="path218" />
    <path
       d="m 70.373256,26.214641 h -2.32375 l -1.36631,-1.02341 h 5.05672 z m -3.90173,-1.09397 1.5547,1.16452 h 2.37066 l 1.55469,-1.16452 h -5.48005"
       style="fill:#254254;fill-opacity:1;fill-rule:nonzero;stroke:none;stroke-width:0.0352778"
       id="path220" />
    <path
       d="m 72.740036,27.381271 h -7.05696 v -0.4004 h 7.05696 v 0.4004"
       style="fill:#466480;fill-opacity:1;fill-rule:nonzero;stroke:none;stroke-width:0.0352778"
       id="path222" />
    <path
       d="m 70.697106,28.767691 h -2.9711 l -1.74731,-1.3088 h 6.46571 z m -4.98899,-1.39876 1.98791,1.48872 h 3.03106 l 1.9879,-1.48872 h -7.00687"
       style="fill:#254254;fill-opacity:1;fill-rule:nonzero;stroke:none;stroke-width:0.0352778"
       id="path224" />
    <path
       d="m 75.876936,28.868591 c 0,0.26846 -0.21766,0.48577 -0.48577,0.48577 h -1.7011 c -0.26846,0 -0.48613,-0.21731 -0.48613,-0.48577 v -2.43029 c 0,-0.26811 0.21767,-0.48578 0.48613,-0.48578 h 1.7011 c 0.26811,0 0.48577,0.21767 0.48577,0.48578 v 2.43029"
       style="fill:#466480;fill-opacity:1;fill-rule:nonzero;stroke:none;stroke-width:0.0352778"
       id="path226" />
    <path
       d="m 76.969496,30.388001 c 0,0.0579 -0.0469,0.10513 -0.10513,0.10513 -0.0579,0 -0.10478,-0.0473 -0.10478,-0.10513 v -3.49991 c 0,-0.0582 0.0469,-0.10513 0.10478,-0.10513 0.0582,0 0.10513,0.0469 0.10513,0.10513 v 3.49991"
       style="fill:#254254;fill-opacity:1;fill-rule:nonzero;stroke:none;stroke-width:0.0352778"
       id="path228" />
    <path
       d="m 77.680336,30.413051 c 0,0.0441 -0.0469,0.0801 -0.10477,0.0801 -0.0582,0 -0.10513,-0.036 -0.10513,-0.0801 v -2.65854 c 0,-0.0441 0.0469,-0.0797 0.10513,-0.0797 0.0579,0 0.10477,0.0356 0.10477,0.0797 v 2.65854"
       style="fill:#254254;fill-opacity:1;fill-rule:nonzero;stroke:none;stroke-width:0.0352778"
       id="path230" />
    <path
       d="m 78.002076,33.131551 h -3.03142 v -1.03999 h 3.03142 v 1.03999"
       style="fill:#466480;fill-opacity:1;fill-rule:nonzero;stroke:none;stroke-width:0.0352778"
       id="path232" />
    <path
       d="m 78.002076,32.953051 h -3.03142 v -0.41593 h 3.03142 v 0.41593"
       style="fill:#254254;fill-opacity:1;fill-rule:nonzero;stroke:none;stroke-width:0.0352778"
       id="path234" />
    <path
       d="m 78.002076,34.141911 h -3.03142 v -1.03999 h 3.03142 v 1.03999"
       style="fill:#466480;fill-opacity:1;fill-rule:nonzero;stroke:none;stroke-width:0.0352778"
       id="path236" />
    <path
       d="m 78.002076,33.963761 h -3.03142 v -0.41593 h 3.03142 v 0.41593"
       style="fill:#254254;fill-opacity:1;fill-rule:nonzero;stroke:none;stroke-width:0.0352778"
       id="path238" />
    <path
       d="m 78.002076,35.152621 h -3.03142 v -1.04035 h 3.03142 v 1.04035"
       style="fill:#466480;fill-opacity:1;fill-rule:nonzero;stroke:none;stroke-width:0.0352778"
       id="path240" />
    <path
       d="m 78.002076,34.974111 h -3.03142 v -0.41592 h 3.03142 v 0.41592"
       style="fill:#254254;fill-opacity:1;fill-rule:nonzero;stroke:none;stroke-width:0.0352778"
       id="path242" />
    <path
       d="m 156.97139,44.724181 c -1.63795,1.44745 -1.02729,2.38055 -1.80552,2.38055 H 32.542146 c -0.77818,0 -1.40905,-0.63077 -1.40905,-1.409 v -5.1502 c 0.40473,-0.22578 0.63087,-0.13935 1.40905,-0.13935 H 160.86076 c 0.1337,0 0.2914,1.08726 -0.32597,1.7526 -0.75565,0.81351 -1.52047,0.76024 -3.5634,2.5654"
       style="fill:#466480;fill-opacity:1;fill-rule:nonzero;stroke:none;stroke-width:0.0352778"
       id="path244" />
    <path
       d="M 157.94611,47.167171 H 34.257946 c -1.24425,0 -2.25972,0.96838 -2.3406,2.19216 h 2.49712 v 0.62618 c 0,0.51894 0.42059,0.93945 0.93942,0.93945 h 1.09597 c 0.51883,0 0.93941,-0.42051 0.93941,-0.93945 v -0.62618 h 7.66974 c 0.51883,0 1.36025,0.42051 1.8795,0.93945 l 1.56697,1.56563 H 157.94611 c 1.29717,0 2.34844,-1.05163 2.34844,-2.34845 0,-1.29716 -1.05127,-2.34879 -2.34844,-2.34879"
       style="fill:#e4355c;fill-opacity:1;fill-rule:nonzero;stroke:none;stroke-width:0.0352778"
       id="path246" />
    <path
       d="m 160.20001,48.859801 c -0.28434,-0.97755 -1.18498,-1.69263 -2.2539,-1.69263 H 34.257946 c -1.06881,0 -1.96688,0.71543 -2.25076,1.69263 H 160.20001"
       style="fill:#f2736d;fill-opacity:1;fill-rule:nonzero;stroke:none;stroke-width:0.0352778"
       id="path248" />
    <path
       d="m 71.364206,40.406181 v 5.97853 h 20.35387 v -5.97853 h -20.35387"
       style="fill:#3b5972;fill-opacity:1;fill-rule:nonzero;stroke:none;stroke-width:0.0352778"
       id="path250" />
    <path
       d="m 121.8573,39.573981 v 5.51886 h 9.8245 v -5.51886 h -9.8245"
       style="fill:#3b5972;fill-opacity:1;fill-rule:nonzero;stroke:none;stroke-width:0.0352778"
       id="path252" />
    <path
       d="m 48.975266,40.406181 v 5.97853 h 8.14144 v -5.97853 h -8.14144"
       style="fill:#3b5972;fill-opacity:1;fill-rule:nonzero;stroke:none;stroke-width:0.0352778"
       id="path254" />
    <path
       d="m 37.389266,44.818731 h -1.87882 v -4.0707 h 1.87882 v 4.0707"
       style="fill:#3b5972;fill-opacity:1;fill-rule:nonzero;stroke:none;stroke-width:0.0352778"
       id="path256" />
    <path
       d="m 39.894236,44.818731 h -1.87879 v -4.0707 h 1.87879 v 4.0707"
       style="fill:#3b5972;fill-opacity:1;fill-rule:nonzero;stroke:none;stroke-width:0.0352778"
       id="path258" />
    <path
       d="m 42.399386,44.818731 h -1.87883 v -4.0707 h 1.87883 v 4.0707"
       style="fill:#3b5972;fill-opacity:1;fill-rule:nonzero;stroke:none;stroke-width:0.0352778"
       id="path260" />
    <path
       d="m 44.904526,44.818731 h -1.87882 v -4.0707 h 1.87882 v 4.0707"
       style="fill:#3b5972;fill-opacity:1;fill-rule:nonzero;stroke:none;stroke-width:0.0352778"
       id="path262" />
    <path
       d="m 47.409536,44.818731 h -1.87883 v -4.0707 h 1.87883 v 4.0707"
       style="fill:#3b5972;fill-opacity:1;fill-rule:nonzero;stroke:none;stroke-width:0.0352778"
       id="path264" />
    <path
       d="m 92.044396,46.367071 c 0,0.40781 -0.33056,0.73836 -0.73837,0.73836 h -59.44105 c -0.4079,0 -0.73849,-0.33055 -0.73849,-0.73836 v -0.12312 c 0,-0.40781 0.33059,-0.73836 0.73849,-0.73836 h 59.44105 c 0.40781,0 0.73837,0.33055 0.73837,0.73836 v 0.12312"
       style="fill:#254254;fill-opacity:1;fill-rule:nonzero;stroke:none;stroke-width:0.0352778"
       id="path266" />
    <path
       d="m 71.417126,44.393281 c 0,0.30586 -0.24836,0.55421 -0.55457,0.55421 h -13.34816 c -0.30607,0 -0.55425,-0.24835 -0.55425,-0.55421 v -0.0924 c 0,-0.30621 0.24818,-0.55457 0.55425,-0.55457 h 13.34816 c 0.30621,0 0.55457,0.24836 0.55457,0.55457 v 0.0924"
       style="fill:#254254;fill-opacity:1;fill-rule:nonzero;stroke:none;stroke-width:0.0352778"
       id="path268" />
    <path
       d="m 49.497516,45.176091 c 0,0.30586 -0.24818,0.55422 -0.55439,0.55422 h -13.34809 c -0.30617,0 -0.55439,-0.24836 -0.55439,-0.55422 v -0.0924 c 0,-0.30621 0.24822,-0.55421 0.55439,-0.55421 h 13.34809 c 0.30621,0 0.55439,0.248 0.55439,0.55421 v 0.0924"
       style="fill:#254254;fill-opacity:1;fill-rule:nonzero;stroke:none;stroke-width:0.0352778"
       id="path270" />
    <path
       d="m 50.384296,43.409731 h -0.78285 v -2.1918 h 0.78285 v 2.1918"
       style="fill:#466480;fill-opacity:1;fill-rule:nonzero;stroke:none;stroke-width:0.0352778"
       id="path272" />
    <path
       d="m 51.871746,43.409731 h -0.78285 v -2.1918 h 0.78285 v 2.1918"
       style="fill:#466480;fill-opacity:1;fill-rule:nonzero;stroke:none;stroke-width:0.0352778"
       id="path274" />
    <path
       d="m 53.359056,43.409731 h -0.7827 v -2.1918 h 0.7827 v 2.1918"
       style="fill:#466480;fill-opacity:1;fill-rule:nonzero;stroke:none;stroke-width:0.0352778"
       id="path276" />
    <path
       d="m 54.846516,43.409731 h -0.78285 v -2.1918 h 0.78285 v 2.1918"
       style="fill:#466480;fill-opacity:1;fill-rule:nonzero;stroke:none;stroke-width:0.0352778"
       id="path278" />
    <path
       d="m 56.333826,43.409731 h -0.78271 v -2.1918 h 0.78271 v 2.1918"
       style="fill:#466480;fill-opacity:1;fill-rule:nonzero;stroke:none;stroke-width:0.0352778"
       id="path280" />
    <path
       d="m 91.639756,42.391971 h -20.30236 v -1.17404 h 20.30236 v 1.17404"
       style="fill:#254254;fill-opacity:1;fill-rule:nonzero;stroke:none;stroke-width:0.0352778"
       id="path282" />
    <path
       d="m 72.743916,43.973831 c 0,0.20602 -0.16721,0.37359 -0.37359,0.37359 -0.20637,0 -0.37359,-0.16757 -0.37359,-0.37359 0,-0.20638 0.16722,-0.3736 0.37359,-0.3736 0.20638,0 0.37359,0.16722 0.37359,0.3736"
       style="fill:#254254;fill-opacity:1;fill-rule:nonzero;stroke:none;stroke-width:0.0352778"
       id="path284" />
    <path
       d="m 74.441136,43.973831 c 0,0.20602 -0.16722,0.37359 -0.37359,0.37359 -0.20603,0 -0.37324,-0.16757 -0.37324,-0.37359 0,-0.20638 0.16721,-0.3736 0.37324,-0.3736 0.20637,0 0.37359,0.16722 0.37359,0.3736"
       style="fill:#254254;fill-opacity:1;fill-rule:nonzero;stroke:none;stroke-width:0.0352778"
       id="path286" />
    <path
       d="m 76.138346,43.973831 c 0,0.20602 -0.16722,0.37359 -0.37324,0.37359 -0.20637,0 -0.37359,-0.16757 -0.37359,-0.37359 0,-0.20638 0.16722,-0.3736 0.37359,-0.3736 0.20602,0 0.37324,0.16722 0.37324,0.3736"
       style="fill:#254254;fill-opacity:1;fill-rule:nonzero;stroke:none;stroke-width:0.0352778"
       id="path288" />
    <path
       d="m 77.835916,43.973831 c 0,0.20602 -0.16757,0.37359 -0.37359,0.37359 -0.20638,0 -0.3736,-0.16757 -0.3736,-0.37359 0,-0.20638 0.16722,-0.3736 0.3736,-0.3736 0.20602,0 0.37359,0.16722 0.37359,0.3736"
       style="fill:#254254;fill-opacity:1;fill-rule:nonzero;stroke:none;stroke-width:0.0352778"
       id="path290" />
    <path
       d="m 79.533126,43.973831 c 0,0.20602 -0.16722,0.37359 -0.37359,0.37359 -0.20638,0 -0.37359,-0.16757 -0.37359,-0.37359 0,-0.20638 0.16721,-0.3736 0.37359,-0.3736 0.20637,0 0.37359,0.16722 0.37359,0.3736"
       style="fill:#254254;fill-opacity:1;fill-rule:nonzero;stroke:none;stroke-width:0.0352778"
       id="path292" />
    <path
       d="m 81.230346,43.973831 c 0,0.20602 -0.16722,0.37359 -0.3736,0.37359 -0.20637,0 -0.37359,-0.16757 -0.37359,-0.37359 0,-0.20638 0.16722,-0.3736 0.37359,-0.3736 0.20638,0 0.3736,0.16722 0.3736,0.3736"
       style="fill:#254254;fill-opacity:1;fill-rule:nonzero;stroke:none;stroke-width:0.0352778"
       id="path294" />
    <path
       d="m 82.927556,43.973831 c 0,0.20602 -0.16722,0.37359 -0.37359,0.37359 -0.20638,0 -0.37359,-0.16757 -0.37359,-0.37359 0,-0.20638 0.16721,-0.3736 0.37359,-0.3736 0.20637,0 0.37359,0.16722 0.37359,0.3736"
       style="fill:#254254;fill-opacity:1;fill-rule:nonzero;stroke:none;stroke-width:0.0352778"
       id="path296" />
    <path
       d="m 84.624766,43.973831 c 0,0.20602 -0.16721,0.37359 -0.37359,0.37359 -0.20602,0 -0.37359,-0.16757 -0.37359,-0.37359 0,-0.20638 0.16757,-0.3736 0.37359,-0.3736 0.20638,0 0.37359,0.16722 0.37359,0.3736"
       style="fill:#254254;fill-opacity:1;fill-rule:nonzero;stroke:none;stroke-width:0.0352778"
       id="path298" />
    <path
       d="m 86.321986,43.973831 c 0,0.20602 -0.16722,0.37359 -0.37359,0.37359 -0.20603,0 -0.37324,-0.16757 -0.37324,-0.37359 0,-0.20638 0.16721,-0.3736 0.37324,-0.3736 0.20637,0 0.37359,0.16722 0.37359,0.3736"
       style="fill:#254254;fill-opacity:1;fill-rule:nonzero;stroke:none;stroke-width:0.0352778"
       id="path300" />
    <path
       d="m 88.019196,43.973831 c 0,0.20602 -0.16722,0.37359 -0.37324,0.37359 -0.20637,0 -0.37359,-0.16757 -0.37359,-0.37359 0,-0.20638 0.16722,-0.3736 0.37359,-0.3736 0.20602,0 0.37324,0.16722 0.37324,0.3736"
       style="fill:#254254;fill-opacity:1;fill-rule:nonzero;stroke:none;stroke-width:0.0352778"
       id="path302" />
    <path
       d="m 89.716766,43.973831 c 0,0.20602 -0.16722,0.37359 -0.37359,0.37359 -0.20638,0 -0.3736,-0.16757 -0.3736,-0.37359 0,-0.20638 0.16722,-0.3736 0.3736,-0.3736 0.20637,0 0.37359,0.16722 0.37359,0.3736"
       style="fill:#254254;fill-opacity:1;fill-rule:nonzero;stroke:none;stroke-width:0.0352778"
       id="path304" />
    <path
       d="m 93.593796,45.523581 c 0,0.20602 -0.16722,0.37324 -0.37324,0.37324 -0.20638,0 -0.37359,-0.16722 -0.37359,-0.37324 0,-0.20638 0.16721,-0.37359 0.37359,-0.37359 0.20602,0 0.37324,0.16721 0.37324,0.37359"
       style="fill:#254254;fill-opacity:1;fill-rule:nonzero;stroke:none;stroke-width:0.0352778"
       id="path306" />
    <path
       d="m 95.291356,45.523581 c 0,0.20602 -0.16721,0.37324 -0.37359,0.37324 -0.20637,0 -0.37359,-0.16722 -0.37359,-0.37324 0,-0.20638 0.16722,-0.37359 0.37359,-0.37359 0.20638,0 0.37359,0.16721 0.37359,0.37359"
       style="fill:#254254;fill-opacity:1;fill-rule:nonzero;stroke:none;stroke-width:0.0352778"
       id="path308" />
    <path
       d="m 96.988576,45.523581 c 0,0.20602 -0.16722,0.37324 -0.37359,0.37324 -0.20638,0 -0.3736,-0.16722 -0.3736,-0.37324 0,-0.20638 0.16722,-0.37359 0.3736,-0.37359 0.20637,0 0.37359,0.16721 0.37359,0.37359"
       style="fill:#254254;fill-opacity:1;fill-rule:nonzero;stroke:none;stroke-width:0.0352778"
       id="path310" />
    <path
       d="m 98.685786,45.523581 c 0,0.20602 -0.16722,0.37324 -0.37359,0.37324 -0.20638,0 -0.37359,-0.16722 -0.37359,-0.37324 0,-0.20638 0.16721,-0.37359 0.37359,-0.37359 0.20637,0 0.37359,0.16721 0.37359,0.37359"
       style="fill:#254254;fill-opacity:1;fill-rule:nonzero;stroke:none;stroke-width:0.0352778"
       id="path312" />
    <path
       d="m 100.38301,45.523581 c 0,0.20602 -0.16722,0.37324 -0.3736,0.37324 -0.206374,0 -0.373594,-0.16722 -0.373594,-0.37324 0,-0.20638 0.16722,-0.37359 0.373594,-0.37359 0.20638,0 0.3736,0.16721 0.3736,0.37359"
       style="fill:#254254;fill-opacity:1;fill-rule:nonzero;stroke:none;stroke-width:0.0352778"
       id="path314" />
    <path
       d="m 102.08022,45.523581 c 0,0.20602 -0.16722,0.37324 -0.37359,0.37324 -0.20602,0 -0.37324,-0.16722 -0.37324,-0.37324 0,-0.20638 0.16722,-0.37359 0.37324,-0.37359 0.20637,0 0.37359,0.16721 0.37359,0.37359"
       style="fill:#254254;fill-opacity:1;fill-rule:nonzero;stroke:none;stroke-width:0.0352778"
       id="path316" />
    <path
       d="m 103.77743,45.523581 c 0,0.20602 -0.16721,0.37324 -0.37359,0.37324 -0.20602,0 -0.37324,-0.16722 -0.37324,-0.37324 0,-0.20638 0.16722,-0.37359 0.37324,-0.37359 0.20638,0 0.37359,0.16721 0.37359,0.37359"
       style="fill:#254254;fill-opacity:1;fill-rule:nonzero;stroke:none;stroke-width:0.0352778"
       id="path318" />
    <path
       d="m 105.47465,45.523581 c 0,0.20602 -0.16722,0.37324 -0.37324,0.37324 -0.20638,0 -0.37359,-0.16722 -0.37359,-0.37324 0,-0.20638 0.16721,-0.37359 0.37359,-0.37359 0.20602,0 0.37324,0.16721 0.37324,0.37359"
       style="fill:#254254;fill-opacity:1;fill-rule:nonzero;stroke:none;stroke-width:0.0352778"
       id="path320" />
    <path
       d="m 107.17221,45.523581 c 0,0.20602 -0.16721,0.37324 -0.37359,0.37324 -0.20637,0 -0.37359,-0.16722 -0.37359,-0.37324 0,-0.20638 0.16722,-0.37359 0.37359,-0.37359 0.20638,0 0.37359,0.16721 0.37359,0.37359"
       style="fill:#254254;fill-opacity:1;fill-rule:nonzero;stroke:none;stroke-width:0.0352778"
       id="path322" />
    <path
       d="m 108.86943,45.523581 c 0,0.20602 -0.16722,0.37324 -0.37359,0.37324 -0.20638,0 -0.3736,-0.16722 -0.3736,-0.37324 0,-0.20638 0.16722,-0.37359 0.3736,-0.37359 0.20637,0 0.37359,0.16721 0.37359,0.37359"
       style="fill:#254254;fill-opacity:1;fill-rule:nonzero;stroke:none;stroke-width:0.0352778"
       id="path324" />
    <path
       d="m 110.56664,45.523581 c 0,0.20602 -0.16721,0.37324 -0.37359,0.37324 -0.20637,0 -0.37359,-0.16722 -0.37359,-0.37324 0,-0.20638 0.16722,-0.37359 0.37359,-0.37359 0.20638,0 0.37359,0.16721 0.37359,0.37359"
       style="fill:#254254;fill-opacity:1;fill-rule:nonzero;stroke:none;stroke-width:0.0352778"
       id="path326" />
    <path
       d="m 160.90239,40.545531 c 0.15628,-0.54716 0.0519,-1.07879 -0.0416,-1.07879 H 32.542146 c -0.66422,0 -1.2197,0.46002 -1.36853,1.07879 H 160.90239"
       style="fill:#254254;fill-opacity:1;fill-rule:nonzero;stroke:none;stroke-width:0.0352778"
       id="path328" />
    <path
       d="m 71.234736,41.452521 h -14.07354 v -0.46954 h 14.07354 v 0.46954"
       style="fill:#254254;fill-opacity:1;fill-rule:nonzero;stroke:none;stroke-width:0.0352778"
       id="path330" />
    <path
       d="m 71.234736,42.069181 h -14.07354 v -0.4699 h 14.07354 v 0.4699"
       style="fill:#254254;fill-opacity:1;fill-rule:nonzero;stroke:none;stroke-width:0.0352778"
       id="path332" />
    <path
       d="M 124.04946,44.740411 H 91.405156 v -1.64394 h 32.644304 v 1.64394"
       style="fill:#3b5972;fill-opacity:1;fill-rule:nonzero;stroke:none;stroke-width:0.0352778"
       id="path334" />
    <path
       d="m 96.501736,42.412781 h -3.8869 v -0.97155 h 3.8869 v 0.97155"
       style="fill:#254254;fill-opacity:1;fill-rule:nonzero;stroke:none;stroke-width:0.0352778"
       id="path336" />
    <path
       d="m 100.7125,42.412781 h -3.886914 v -0.97155 h 3.886914 v 0.97155"
       style="fill:#254254;fill-opacity:1;fill-rule:nonzero;stroke:none;stroke-width:0.0352778"
       id="path338" />
    <path
       d="m 104.9229,42.412781 h -3.88655 v -0.97155 h 3.88655 v 0.97155"
       style="fill:#254254;fill-opacity:1;fill-rule:nonzero;stroke:none;stroke-width:0.0352778"
       id="path340" />
    <path
       d="m 109.13366,42.412781 h -3.88691 v -0.97155 h 3.88691 v 0.97155"
       style="fill:#254254;fill-opacity:1;fill-rule:nonzero;stroke:none;stroke-width:0.0352778"
       id="path342" />
    <path
       d="m 113.18249,42.412781 h -3.88691 v -0.97155 h 3.88691 v 0.97155"
       style="fill:#254254;fill-opacity:1;fill-rule:nonzero;stroke:none;stroke-width:0.0352778"
       id="path344" />
    <path
       d="m 117.39289,42.412781 h -3.88655 v -0.97155 h 3.88655 v 0.97155"
       style="fill:#254254;fill-opacity:1;fill-rule:nonzero;stroke:none;stroke-width:0.0352778"
       id="path346" />
    <path
       d="m 121.76557,42.412781 h -3.88655 v -0.97155 h 3.88655 v 0.97155"
       style="fill:#254254;fill-opacity:1;fill-rule:nonzero;stroke:none;stroke-width:0.0352778"
       id="path348" />
    <path
       d="m 145.4546,44.958081 c 0,0.40781 -0.33055,0.73836 -0.73836,0.73836 H 112.3016 c -0.40781,0 -0.73871,-0.33055 -0.73871,-0.73836 v -0.12312 c 0,-0.40782 0.3309,-0.73837 0.73871,-0.73837 h 32.41464 c 0.40781,0 0.73836,0.33055 0.73836,0.73837 v 0.12312"
       style="fill:#254254;fill-opacity:1;fill-rule:nonzero;stroke:none;stroke-width:0.0352778"
       id="path350" />
    <path
       d="m 151.90091,41.916071 c 0,0.2533 -0.20567,0.45932 -0.45932,0.45932 h -20.1616 c -0.25365,0 -0.45932,-0.20602 -0.45932,-0.45932 v -0.0766 c 0,-0.25365 0.20567,-0.45932 0.45932,-0.45932 h 20.1616 c 0.25365,0 0.45932,0.20567 0.45932,0.45932 v 0.0766"
       style="fill:#254254;fill-opacity:1;fill-rule:nonzero;stroke:none;stroke-width:0.0352778"
       id="path352" />
    <path
       d="m 93.593796,43.957601 c 0,0.20637 -0.16722,0.37359 -0.37324,0.37359 -0.20638,0 -0.37359,-0.16722 -0.37359,-0.37359 0,-0.20638 0.16721,-0.37324 0.37359,-0.37324 0.20602,0 0.37324,0.16686 0.37324,0.37324"
       style="fill:#254254;fill-opacity:1;fill-rule:nonzero;stroke:none;stroke-width:0.0352778"
       id="path354" />
    <path
       d="m 95.291356,43.957601 c 0,0.20637 -0.16721,0.37359 -0.37359,0.37359 -0.20637,0 -0.37359,-0.16722 -0.37359,-0.37359 0,-0.20638 0.16722,-0.37324 0.37359,-0.37324 0.20638,0 0.37359,0.16686 0.37359,0.37324"
       style="fill:#254254;fill-opacity:1;fill-rule:nonzero;stroke:none;stroke-width:0.0352778"
       id="path356" />
    <path
       d="m 96.988576,43.957601 c 0,0.20637 -0.16722,0.37359 -0.37359,0.37359 -0.20638,0 -0.3736,-0.16722 -0.3736,-0.37359 0,-0.20638 0.16722,-0.37324 0.3736,-0.37324 0.20637,0 0.37359,0.16686 0.37359,0.37324"
       style="fill:#254254;fill-opacity:1;fill-rule:nonzero;stroke:none;stroke-width:0.0352778"
       id="path358" />
    <path
       d="m 98.685786,43.957601 c 0,0.20637 -0.16722,0.37359 -0.37359,0.37359 -0.20638,0 -0.37359,-0.16722 -0.37359,-0.37359 0,-0.20638 0.16721,-0.37324 0.37359,-0.37324 0.20637,0 0.37359,0.16686 0.37359,0.37324"
       style="fill:#254254;fill-opacity:1;fill-rule:nonzero;stroke:none;stroke-width:0.0352778"
       id="path360" />
    <path
       d="m 100.38301,43.957601 c 0,0.20637 -0.16722,0.37359 -0.3736,0.37359 -0.206374,0 -0.373594,-0.16722 -0.373594,-0.37359 0,-0.20638 0.16722,-0.37324 0.373594,-0.37324 0.20638,0 0.3736,0.16686 0.3736,0.37324"
       style="fill:#254254;fill-opacity:1;fill-rule:nonzero;stroke:none;stroke-width:0.0352778"
       id="path362" />
    <path
       d="m 102.08022,43.957601 c 0,0.20637 -0.16722,0.37359 -0.37359,0.37359 -0.20602,0 -0.37324,-0.16722 -0.37324,-0.37359 0,-0.20638 0.16722,-0.37324 0.37324,-0.37324 0.20637,0 0.37359,0.16686 0.37359,0.37324"
       style="fill:#254254;fill-opacity:1;fill-rule:nonzero;stroke:none;stroke-width:0.0352778"
       id="path364" />
    <path
       d="m 103.77743,43.957601 c 0,0.20637 -0.16721,0.37359 -0.37359,0.37359 -0.20602,0 -0.37324,-0.16722 -0.37324,-0.37359 0,-0.20638 0.16722,-0.37324 0.37324,-0.37324 0.20638,0 0.37359,0.16686 0.37359,0.37324"
       style="fill:#254254;fill-opacity:1;fill-rule:nonzero;stroke:none;stroke-width:0.0352778"
       id="path366" />
    <path
       d="m 105.47465,43.957601 c 0,0.20637 -0.16722,0.37359 -0.37324,0.37359 -0.20638,0 -0.37359,-0.16722 -0.37359,-0.37359 0,-0.20638 0.16721,-0.37324 0.37359,-0.37324 0.20602,0 0.37324,0.16686 0.37324,0.37324"
       style="fill:#254254;fill-opacity:1;fill-rule:nonzero;stroke:none;stroke-width:0.0352778"
       id="path368" />
    <path
       d="m 107.17221,43.957601 c 0,0.20637 -0.16721,0.37359 -0.37359,0.37359 -0.20637,0 -0.37359,-0.16722 -0.37359,-0.37359 0,-0.20638 0.16722,-0.37324 0.37359,-0.37324 0.20638,0 0.37359,0.16686 0.37359,0.37324"
       style="fill:#254254;fill-opacity:1;fill-rule:nonzero;stroke:none;stroke-width:0.0352778"
       id="path370" />
    <path
       d="m 108.86943,43.957601 c 0,0.20637 -0.16722,0.37359 -0.37359,0.37359 -0.20638,0 -0.3736,-0.16722 -0.3736,-0.37359 0,-0.20638 0.16722,-0.37324 0.3736,-0.37324 0.20637,0 0.37359,0.16686 0.37359,0.37324"
       style="fill:#254254;fill-opacity:1;fill-rule:nonzero;stroke:none;stroke-width:0.0352778"
       id="path372" />
    <path
       d="m 110.56664,43.957601 c 0,0.20637 -0.16721,0.37359 -0.37359,0.37359 -0.20637,0 -0.37359,-0.16722 -0.37359,-0.37359 0,-0.20638 0.16722,-0.37324 0.37359,-0.37324 0.20638,0 0.37359,0.16686 0.37359,0.37324"
       style="fill:#254254;fill-opacity:1;fill-rule:nonzero;stroke:none;stroke-width:0.0352778"
       id="path374" />
    <path
       d="m 86.389016,39.301991 h 0.30197 l 0.23954,-0.30198 -1.34056,0.0681 0.79905,0.23389"
       style="fill:#254254;fill-opacity:1;fill-rule:nonzero;stroke:none;stroke-width:0.0352778"
       id="path376" />
    <path
       d="m 87.520016,38.889241 c -0.65969,0.0198 -3.36515,0.0988 -4.9022,0.0988 l -2.32551,-0.10337 0.004,-0.0579 c -0.0642,-0.061 -0.13934,-0.16193 -0.19579,-0.26706 l -0.42757,-0.84066 0.009,0.0589 0.40181,0.95955 c 0.0459,0.10513 0.11077,0.20638 0.16898,0.26741 l -0.01,0.0575 2.31528,0.10337 c 1.75966,0 5.0606,-0.10337 5.0606,-0.10337 0,-0.0624 -0.0342,-0.11959 -0.0991,-0.17321"
       style="fill:#254254;fill-opacity:1;fill-rule:nonzero;stroke:none;stroke-width:0.0352778"
       id="path378" />
    <path
       d="m 87.619146,38.974261 c 0,-0.30198 -0.79057,-0.47978 -2.01612,-0.7172 -0.80786,-0.15628 -1.86302,-0.002 -2.67053,0.12136 -0.1711,0.0261 -1.74766,0.22119 -1.99108,0.22119 l -0.75353,-0.85302 c -0.0406,-0.0459 -0.0942,-0.0801 -0.12312,-0.0801 h -0.35948 c -0.0286,0 -0.037,0.0342 -0.0169,0.0801 l 0.39582,0.90276 c 0.0459,0.10513 0.11077,0.20602 0.16898,0.26705 l -0.01,0.0579 2.31528,0.10336 c 1.75966,0 5.0606,-0.10336 5.0606,-0.10336"
       style="fill:#3b5972;fill-opacity:1;fill-rule:nonzero;stroke:none;stroke-width:0.0352778"
       id="path380" />
    <path
       d="m 85.149346,39.219441 c 0,0.0328 -0.0265,0.0593 -0.0593,0.0593 h -3.54507 c -0.0328,0 -0.0593,-0.0265 -0.0593,-0.0593 0,-0.0328 0.0264,-0.0593 0.0593,-0.0593 0,0 1.84397,-0.56621 2.3929,-0.5468 l 1.15217,0.5468 c 0.0328,0 0.0593,0.0265 0.0593,0.0593"
       style="fill:#466480;fill-opacity:1;fill-rule:nonzero;stroke:none;stroke-width:0.0352778"
       id="path382" />
    <path
       d="m 85.149346,39.219441 c 0,0.0328 -0.0265,0.0593 -0.0593,0.0593 h -3.54507 c -0.0328,0 -0.0593,-0.0265 -0.0593,-0.0593 0,-0.0328 0.0264,-0.0593 0.0593,-0.0593 h 3.54507 c 0.0328,0 0.0593,0.0265 0.0593,0.0593"
       style="fill:#254254;fill-opacity:1;fill-rule:nonzero;stroke:none;stroke-width:0.0352778"
       id="path384" />
    <path
       d="m 85.046696,38.211911 0.31291,0.37994 c 0.0744,0.0903 0.19897,0.15945 0.28257,0.15945 h 1.80764 c -0.29422,-0.18027 -0.95532,-0.32173 -1.84679,-0.49424 -0.1397,-0.0272 -0.33126,-0.0413 -0.55633,-0.0451"
       style="fill:#254254;fill-opacity:1;fill-rule:nonzero;stroke:none;stroke-width:0.0352778"
       id="path386" />
    <path
       d="m 83.390756,39.312571 c 0,0.0861 -0.0699,0.15628 -0.15593,0.15628 h -0.073 c -0.0864,0 -0.15628,-0.0702 -0.15628,-0.15628 0,-0.0864 0.0699,-0.15628 0.15628,-0.15628 h 0.073 c 0.0861,0 0.15593,0.0699 0.15593,0.15628"
       style="fill:#3b5972;fill-opacity:1;fill-rule:nonzero;stroke:none;stroke-width:0.0352778"
       id="path388" />
    <path
       d="m 83.203426,39.312571 c 0,0.0861 -0.0699,0.15628 -0.15628,0.15628 h -0.0727 c -0.0864,0 -0.15628,-0.0702 -0.15628,-0.15628 0,-0.0864 0.0699,-0.15628 0.15628,-0.15628 h 0.0727 c 0.0864,0 0.15628,0.0699 0.15628,0.15628"
       style="fill:#254254;fill-opacity:1;fill-rule:nonzero;stroke:none;stroke-width:0.0352778"
       id="path390" />
    <path
       d="m 86.805646,39.312571 c 0,0.0861 -0.0699,0.15628 -0.15628,0.15628 h -0.0727 c -0.0864,0 -0.15628,-0.0702 -0.15628,-0.15628 0,-0.0864 0.0699,-0.15628 0.15628,-0.15628 h 0.0727 c 0.0864,0 0.15628,0.0699 0.15628,0.15628"
       style="fill:#3b5972;fill-opacity:1;fill-rule:nonzero;stroke:none;stroke-width:0.0352778"
       id="path392" />
    <path
       d="m 86.618316,39.312571 c 0,0.0861 -0.0702,0.15628 -0.15628,0.15628 h -0.073 c -0.0861,0 -0.15629,-0.0702 -0.15629,-0.15628 0,-0.0864 0.0702,-0.15628 0.15629,-0.15628 h 0.073 c 0.0861,0 0.15628,0.0699 0.15628,0.15628"
       style="fill:#254254;fill-opacity:1;fill-rule:nonzero;stroke:none;stroke-width:0.0352778"
       id="path394" />
    <path
       d="m 94.550176,39.301991 h 0.30197 l 0.23954,-0.30198 -1.34055,0.0681 0.79904,0.23389"
       style="fill:#254254;fill-opacity:1;fill-rule:nonzero;stroke:none;stroke-width:0.0352778"
       id="path396" />
    <path
       d="m 95.681176,38.889241 c -0.65969,0.0198 -3.36514,0.0988 -4.90255,0.0988 l -2.32551,-0.10337 0.005,-0.0579 c -0.0645,-0.061 -0.13934,-0.16193 -0.19614,-0.26706 l -0.42757,-0.84066 0.01,0.0589 0.40146,0.95955 c 0.0462,0.10513 0.11112,0.20638 0.16933,0.26741 l -0.01,0.0575 2.31493,0.10337 c 1.75966,0 5.06095,-0.10337 5.06095,-0.10337 0,-0.0624 -0.0346,-0.11959 -0.0991,-0.17321"
       style="fill:#254254;fill-opacity:1;fill-rule:nonzero;stroke:none;stroke-width:0.0352778"
       id="path398" />
    <path
       d="m 95.780306,38.974261 c 0,-0.30198 -0.79057,-0.47978 -2.01612,-0.7172 -0.80786,-0.15628 -1.86302,-0.002 -2.67053,0.12136 -0.1711,0.0261 -1.74766,0.22119 -1.99108,0.22119 l -0.75353,-0.85302 c -0.0406,-0.0459 -0.0942,-0.0801 -0.12312,-0.0801 h -0.35948 c -0.0289,0 -0.037,0.0342 -0.0173,0.0801 l 0.39582,0.90276 c 0.0462,0.10513 0.11112,0.20602 0.16933,0.26705 l -0.01,0.0579 2.31493,0.10336 c 1.75966,0 5.06095,-0.10336 5.06095,-0.10336"
       style="fill:#3b5972;fill-opacity:1;fill-rule:nonzero;stroke:none;stroke-width:0.0352778"
       id="path400" />
    <path
       d="m 93.310516,39.219441 c 0,0.0328 -0.0268,0.0593 -0.0596,0.0593 h -3.54472 c -0.0328,0 -0.0593,-0.0265 -0.0593,-0.0593 0,-0.0328 0.0265,-0.0593 0.0593,-0.0593 0,0 1.84397,-0.56621 2.3929,-0.5468 l 1.15182,0.5468 c 0.0328,0 0.0596,0.0265 0.0596,0.0593"
       style="fill:#466480;fill-opacity:1;fill-rule:nonzero;stroke:none;stroke-width:0.0352778"
       id="path402" />
    <path
       d="m 93.310516,39.219441 c 0,0.0328 -0.0268,0.0593 -0.0596,0.0593 h -3.54472 c -0.0328,0 -0.0593,-0.0265 -0.0593,-0.0593 0,-0.0328 0.0265,-0.0593 0.0593,-0.0593 h 3.54472 c 0.0328,0 0.0596,0.0265 0.0596,0.0593"
       style="fill:#254254;fill-opacity:1;fill-rule:nonzero;stroke:none;stroke-width:0.0352778"
       id="path404" />
    <path
       d="m 93.207856,38.211911 0.31291,0.37994 c 0.0741,0.0903 0.19897,0.15945 0.28258,0.15945 h 1.80763 c -0.29422,-0.18027 -0.95532,-0.32173 -1.84679,-0.49424 -0.14005,-0.0272 -0.33126,-0.0413 -0.55633,-0.0451"
       style="fill:#254254;fill-opacity:1;fill-rule:nonzero;stroke:none;stroke-width:0.0352778"
       id="path406" />
    <path
       d="m 91.551916,39.312571 c 0,0.0861 -0.0699,0.15628 -0.15628,0.15628 h -0.0727 c -0.0864,0 -0.15628,-0.0702 -0.15628,-0.15628 0,-0.0864 0.0699,-0.15628 0.15628,-0.15628 h 0.0727 c 0.0864,0 0.15628,0.0699 0.15628,0.15628"
       style="fill:#3b5972;fill-opacity:1;fill-rule:nonzero;stroke:none;stroke-width:0.0352778"
       id="path408" />
    <path
       d="m 91.364586,39.312571 c 0,0.0861 -0.0699,0.15628 -0.15628,0.15628 h -0.073 c -0.0861,0 -0.15593,-0.0702 -0.15593,-0.15628 0,-0.0864 0.0699,-0.15628 0.15593,-0.15628 h 0.073 c 0.0864,0 0.15628,0.0699 0.15628,0.15628"
       style="fill:#254254;fill-opacity:1;fill-rule:nonzero;stroke:none;stroke-width:0.0352778"
       id="path410" />
    <path
       d="m 94.966806,39.312571 c 0,0.0861 -0.0699,0.15628 -0.15628,0.15628 h -0.073 c -0.0861,0 -0.15593,-0.0702 -0.15593,-0.15628 0,-0.0864 0.0699,-0.15628 0.15593,-0.15628 h 0.073 c 0.0864,0 0.15628,0.0699 0.15628,0.15628"
       style="fill:#3b5972;fill-opacity:1;fill-rule:nonzero;stroke:none;stroke-width:0.0352778"
       id="path412" />
    <path
       d="m 94.779126,39.312571 c 0,0.0861 -0.0699,0.15628 -0.15593,0.15628 h -0.073 c -0.0864,0 -0.15628,-0.0702 -0.15628,-0.15628 0,-0.0864 0.0698,-0.15628 0.15628,-0.15628 h 0.073 c 0.0861,0 0.15593,0.0699 0.15593,0.15628"
       style="fill:#254254;fill-opacity:1;fill-rule:nonzero;stroke:none;stroke-width:0.0352778"
       id="path414" />
    <path
       d="m 102.71134,39.301991 h 0.30198 l 0.23953,-0.30198 -1.34055,0.0681 0.79904,0.23389"
       style="fill:#254254;fill-opacity:1;fill-rule:nonzero;stroke:none;stroke-width:0.0352778"
       id="path416" />
    <path
       d="m 103.84199,38.889241 c -0.65934,0.0198 -3.36479,0.0988 -4.902204,0.0988 l -2.32551,-0.10337 0.004,-0.0579 c -0.0642,-0.061 -0.13934,-0.16193 -0.19579,-0.26706 l -0.42757,-0.84066 0.009,0.0589 0.40181,0.95955 c 0.0462,0.10513 0.11113,0.20638 0.16933,0.26741 l -0.0102,0.0575 2.31528,0.10337 c 1.759664,0 5.060954,-0.10337 5.060954,-0.10337 0,-0.0624 -0.0346,-0.11959 -0.0995,-0.17321"
       style="fill:#254254;fill-opacity:1;fill-rule:nonzero;stroke:none;stroke-width:0.0352778"
       id="path418" />
    <path
       d="m 103.94147,38.974261 c 0,-0.30198 -0.79092,-0.47978 -2.01647,-0.7172 -0.80751,-0.15628 -1.86267,-0.002 -2.670184,0.12136 -0.17145,0.0261 -1.74766,0.22119 -1.99108,0.22119 l -0.75388,-0.85302 c -0.0402,-0.0459 -0.0942,-0.0801 -0.12312,-0.0801 h -0.35913 c -0.0289,0 -0.0374,0.0342 -0.0173,0.0801 l 0.39582,0.90276 c 0.0462,0.10513 0.11113,0.20602 0.16933,0.26705 l -0.0102,0.0579 2.31528,0.10336 c 1.759664,0 5.060954,-0.10336 5.060954,-0.10336"
       style="fill:#3b5972;fill-opacity:1;fill-rule:nonzero;stroke:none;stroke-width:0.0352778"
       id="path420" />
    <path
       d="m 101.47132,39.219441 c 0,0.0328 -0.0265,0.0593 -0.0593,0.0593 h -3.544714 c -0.0328,0 -0.0596,-0.0265 -0.0596,-0.0593 0,-0.0328 0.0268,-0.0593 0.0596,-0.0593 0,0 1.84397,-0.56621 2.392894,-0.5468 l 1.15182,0.5468 c 0.0328,0 0.0593,0.0265 0.0593,0.0593"
       style="fill:#466480;fill-opacity:1;fill-rule:nonzero;stroke:none;stroke-width:0.0352778"
       id="path422" />
    <path
       d="m 101.47132,39.219441 c 0,0.0328 -0.0265,0.0593 -0.0593,0.0593 h -3.544714 c -0.0328,0 -0.0596,-0.0265 -0.0596,-0.0593 0,-0.0328 0.0268,-0.0593 0.0596,-0.0593 h 3.544714 c 0.0328,0 0.0593,0.0265 0.0593,0.0593"
       style="fill:#254254;fill-opacity:1;fill-rule:nonzero;stroke:none;stroke-width:0.0352778"
       id="path424" />
    <path
       d="m 101.36867,38.211911 0.31326,0.37994 c 0.0741,0.0903 0.19897,0.15945 0.28223,0.15945 h 1.80798 c -0.29457,-0.18027 -0.95532,-0.32173 -1.84714,-0.49424 -0.1397,-0.0272 -0.33126,-0.0413 -0.55633,-0.0451"
       style="fill:#254254;fill-opacity:1;fill-rule:nonzero;stroke:none;stroke-width:0.0352778"
       id="path426" />
    <path
       d="m 99.713076,39.312571 c 0,0.0861 -0.0699,0.15628 -0.15628,0.15628 h -0.073 c -0.0861,0 -0.15592,-0.0702 -0.15592,-0.15628 0,-0.0864 0.0699,-0.15628 0.15592,-0.15628 h 0.073 c 0.0864,0 0.15628,0.0699 0.15628,0.15628"
       style="fill:#3b5972;fill-opacity:1;fill-rule:nonzero;stroke:none;stroke-width:0.0352778"
       id="path428" />
    <path
       d="m 99.525746,39.312571 c 0,0.0861 -0.0702,0.15628 -0.15628,0.15628 h -0.073 c -0.0861,0 -0.15628,-0.0702 -0.15628,-0.15628 0,-0.0864 0.0702,-0.15628 0.15628,-0.15628 h 0.073 c 0.0861,0 0.15628,0.0699 0.15628,0.15628"
       style="fill:#254254;fill-opacity:1;fill-rule:nonzero;stroke:none;stroke-width:0.0352778"
       id="path430" />
    <path
       d="m 103.12797,39.312571 c 0,0.0861 -0.0702,0.15628 -0.15628,0.15628 h -0.073 c -0.0861,0 -0.15628,-0.0702 -0.15628,-0.15628 0,-0.0864 0.0702,-0.15628 0.15628,-0.15628 h 0.073 c 0.0861,0 0.15628,0.0699 0.15628,0.15628"
       style="fill:#3b5972;fill-opacity:1;fill-rule:nonzero;stroke:none;stroke-width:0.0352778"
       id="path432" />
    <path
       d="m 102.94029,39.312571 c 0,0.0861 -0.0698,0.15628 -0.15628,0.15628 h -0.0727 c -0.0864,0 -0.15628,-0.0702 -0.15628,-0.15628 0,-0.0864 0.0699,-0.15628 0.15628,-0.15628 h 0.0727 c 0.0864,0 0.15628,0.0699 0.15628,0.15628"
       style="fill:#254254;fill-opacity:1;fill-rule:nonzero;stroke:none;stroke-width:0.0352778"
       id="path434" />
    <path
       d="m 110.8725,39.301991 h 0.30198 l 0.23953,-0.30198 -1.34055,0.0681 0.79904,0.23389"
       style="fill:#254254;fill-opacity:1;fill-rule:nonzero;stroke:none;stroke-width:0.0352778"
       id="path436" />
    <path
       d="m 112.00315,38.889241 c -0.65969,0.0198 -3.36514,0.0988 -4.9022,0.0988 l -2.32551,-0.10337 0.004,-0.0579 c -0.0642,-0.061 -0.13934,-0.16193 -0.19579,-0.26706 l -0.42756,-0.84066 0.009,0.0589 0.40181,0.95955 c 0.0459,0.10513 0.11113,0.20638 0.16934,0.26741 l -0.0102,0.0575 2.31528,0.10337 c 1.75965,0 5.06095,-0.10337 5.06095,-0.10337 0,-0.0624 -0.0346,-0.11959 -0.0995,-0.17321"
       style="fill:#254254;fill-opacity:1;fill-rule:nonzero;stroke:none;stroke-width:0.0352778"
       id="path438" />
    <path
       d="m 112.10264,38.974261 c 0,-0.30198 -0.79093,-0.47978 -2.01648,-0.7172 -0.80751,-0.15628 -1.86267,-0.002 -2.67018,0.12136 -0.17145,0.0261 -1.74801,0.22119 -1.99143,0.22119 l -0.75353,-0.85302 c -0.0402,-0.0459 -0.0942,-0.0801 -0.12312,-0.0801 h -0.35913 c -0.0289,0 -0.0374,0.0342 -0.0173,0.0801 l 0.39581,0.90276 c 0.0459,0.10513 0.11113,0.20602 0.16934,0.26705 l -0.0102,0.0579 2.31528,0.10336 c 1.75965,0 5.06095,-0.10336 5.06095,-0.10336"
       style="fill:#3b5972;fill-opacity:1;fill-rule:nonzero;stroke:none;stroke-width:0.0352778"
       id="path440" />
    <path
       d="m 109.63249,39.219441 c 0,0.0328 -0.0265,0.0593 -0.0593,0.0593 h -3.54506 c -0.0328,0 -0.0593,-0.0265 -0.0593,-0.0593 0,-0.0328 0.0265,-0.0593 0.0593,-0.0593 0,0 1.84396,-0.56621 2.39289,-0.5468 l 1.15217,0.5468 c 0.0328,0 0.0593,0.0265 0.0593,0.0593"
       style="fill:#466480;fill-opacity:1;fill-rule:nonzero;stroke:none;stroke-width:0.0352778"
       id="path442" />
    <path
       d="m 109.63249,39.219441 c 0,0.0328 -0.0265,0.0593 -0.0593,0.0593 h -3.54506 c -0.0328,0 -0.0593,-0.0265 -0.0593,-0.0593 0,-0.0328 0.0265,-0.0593 0.0593,-0.0593 h 3.54506 c 0.0328,0 0.0593,0.0265 0.0593,0.0593"
       style="fill:#254254;fill-opacity:1;fill-rule:nonzero;stroke:none;stroke-width:0.0352778"
       id="path444" />
    <path
       d="m 109.52983,38.211911 0.31291,0.37994 c 0.0744,0.0903 0.19897,0.15945 0.28258,0.15945 h 1.80763 c -0.29422,-0.18027 -0.95532,-0.32173 -1.84679,-0.49424 -0.1397,-0.0272 -0.33126,-0.0413 -0.55633,-0.0451"
       style="fill:#254254;fill-opacity:1;fill-rule:nonzero;stroke:none;stroke-width:0.0352778"
       id="path446" />
    <path
       d="m 107.87424,39.312571 c 0,0.0861 -0.0702,0.15628 -0.15628,0.15628 h -0.073 c -0.0861,0 -0.15628,-0.0702 -0.15628,-0.15628 0,-0.0864 0.0702,-0.15628 0.15628,-0.15628 h 0.073 c 0.0861,0 0.15628,0.0699 0.15628,0.15628"
       style="fill:#3b5972;fill-opacity:1;fill-rule:nonzero;stroke:none;stroke-width:0.0352778"
       id="path448" />
    <path
       d="m 107.68656,39.312571 c 0,0.0861 -0.0699,0.15628 -0.15592,0.15628 h -0.073 c -0.0864,0 -0.15628,-0.0702 -0.15628,-0.15628 0,-0.0864 0.0699,-0.15628 0.15628,-0.15628 h 0.073 c 0.0861,0 0.15592,0.0699 0.15592,0.15628"
       style="fill:#254254;fill-opacity:1;fill-rule:nonzero;stroke:none;stroke-width:0.0352778"
       id="path450" />
    <path
       d="m 111.28878,39.312571 c 0,0.0861 -0.0698,0.15628 -0.15593,0.15628 h -0.073 c -0.0864,0 -0.15629,-0.0702 -0.15629,-0.15628 0,-0.0864 0.0699,-0.15628 0.15629,-0.15628 h 0.073 c 0.0861,0 0.15593,0.0699 0.15593,0.15628"
       style="fill:#3b5972;fill-opacity:1;fill-rule:nonzero;stroke:none;stroke-width:0.0352778"
       id="path452" />
    <path
       d="m 111.10145,39.312571 c 0,0.0861 -0.0699,0.15628 -0.15628,0.15628 h -0.0727 c -0.0864,0 -0.15628,-0.0702 -0.15628,-0.15628 0,-0.0864 0.0699,-0.15628 0.15628,-0.15628 h 0.0727 c 0.0864,0 0.15628,0.0699 0.15628,0.15628"
       style="fill:#254254;fill-opacity:1;fill-rule:nonzero;stroke:none;stroke-width:0.0352778"
       id="path454" />
    <path
       d="m 127.19447,39.301991 h 0.30198 l 0.23953,-0.30198 -1.34055,0.0681 0.79904,0.23389"
       style="fill:#254254;fill-opacity:1;fill-rule:nonzero;stroke:none;stroke-width:0.0352778"
       id="path456" />
    <path
       d="m 128.32548,38.889241 c -0.6597,0.0198 -3.36515,0.0988 -4.9022,0.0988 l -2.32587,-0.10337 0.005,-0.0579 c -0.0646,-0.061 -0.13935,-0.16193 -0.19615,-0.26706 l -0.42756,-0.84066 0.01,0.0589 0.40146,0.95955 c 0.0462,0.10513 0.11113,0.20638 0.16934,0.26741 l -0.01,0.0575 2.31493,0.10337 c 1.75965,0 5.06095,-0.10337 5.06095,-0.10337 0,-0.0624 -0.0346,-0.11959 -0.0991,-0.17321"
       style="fill:#254254;fill-opacity:1;fill-rule:nonzero;stroke:none;stroke-width:0.0352778"
       id="path458" />
    <path
       d="m 128.42461,38.974261 c 0,-0.30198 -0.79058,-0.47978 -2.01613,-0.7172 -0.80786,-0.15628 -1.86302,-0.002 -2.67053,0.12136 -0.17109,0.0261 -1.74766,0.22119 -1.99107,0.22119 l -0.75354,-0.85302 c -0.0406,-0.0459 -0.0942,-0.0801 -0.12312,-0.0801 h -0.35948 c -0.0289,0 -0.037,0.0342 -0.0169,0.0801 l 0.39546,0.90276 c 0.0462,0.10513 0.11113,0.20602 0.16934,0.26705 l -0.01,0.0579 2.31493,0.10336 c 1.75965,0 5.06095,-0.10336 5.06095,-0.10336"
       style="fill:#3b5972;fill-opacity:1;fill-rule:nonzero;stroke:none;stroke-width:0.0352778"
       id="path460" />
    <path
       d="m 125.95481,39.219441 c 0,0.0328 -0.0268,0.0593 -0.0593,0.0593 h -3.54506 c -0.0328,0 -0.0593,-0.0265 -0.0593,-0.0593 0,-0.0328 0.0265,-0.0593 0.0593,-0.0593 0,0 1.84397,-0.56621 2.39289,-0.5468 l 1.15217,0.5468 c 0.0325,0 0.0593,0.0265 0.0593,0.0593"
       style="fill:#466480;fill-opacity:1;fill-rule:nonzero;stroke:none;stroke-width:0.0352778"
       id="path462" />
    <path
       d="m 125.95481,39.219441 c 0,0.0328 -0.0268,0.0593 -0.0593,0.0593 h -3.54506 c -0.0328,0 -0.0593,-0.0265 -0.0593,-0.0593 0,-0.0328 0.0265,-0.0593 0.0593,-0.0593 h 3.54506 c 0.0325,0 0.0593,0.0265 0.0593,0.0593"
       style="fill:#254254;fill-opacity:1;fill-rule:nonzero;stroke:none;stroke-width:0.0352778"
       id="path464" />
    <path
       d="m 125.85215,38.211911 0.31291,0.37994 c 0.0741,0.0903 0.19897,0.15945 0.28258,0.15945 h 1.80763 c -0.29421,-0.18027 -0.95532,-0.32173 -1.84679,-0.49424 -0.14005,-0.0272 -0.33126,-0.0413 -0.55633,-0.0451"
       style="fill:#254254;fill-opacity:1;fill-rule:nonzero;stroke:none;stroke-width:0.0352778"
       id="path466" />
    <path
       d="m 124.19621,39.312571 c 0,0.0861 -0.0699,0.15628 -0.15628,0.15628 h -0.0727 c -0.0864,0 -0.15628,-0.0702 -0.15628,-0.15628 0,-0.0864 0.0698,-0.15628 0.15628,-0.15628 h 0.0727 c 0.0864,0 0.15628,0.0699 0.15628,0.15628"
       style="fill:#3b5972;fill-opacity:1;fill-rule:nonzero;stroke:none;stroke-width:0.0352778"
       id="path468" />
    <path
       d="m 124.00889,39.312571 c 0,0.0861 -0.0699,0.15628 -0.15628,0.15628 h -0.073 c -0.0861,0 -0.15593,-0.0702 -0.15593,-0.15628 0,-0.0864 0.0699,-0.15628 0.15593,-0.15628 h 0.073 c 0.0864,0 0.15628,0.0699 0.15628,0.15628"
       style="fill:#254254;fill-opacity:1;fill-rule:nonzero;stroke:none;stroke-width:0.0352778"
       id="path470" />
    <path
       d="m 127.6111,39.312571 c 0,0.0861 -0.0699,0.15628 -0.15628,0.15628 h -0.073 c -0.0861,0 -0.15593,-0.0702 -0.15593,-0.15628 0,-0.0864 0.0699,-0.15628 0.15593,-0.15628 h 0.073 c 0.0864,0 0.15628,0.0699 0.15628,0.15628"
       style="fill:#3b5972;fill-opacity:1;fill-rule:nonzero;stroke:none;stroke-width:0.0352778"
       id="path472" />
    <path
       d="m 127.42378,39.312571 c 0,0.0861 -0.0702,0.15628 -0.15628,0.15628 h -0.073 c -0.0861,0 -0.15628,-0.0702 -0.15628,-0.15628 0,-0.0864 0.0702,-0.15628 0.15628,-0.15628 h 0.073 c 0.0861,0 0.15628,0.0699 0.15628,0.15628"
       style="fill:#254254;fill-opacity:1;fill-rule:nonzero;stroke:none;stroke-width:0.0352778"
       id="path474" />
    <path
       d="m 135.35563,39.301991 h 0.30198 l 0.23954,-0.30198 -1.34056,0.0681 0.79904,0.23389"
       style="fill:#254254;fill-opacity:1;fill-rule:nonzero;stroke:none;stroke-width:0.0352778"
       id="path476" />
    <path
       d="m 136.48629,38.889241 c -0.65935,0.0198 -3.3648,0.0988 -4.90221,0.0988 l -2.32551,-0.10337 0.004,-0.0579 c -0.0642,-0.061 -0.13935,-0.16193 -0.19579,-0.26706 l -0.42757,-0.84066 0.009,0.0589 0.40181,0.95955 c 0.0462,0.10513 0.11113,0.20638 0.16934,0.26741 l -0.0102,0.0575 2.31528,0.10337 c 1.75965,0 5.06095,-0.10337 5.06095,-0.10337 0,-0.0624 -0.0346,-0.11959 -0.0995,-0.17321"
       style="fill:#254254;fill-opacity:1;fill-rule:nonzero;stroke:none;stroke-width:0.0352778"
       id="path478" />
    <path
       d="m 136.58577,38.974261 c 0,-0.30198 -0.79093,-0.47978 -2.01648,-0.7172 -0.80751,-0.15628 -1.86267,-0.002 -2.67017,0.12136 -0.1711,0.0261 -1.74767,0.22119 -1.99108,0.22119 l -0.75389,-0.85302 c -0.0402,-0.0459 -0.0942,-0.0801 -0.12277,-0.0801 h -0.35948 c -0.0289,0 -0.0374,0.0342 -0.0173,0.0801 l 0.39581,0.90276 c 0.0462,0.10513 0.11113,0.20602 0.16934,0.26705 l -0.0102,0.0579 2.31528,0.10336 c 1.75965,0 5.06095,-0.10336 5.06095,-0.10336"
       style="fill:#3b5972;fill-opacity:1;fill-rule:nonzero;stroke:none;stroke-width:0.0352778"
       id="path480" />
    <path
       d="m 134.11562,39.219441 c 0,0.0328 -0.0265,0.0593 -0.0593,0.0593 h -3.54471 c -0.0328,0 -0.0596,-0.0265 -0.0596,-0.0593 0,-0.0328 0.0268,-0.0593 0.0596,-0.0593 0,0 1.84397,-0.56621 2.39289,-0.5468 l 1.15182,0.5468 c 0.0328,0 0.0593,0.0265 0.0593,0.0593"
       style="fill:#466480;fill-opacity:1;fill-rule:nonzero;stroke:none;stroke-width:0.0352778"
       id="path482" />
    <path
       d="m 134.11562,39.219441 c 0,0.0328 -0.0265,0.0593 -0.0593,0.0593 h -3.54471 c -0.0328,0 -0.0596,-0.0265 -0.0596,-0.0593 0,-0.0328 0.0268,-0.0593 0.0596,-0.0593 h 3.54471 c 0.0328,0 0.0593,0.0265 0.0593,0.0593"
       style="fill:#254254;fill-opacity:1;fill-rule:nonzero;stroke:none;stroke-width:0.0352778"
       id="path484" />
    <path
       d="m 134.01296,38.211911 0.31327,0.37994 c 0.0741,0.0903 0.19896,0.15945 0.28222,0.15945 h 1.80799 c -0.29422,-0.18027 -0.95533,-0.32173 -1.84715,-0.49424 -0.1397,-0.0272 -0.33126,-0.0413 -0.55633,-0.0451"
       style="fill:#254254;fill-opacity:1;fill-rule:nonzero;stroke:none;stroke-width:0.0352778"
       id="path486" />
    <path
       d="m 132.35737,39.312571 c 0,0.0861 -0.0698,0.15628 -0.15628,0.15628 h -0.0727 c -0.0864,0 -0.15628,-0.0702 -0.15628,-0.15628 0,-0.0864 0.0699,-0.15628 0.15628,-0.15628 h 0.0727 c 0.0864,0 0.15628,0.0699 0.15628,0.15628"
       style="fill:#3b5972;fill-opacity:1;fill-rule:nonzero;stroke:none;stroke-width:0.0352778"
       id="path488" />
    <path
       d="m 132.17005,39.312571 c 0,0.0861 -0.0702,0.15628 -0.15628,0.15628 h -0.073 c -0.0861,0 -0.15628,-0.0702 -0.15628,-0.15628 0,-0.0864 0.0702,-0.15628 0.15628,-0.15628 h 0.073 c 0.0861,0 0.15628,0.0699 0.15628,0.15628"
       style="fill:#254254;fill-opacity:1;fill-rule:nonzero;stroke:none;stroke-width:0.0352778"
       id="path490" />
    <path
       d="m 135.77226,39.312571 c 0,0.0861 -0.0702,0.15628 -0.15628,0.15628 h -0.073 c -0.0861,0 -0.15628,-0.0702 -0.15628,-0.15628 0,-0.0864 0.0702,-0.15628 0.15628,-0.15628 h 0.073 c 0.0861,0 0.15628,0.0699 0.15628,0.15628"
       style="fill:#3b5972;fill-opacity:1;fill-rule:nonzero;stroke:none;stroke-width:0.0352778"
       id="path492" />
    <path
       d="m 135.58459,39.312571 c 0,0.0861 -0.0699,0.15628 -0.15629,0.15628 h -0.0727 c -0.0864,0 -0.15628,-0.0702 -0.15628,-0.15628 0,-0.0864 0.0699,-0.15628 0.15628,-0.15628 h 0.0727 c 0.0864,0 0.15629,0.0699 0.15629,0.15628"
       style="fill:#254254;fill-opacity:1;fill-rule:nonzero;stroke:none;stroke-width:0.0352778"
       id="path494" />
    <path
       d="m 151.6776,39.301991 h 0.30198 l 0.23954,-0.30198 -1.34021,0.0681 0.79869,0.23389"
       style="fill:#254254;fill-opacity:1;fill-rule:nonzero;stroke:none;stroke-width:0.0352778"
       id="path496" />
    <path
       d="m 152.80861,38.889241 c -0.6597,0.0198 -3.36515,0.0988 -4.9022,0.0988 l -2.32551,-0.10337 0.004,-0.0579 c -0.0642,-0.061 -0.13935,-0.16193 -0.19579,-0.26706 l -0.42757,-0.84066 0.009,0.0589 0.40182,0.95955 c 0.0459,0.10513 0.11077,0.20638 0.16898,0.26741 l -0.01,0.0575 2.31528,0.10337 c 1.75966,0 5.0606,-0.10337 5.0606,-0.10337 0,-0.0624 -0.0342,-0.11959 -0.0991,-0.17321"
       style="fill:#254254;fill-opacity:1;fill-rule:nonzero;stroke:none;stroke-width:0.0352778"
       id="path498" />
    <path
       d="m 152.90774,38.974261 c 0,-0.30198 -0.79058,-0.47978 -2.01613,-0.7172 -0.80786,-0.15628 -1.86302,-0.002 -2.67017,0.12136 -0.17145,0.0261 -1.74802,0.22119 -1.99143,0.22119 l -0.75354,-0.85302 c -0.0402,-0.0459 -0.0942,-0.0801 -0.12311,-0.0801 h -0.35913 c -0.0289,0 -0.0374,0.0342 -0.0173,0.0801 l 0.39582,0.90276 c 0.0459,0.10513 0.11077,0.20602 0.16898,0.26705 l -0.01,0.0579 2.31528,0.10336 c 1.75966,0 5.0606,-0.10336 5.0606,-0.10336"
       style="fill:#3b5972;fill-opacity:1;fill-rule:nonzero;stroke:none;stroke-width:0.0352778"
       id="path500" />
    <path
       d="m 150.43794,39.219441 c 0,0.0328 -0.0265,0.0593 -0.0593,0.0593 h -3.54506 c -0.0328,0 -0.0593,-0.0265 -0.0593,-0.0593 0,-0.0328 0.0265,-0.0593 0.0593,-0.0593 0,0 1.84397,-0.56621 2.39289,-0.5468 l 1.15217,0.5468 c 0.0328,0 0.0593,0.0265 0.0593,0.0593"
       style="fill:#466480;fill-opacity:1;fill-rule:nonzero;stroke:none;stroke-width:0.0352778"
       id="path502" />
    <path
       d="m 150.43794,39.219441 c 0,0.0328 -0.0265,0.0593 -0.0593,0.0593 h -3.54506 c -0.0328,0 -0.0593,-0.0265 -0.0593,-0.0593 0,-0.0328 0.0265,-0.0593 0.0593,-0.0593 h 3.54506 c 0.0328,0 0.0593,0.0265 0.0593,0.0593"
       style="fill:#254254;fill-opacity:1;fill-rule:nonzero;stroke:none;stroke-width:0.0352778"
       id="path504" />
    <path
       d="m 150.33528,38.211911 0.31292,0.37994 c 0.0744,0.0903 0.19896,0.15945 0.28257,0.15945 h 1.80764 c -0.29422,-0.18027 -0.95533,-0.32173 -1.8468,-0.49424 -0.1397,-0.0272 -0.33125,-0.0413 -0.55633,-0.0451"
       style="fill:#254254;fill-opacity:1;fill-rule:nonzero;stroke:none;stroke-width:0.0352778"
       id="path506" />
    <path
       d="m 148.6797,39.312571 c 0,0.0861 -0.0702,0.15628 -0.15628,0.15628 h -0.073 c -0.0861,0 -0.15628,-0.0702 -0.15628,-0.15628 0,-0.0864 0.0702,-0.15628 0.15628,-0.15628 h 0.073 c 0.0861,0 0.15628,0.0699 0.15628,0.15628"
       style="fill:#3b5972;fill-opacity:1;fill-rule:nonzero;stroke:none;stroke-width:0.0352778"
       id="path508" />
    <path
       d="m 148.49202,39.312571 c 0,0.0861 -0.0699,0.15628 -0.15628,0.15628 h -0.0727 c -0.0864,0 -0.15628,-0.0702 -0.15628,-0.15628 0,-0.0864 0.0699,-0.15628 0.15628,-0.15628 h 0.0727 c 0.0864,0 0.15628,0.0699 0.15628,0.15628"
       style="fill:#254254;fill-opacity:1;fill-rule:nonzero;stroke:none;stroke-width:0.0352778"
       id="path510" />
    <path
       d="m 152.09423,39.312571 c 0,0.0861 -0.0699,0.15628 -0.15628,0.15628 h -0.0727 c -0.0864,0 -0.15628,-0.0702 -0.15628,-0.15628 0,-0.0864 0.0699,-0.15628 0.15628,-0.15628 h 0.0727 c 0.0864,0 0.15628,0.0699 0.15628,0.15628"
       style="fill:#3b5972;fill-opacity:1;fill-rule:nonzero;stroke:none;stroke-width:0.0352778"
       id="path512" />
    <path
       d="m 151.90691,39.312571 c 0,0.0861 -0.0699,0.15628 -0.15628,0.15628 h -0.073 c -0.0861,0 -0.15593,-0.0702 -0.15593,-0.15628 0,-0.0864 0.0698,-0.15628 0.15593,-0.15628 h 0.073 c 0.0864,0 0.15628,0.0699 0.15628,0.15628"
       style="fill:#254254;fill-opacity:1;fill-rule:nonzero;stroke:none;stroke-width:0.0352778"
       id="path514" />
    <path
       d="m 32.739206,38.825741 h -0.19995 v -0.41663 h 0.0666 l 0.1334,0.41663"
       style="fill:#3b5972;fill-opacity:1;fill-rule:nonzero;stroke:none;stroke-width:0.0352778"
       id="path516" />
    <path
       d="m 38.237596,38.825741 h 0.19992 v -0.41663 h -0.0667 l -0.13324,0.41663"
       style="fill:#3b5972;fill-opacity:1;fill-rule:nonzero;stroke:none;stroke-width:0.0352778"
       id="path518" />
    <path
       d="m 35.606226,39.392301 c 0,0.0448 -0.0361,0.0808 -0.0806,0.0808 -0.0447,0 -0.0808,-0.036 -0.0808,-0.0808 v -0.22154 c 0,-0.0448 0.0361,-0.0808 0.0808,-0.0808 0.0445,0 0.0806,0.036 0.0806,0.0808 v 0.22154"
       style="fill:#254254;fill-opacity:1;fill-rule:nonzero;stroke:none;stroke-width:0.0352778"
       id="path520" />
    <path
       d="m 33.508716,39.392301 c 0,0.0448 -0.0361,0.0808 -0.0806,0.0808 -0.0446,0 -0.0807,-0.036 -0.0807,-0.0808 v -0.22154 c 0,-0.0448 0.0361,-0.0808 0.0807,-0.0808 0.0445,0 0.0806,0.036 0.0806,0.0808 v 0.22154"
       style="fill:#254254;fill-opacity:1;fill-rule:nonzero;stroke:none;stroke-width:0.0352778"
       id="path522" />
    <path
       d="m 35.718376,38.635941 c -0.0672,-0.52563 -0.13847,-0.76094 -0.19664,-0.76094 -0.0583,0 -0.12954,0.23531 -0.19678,0.76094 h 0.39342"
       style="fill:#254254;fill-opacity:1;fill-rule:nonzero;stroke:none;stroke-width:0.0352778"
       id="path524" />
    <path
       d="m 32.510306,38.817631 0.0404,-0.0402 h 5.91935 l 0.0404,0.0402 -0.0404,0.0402 c 0,0 -2.22331,0.36301 -2.96457,0.36301 -0.73861,0 -2.95478,-0.36301 -2.95478,-0.36301 l -0.0404,-0.0402"
       style="fill:#254254;fill-opacity:1;fill-rule:nonzero;stroke:none;stroke-width:0.0352778"
       id="path526" />
    <path
       d="m 36.571386,39.119961 c -0.0798,-0.43039 -0.51717,-0.76059 -1.04965,-0.76059 -0.53249,0 -0.97,0.3302 -1.0498,0.76059 h 2.09945"
       style="fill:#3b5972;fill-opacity:1;fill-rule:nonzero;stroke:none;stroke-width:0.0352778"
       id="path528" />
    <path
       d="m 32.510306,38.817631 0.0404,-0.0402 h 5.91935 l 0.0404,0.0402 -0.0404,0.0402 h -5.91935 l -0.0404,-0.0402"
       style="fill:#254254;fill-opacity:1;fill-rule:nonzero;stroke:none;stroke-width:0.0352778"
       id="path530" />
    <path
       d="m 36.571386,39.119961 c -0.0798,-0.43039 -0.51717,-0.76059 -1.04965,-0.76059 -0.53249,0 -0.97,0.3302 -1.0498,0.76059 0,0 0.78631,0.18203 1.05368,0.18168 0.26539,0 1.04577,-0.18168 1.04577,-0.18168"
       style="fill:#3b5972;fill-opacity:1;fill-rule:nonzero;stroke:none;stroke-width:0.0352778"
       id="path532" />
    <path
       d="m 36.138816,38.590081 c -0.17403,-0.115 -0.38541,-0.18591 -0.61708,-0.18591 -0.23178,0 -0.44302,0.0709 -0.61722,0.18591 0.13987,0.2406 0.36255,0.39864 0.61722,0.39864 0.25453,0 0.4772,-0.15804 0.61708,-0.39864"
       style="fill:#254254;fill-opacity:1;fill-rule:nonzero;stroke:none;stroke-width:0.0352778"
       id="path534" />
    <path
       d="m 33.539016,39.331981 h -0.0707 v -0.41346 h 0.0707 v 0.41346"
       style="fill:#254254;fill-opacity:1;fill-rule:nonzero;stroke:none;stroke-width:0.0352778"
       id="path536" />
    <path
       d="m 37.532286,39.392301 c 0,0.0448 0.0361,0.0808 0.0806,0.0808 0.0447,0 0.0808,-0.036 0.0808,-0.0808 v -0.22154 c 0,-0.0448 -0.0361,-0.0808 -0.0808,-0.0808 -0.0445,0 -0.0806,0.036 -0.0806,0.0808 v 0.22154"
       style="fill:#254254;fill-opacity:1;fill-rule:nonzero;stroke:none;stroke-width:0.0352778"
       id="path538" />
    <path
       d="m 37.501976,39.331981 h 0.0707 v -0.41346 h -0.0707 v 0.41346"
       style="fill:#254254;fill-opacity:1;fill-rule:nonzero;stroke:none;stroke-width:0.0352778"
       id="path540" />
    <path
       d="m 39.226996,38.825741 h -0.19996 v -0.41663 h 0.0667 l 0.13325,0.41663"
       style="fill:#3b5972;fill-opacity:1;fill-rule:nonzero;stroke:none;stroke-width:0.0352778"
       id="path542" />
    <path
       d="m 44.725386,38.825741 h 0.19996 v -0.41663 h -0.0667 l -0.13325,0.41663"
       style="fill:#3b5972;fill-opacity:1;fill-rule:nonzero;stroke:none;stroke-width:0.0352778"
       id="path544" />
    <path
       d="m 42.094016,39.392301 c 0,0.0448 -0.0361,0.0808 -0.0806,0.0808 -0.0447,0 -0.0807,-0.036 -0.0807,-0.0808 v -0.22154 c 0,-0.0448 0.0361,-0.0808 0.0807,-0.0808 0.0445,0 0.0806,0.036 0.0806,0.0808 v 0.22154"
       style="fill:#254254;fill-opacity:1;fill-rule:nonzero;stroke:none;stroke-width:0.0352778"
       id="path546" />
    <path
       d="m 39.996506,39.392301 c 0,0.0448 -0.0361,0.0808 -0.0806,0.0808 -0.0447,0 -0.0806,-0.036 -0.0806,-0.0808 v -0.22154 c 0,-0.0448 0.036,-0.0808 0.0806,-0.0808 0.0445,0 0.0806,0.036 0.0806,0.0808 v 0.22154"
       style="fill:#254254;fill-opacity:1;fill-rule:nonzero;stroke:none;stroke-width:0.0352778"
       id="path548" />
    <path
       d="m 42.206346,38.635941 c -0.0674,-0.52563 -0.13864,-0.76094 -0.19682,-0.76094 -0.0581,0 -0.1295,0.23531 -0.19678,0.76094 h 0.3936"
       style="fill:#254254;fill-opacity:1;fill-rule:nonzero;stroke:none;stroke-width:0.0352778"
       id="path550" />
    <path
       d="m 38.998256,38.817631 0.0404,-0.0402 h 5.91936 l 0.0402,0.0402 -0.0402,0.0402 c 0,0 -2.22348,0.36301 -2.96474,0.36301 -0.73861,0 -2.95462,-0.36301 -2.95462,-0.36301 l -0.0404,-0.0402"
       style="fill:#254254;fill-opacity:1;fill-rule:nonzero;stroke:none;stroke-width:0.0352778"
       id="path552" />
    <path
       d="m 43.059186,39.119961 c -0.0797,-0.43039 -0.51717,-0.76059 -1.04966,-0.76059 -0.53244,0 -0.97,0.3302 -1.04976,0.76059 h 2.09942"
       style="fill:#3b5972;fill-opacity:1;fill-rule:nonzero;stroke:none;stroke-width:0.0352778"
       id="path554" />
    <path
       d="m 38.998256,38.817631 0.0404,-0.0402 h 5.91936 l 0.0402,0.0402 -0.0402,0.0402 h -5.91936 l -0.0404,-0.0402"
       style="fill:#254254;fill-opacity:1;fill-rule:nonzero;stroke:none;stroke-width:0.0352778"
       id="path556" />
    <path
       d="m 43.059186,39.119961 c -0.0797,-0.43039 -0.51717,-0.76059 -1.04966,-0.76059 -0.53244,0 -0.97,0.3302 -1.04976,0.76059 0,0 0.78631,0.18203 1.05364,0.18168 0.2654,0 1.04578,-0.18168 1.04578,-0.18168"
       style="fill:#3b5972;fill-opacity:1;fill-rule:nonzero;stroke:none;stroke-width:0.0352778"
       id="path558" />
    <path
       d="m 42.626746,38.590081 c -0.17416,-0.115 -0.38541,-0.18591 -0.61722,-0.18591 -0.23177,0 -0.44302,0.0709 -0.61722,0.18591 0.13988,0.2406 0.36259,0.39864 0.61722,0.39864 0.25453,0 0.47738,-0.15804 0.61722,-0.39864"
       style="fill:#254254;fill-opacity:1;fill-rule:nonzero;stroke:none;stroke-width:0.0352778"
       id="path560" />
    <path
       d="m 40.026816,39.331981 h -0.0706 v -0.41346 h 0.0706 v 0.41346"
       style="fill:#254254;fill-opacity:1;fill-rule:nonzero;stroke:none;stroke-width:0.0352778"
       id="path562" />
    <path
       d="m 44.020116,39.392301 c 0,0.0448 0.0361,0.0808 0.0807,0.0808 0.0445,0 0.0806,-0.036 0.0806,-0.0808 v -0.22154 c 0,-0.0448 -0.0361,-0.0808 -0.0806,-0.0808 -0.0447,0 -0.0807,0.036 -0.0807,0.0808 v 0.22154"
       style="fill:#254254;fill-opacity:1;fill-rule:nonzero;stroke:none;stroke-width:0.0352778"
       id="path564" />
    <path
       d="m 43.989776,39.331981 h 0.0707 v -0.41346 h -0.0707 v 0.41346"
       style="fill:#254254;fill-opacity:1;fill-rule:nonzero;stroke:none;stroke-width:0.0352778"
       id="path566" />
    <path
       d="m 45.655986,38.825741 h -0.19996 v -0.41663 h 0.0667 l 0.13328,0.41663"
       style="fill:#3b5972;fill-opacity:1;fill-rule:nonzero;stroke:none;stroke-width:0.0352778"
       id="path568" />
    <path
       d="m 51.154336,38.825741 h 0.19996 v -0.41663 h -0.0667 l -0.13325,0.41663"
       style="fill:#3b5972;fill-opacity:1;fill-rule:nonzero;stroke:none;stroke-width:0.0352778"
       id="path570" />
    <path
       d="m 48.522976,39.392301 c 0,0.0448 -0.0361,0.0808 -0.0806,0.0808 -0.0445,0 -0.0806,-0.036 -0.0806,-0.0808 v -0.22154 c 0,-0.0448 0.0361,-0.0808 0.0806,-0.0808 0.0445,0 0.0806,0.036 0.0806,0.0808 v 0.22154"
       style="fill:#254254;fill-opacity:1;fill-rule:nonzero;stroke:none;stroke-width:0.0352778"
       id="path572" />
    <path
       d="m 46.425456,39.392301 c 0,0.0448 -0.0361,0.0808 -0.0806,0.0808 -0.0445,0 -0.0806,-0.036 -0.0806,-0.0808 v -0.22154 c 0,-0.0448 0.0361,-0.0808 0.0806,-0.0808 0.0445,0 0.0806,0.036 0.0806,0.0808 v 0.22154"
       style="fill:#254254;fill-opacity:1;fill-rule:nonzero;stroke:none;stroke-width:0.0352778"
       id="path574" />
    <path
       d="m 48.635296,38.635941 c -0.0672,-0.52563 -0.13864,-0.76094 -0.19678,-0.76094 -0.0582,0 -0.12954,0.23531 -0.19678,0.76094 h 0.39356"
       style="fill:#254254;fill-opacity:1;fill-rule:nonzero;stroke:none;stroke-width:0.0352778"
       id="path576" />
    <path
       d="m 45.427206,38.817631 0.0404,-0.0402 h 5.91937 l 0.0402,0.0402 -0.0402,0.0402 c 0,0 -2.22349,0.36301 -2.96457,0.36301 -0.73879,0 -2.9548,-0.36301 -2.9548,-0.36301 l -0.0404,-0.0402"
       style="fill:#254254;fill-opacity:1;fill-rule:nonzero;stroke:none;stroke-width:0.0352778"
       id="path578" />
    <path
       d="m 49.488276,39.119961 c -0.0798,-0.43039 -0.51731,-0.76059 -1.04976,-0.76059 -0.53248,0 -0.97,0.3302 -1.04965,0.76059 h 2.09941"
       style="fill:#3b5972;fill-opacity:1;fill-rule:nonzero;stroke:none;stroke-width:0.0352778"
       id="path580" />
    <path
       d="m 45.427206,38.817631 0.0404,-0.0402 h 5.91937 l 0.0402,0.0402 -0.0402,0.0402 h -5.91937 l -0.0404,-0.0402"
       style="fill:#254254;fill-opacity:1;fill-rule:nonzero;stroke:none;stroke-width:0.0352778"
       id="path582" />
    <path
       d="m 49.488276,39.119961 c -0.0798,-0.43039 -0.51731,-0.76059 -1.04976,-0.76059 -0.53248,0 -0.97,0.3302 -1.04965,0.76059 0,0 0.78616,0.18203 1.0535,0.18168 0.26539,0 1.04591,-0.18168 1.04591,-0.18168"
       style="fill:#3b5972;fill-opacity:1;fill-rule:nonzero;stroke:none;stroke-width:0.0352778"
       id="path584" />
    <path
       d="m 49.055736,38.590081 c -0.1742,-0.115 -0.38544,-0.18591 -0.61722,-0.18591 -0.23181,0 -0.44305,0.0709 -0.61722,0.18591 0.13984,0.2406 0.36269,0.39864 0.61722,0.39864 0.25464,0 0.47734,-0.15804 0.61722,-0.39864"
       style="fill:#254254;fill-opacity:1;fill-rule:nonzero;stroke:none;stroke-width:0.0352778"
       id="path586" />
    <path
       d="m 46.455796,39.331981 h -0.0705 v -0.41346 h 0.0705 v 0.41346"
       style="fill:#254254;fill-opacity:1;fill-rule:nonzero;stroke:none;stroke-width:0.0352778"
       id="path588" />
    <path
       d="m 50.449066,39.392301 c 0,0.0448 0.0361,0.0808 0.0808,0.0808 0.0445,0 0.0806,-0.036 0.0806,-0.0808 v -0.22154 c 0,-0.0448 -0.0361,-0.0808 -0.0806,-0.0808 -0.0447,0 -0.0808,0.036 -0.0808,0.0808 v 0.22154"
       style="fill:#254254;fill-opacity:1;fill-rule:nonzero;stroke:none;stroke-width:0.0352778"
       id="path590" />
    <path
       d="m 50.418866,39.331981 h 0.0706 v -0.41346 h -0.0706 v 0.41346"
       style="fill:#254254;fill-opacity:1;fill-rule:nonzero;stroke:none;stroke-width:0.0352778"
       id="path592" />
  </g>
</svg>
