<?xml version="1.0" encoding="UTF-8" standalone="no"?>
<!-- Created with Inkscape (http://www.inkscape.org/) -->

<svg
   width="5.5767097mm"
   height="6.8865757mm"
   viewBox="0 0 5.5767099 6.8865757"
   version="1.1"
   id="svg11017"
   inkscape:export-filename="7.svg"
   inkscape:export-xdpi="96"
   inkscape:export-ydpi="96"
   xmlns:inkscape="http://www.inkscape.org/namespaces/inkscape"
   xmlns:sodipodi="http://sodipodi.sourceforge.net/DTD/sodipodi-0.dtd"
   xmlns="http://www.w3.org/2000/svg"
   xmlns:svg="http://www.w3.org/2000/svg">
  <sodipodi:namedview
     id="namedview11019"
     pagecolor="#ffffff"
     bordercolor="#000000"
     borderopacity="0.25"
     inkscape:showpageshadow="2"
     inkscape:pageopacity="0.0"
     inkscape:pagecheckerboard="0"
     inkscape:deskcolor="#d1d1d1"
     inkscape:document-units="mm"
     showgrid="false" />
  <defs
     id="defs11014" />
  <g
     inkscape:label="Layer 1"
     inkscape:groupmode="layer"
     id="layer1"
     transform="translate(-193.08358,-28.012432)">
    <path
       d="m 195.51457,28.702818 c 0,-0.197908 0.15628,-0.359128 0.34855,-0.359128 0.19191,0 0.34854,0.16122 0.34854,0.359128 0,0.197908 -0.15663,0.359128 -0.34854,0.359128 -0.19227,0 -0.34855,-0.16122 -0.34855,-0.359128 m -0.32208,0 c 0,0.381353 0.30021,0.690386 0.67063,0.690386 0.37006,0 0.67028,-0.309033 0.67028,-0.690386 0,-0.381353 -0.30022,-0.690386 -0.67028,-0.690386 -0.37042,0 -0.67063,0.309033 -0.67063,0.690386"
       style="fill:#254254;fill-opacity:1;fill-rule:nonzero;stroke:none;stroke-width:0.0352778"
       id="path1498" />
    <path
       d="m 195.8797,29.061593 v -0.0014 c 0.1778,-0.0088 0.32138,-0.154517 0.33126,-0.337256 -0.01,0.183092 -0.15346,0.329848 -0.33126,0.338667 m 0.64911,-0.280458 c 3.5e-4,-3.53e-4 3.5e-4,-3.53e-4 3.5e-4,-3.53e-4 0,0 0,0 -3.5e-4,3.53e-4 m 7.1e-4,-0.0042 c 0,-3.52e-4 0,-3.52e-4 0,-7.05e-4 0,3.53e-4 0,3.53e-4 0,7.05e-4 m 3.5e-4,-0.0042 c 0,-3.53e-4 0,-7.06e-4 0,-7.06e-4 0,0 0,3.53e-4 0,7.06e-4 m 3.5e-4,-0.0046 c 0,0 0,-3.53e-4 0,-7.06e-4 0,3.53e-4 0,7.06e-4 0,7.06e-4 m 3.5e-4,-0.0042 c 0,-3.53e-4 0,-7.06e-4 0,-0.0011 0,3.53e-4 0,7.06e-4 0,0.0011 m 3.6e-4,-0.0042 c 0,-3.53e-4 0,-7.05e-4 0,-0.0011 0,3.53e-4 0,7.05e-4 0,0.0011 m 3.5e-4,-0.0042 c 0,-3.53e-4 0,-0.0011 0,-0.0014 0,3.53e-4 0,0.0011 0,0.0014 m 3.5e-4,-0.0042 c 0,-7.06e-4 0,-0.0011 0,-0.0014 0,3.53e-4 0,7.06e-4 0,0.0014 m 3.6e-4,-0.0046 c 0,-3.52e-4 0,-0.0011 0,-0.0014 0,3.53e-4 0,0.0011 0,0.0014 m 0,-0.0042 c 3.5e-4,-3.53e-4 3.5e-4,-0.0011 3.5e-4,-0.0018 0,7.06e-4 0,0.0014 -3.5e-4,0.0018 m 3.5e-4,-0.0042 c 0,-7.06e-4 0,-0.0014 0,-0.0018 0,3.53e-4 0,0.0011 0,0.0018 m 3.5e-4,-0.0046 c 0,-3.53e-4 0,-0.0011 0,-0.0018 0,7.05e-4 0,0.0014 0,0.0018 m 0,-0.0042 c 0,-7.05e-4 0,-0.0014 0,-0.0021 0,7.05e-4 0,0.0014 0,0.0021 m 3.5e-4,-0.0042 c 0,-0.0011 0,-0.0018 0,-0.0025 0,7.05e-4 0,0.0014 0,0.0025 m -0.32208,-0.0021 c 0,-7.05e-4 0,-0.0014 0,-0.0021 0,7.05e-4 0,0.0014 0,0.0021 m 0,-0.0025 c 0,-7.06e-4 3.5e-4,-0.0014 3.5e-4,-0.0018 0,3.53e-4 -3.5e-4,0.0011 -3.5e-4,0.0018 m 0.32208,0 c 0,-7.06e-4 0,-0.0018 0,-0.0025 0,7.06e-4 0,0.0018 0,0.0025 m -0.32173,-0.0021 c 0,-7.05e-4 0,-0.0014 0,-0.0021 0,7.05e-4 0,0.0014 0,0.0021 m 0.32173,-0.0021 c 0,-0.0011 0,-0.0018 0,-0.0028 0,7.06e-4 0,0.0018 0,0.0028 m -0.32173,-3.53e-4 c 0,-7.06e-4 0,-0.0011 0,-0.0018 0,7.05e-4 0,0.0011 0,0.0018 m 0,-0.0025 c 0,-3.52e-4 0,-0.0011 0,-0.0014 0,3.53e-4 0,0.0011 0,0.0014 m 0.32173,-0.0018 c 0,-0.0011 0,-0.0021 0,-0.0028 0,7.06e-4 0,0.0018 0,0.0028 m -0.32173,-0.0011 c 0,-3.53e-4 0,-7.05e-4 0,-0.0011 0,3.53e-4 0,7.05e-4 0,0.0011 m 0,-0.0021 c 0,-3.52e-4 0,-7.05e-4 0,-0.0011 0,3.53e-4 0,7.06e-4 0,0.0011 m 0.32209,-0.0011 c 0,-0.0018 0,-0.0032 0,-0.0046 v 0 c 0,0.0014 0,0.0028 0,0.0046 m -0.32174,-0.0014 c 0,-3.53e-4 0,-7.06e-4 0,-0.0011 0,3.52e-4 0,7.05e-4 0,0.0011 m 0.32174,-0.0032 c 0,-0.0014 0,-0.0028 0,-0.0046 0,0.0018 0,0.0032 0,0.0046 m -0.32174,-0.0021 c 0,-3.52e-4 0,-7.05e-4 0,-0.0011 0,3.53e-4 0,7.06e-4 0,0.0011 m -3.5e-4,-0.0025 c 0,-3.53e-4 0,-7.06e-4 0,-0.0011 0,3.52e-4 0,7.05e-4 0,0.0011 m 0.32173,-0.0014 c 0,-7.06e-4 0,-0.0018 0,-0.0028 0,0.0011 0,0.0018 0,0.0028 m -0.32173,-7.06e-4 c 0,-3.53e-4 0,-7.05e-4 0,-0.0011 0,3.53e-4 0,7.05e-4 0,0.0011 m 0,-0.0025 c 0,-3.53e-4 0,-0.0011 0,-0.0014 0,3.52e-4 0,0.0011 0,0.0014 m 0.32173,-0.0014 c 0,-0.0011 0,-0.0018 0,-0.0028 0,0.0011 0,0.0018 0,0.0028 m -0.32173,-7.06e-4 c 0,-7.05e-4 0,-0.0011 0,-0.0018 0,7.06e-4 0,0.0011 0,0.0018 m 0,-0.0021 c 0,-7.05e-4 0,-0.0014 0,-0.0021 0,7.05e-4 0,0.0014 0,0.0021 m 0.32173,-0.0018 c 0,-0.0011 0,-0.0018 0,-0.0025 0,7.06e-4 0,0.0014 0,0.0025 m -0.32173,-7.06e-4 c 0,-7.06e-4 -3.5e-4,-0.0011 -3.5e-4,-0.0018 0,7.06e-4 3.5e-4,0.0011 3.5e-4,0.0018 m -3.5e-4,-0.0021 c 0,-7.05e-4 0,-0.0014 0,-0.0021 0,7.05e-4 0,0.0014 0,0.0021 m 0.32208,-0.0018 c 0,-7.05e-4 0,-0.0018 0,-0.0025 0,7.06e-4 0,0.0018 0,0.0025 m -0.32208,-3.52e-4 c -0.01,-0.182739 -0.15346,-0.328436 -0.33126,-0.337256 v -0.0014 c 0.1778,0.0088 0.32138,0.155575 0.33126,0.338667 m 0.32173,-0.0046 c 0,-3.53e-4 0,-0.0011 0,-0.0018 0,7.05e-4 0,0.0014 0,0.0018 m 0,-0.0046 c 0,-3.52e-4 0,-0.0011 0,-0.0014 0,3.53e-4 0,0.0011 0,0.0014 m -3.5e-4,-0.0042 c 0,-7.05e-4 0,-0.0011 0,-0.0018 0,7.06e-4 0,0.0011 0,0.0018 m 0,-0.0046 c 0,-3.53e-4 0,-0.0011 -3.5e-4,-0.0014 3.5e-4,3.53e-4 3.5e-4,0.0011 3.5e-4,0.0014 m -3.5e-4,-0.0046 c 0,-3.53e-4 0,-7.06e-4 0,-0.0011 0,3.52e-4 0,7.05e-4 0,0.0011 m -3.6e-4,-0.0042 c 0,-3.53e-4 0,-0.0011 0,-0.0014 0,7.06e-4 0,0.0011 0,0.0014 m -3.5e-4,-0.0046 c 0,-3.52e-4 0,-7.05e-4 0,-0.0011 0,3.53e-4 0,7.06e-4 0,0.0011 m -3.5e-4,-0.0046 c 0,0 0,-3.52e-4 0,-7.05e-4 0,3.53e-4 0,7.05e-4 0,7.05e-4 m -3.6e-4,-0.0042 c 0,-3.53e-4 0,-7.06e-4 0,-7.06e-4 0,0 0,3.53e-4 0,7.06e-4 m -3.5e-4,-0.0046 c 0,-3.53e-4 0,-3.53e-4 0,-3.53e-4 0,0 0,0 0,3.53e-4 m -3.5e-4,-0.0046 v 0 0"
       style="fill:#f9fcfc;fill-opacity:1;fill-rule:nonzero;stroke:none;stroke-width:0.0352778"
       id="path1500" />
    <path
       d="m 196.33443,29.193179 c -0.13688,-0.02364 -0.27728,-0.03669 -0.42016,-0.0388 -7e-4,0 -0.002,0 -0.002,0 -0.002,-3.53e-4 -0.004,-3.53e-4 -0.006,-3.53e-4 -0.001,0 -0.003,0 -0.005,0 -0.001,0 -0.002,0 -0.003,0 -0.002,0 -0.005,0 -0.007,0 -3.5e-4,0 -0.001,0 -0.002,0 -0.002,0 -0.005,0 -0.007,0 -3.5e-4,0 -0.001,0 -0.001,0 h -3.5e-4 v -0.09243 c 0.1778,-0.0088 0.32138,-0.155575 0.33126,-0.338667 v 0 c 0,-7.05e-4 0,-0.0014 0,-0.0021 v -3.53e-4 c 0,-7.06e-4 3.5e-4,-0.0014 3.5e-4,-0.0018 0,-3.53e-4 0,-3.53e-4 0,-3.53e-4 0,-7.05e-4 0,-0.0014 0,-0.0021 v -3.53e-4 c 0,-7.06e-4 0,-0.0011 0,-0.0018 0,-3.53e-4 0,-3.53e-4 0,-7.06e-4 0,-3.52e-4 0,-0.0011 0,-0.0014 0,-3.53e-4 0,-7.05e-4 0,-0.0014 0,-3.53e-4 0,-7.05e-4 0,-0.0011 0,-3.53e-4 0,-7.06e-4 0,-0.0011 0,-3.52e-4 0,-7.05e-4 0,-0.0011 0,-7.05e-4 3.5e-4,-0.0011 3.5e-4,-0.0014 0,-3.53e-4 0,-7.06e-4 0,-0.0011 0,-7.06e-4 0,-0.0014 0,-0.0021 v 0 0 0 c 0,-7.06e-4 0,-0.0014 0,-0.0021 0,-3.52e-4 0,-7.05e-4 0,-0.0011 0,-3.53e-4 -3.5e-4,-0.0011 -3.5e-4,-0.0014 0,-3.53e-4 0,-7.06e-4 0,-0.0011 0,-3.53e-4 0,-7.06e-4 0,-0.0011 0,-3.53e-4 0,-7.05e-4 0,-0.0011 0,-7.06e-4 0,-0.0011 0,-0.0014 0,-3.53e-4 0,-0.0011 0,-0.0014 0,-3.53e-4 0,-3.53e-4 0,-7.06e-4 0,-7.05e-4 0,-0.0011 0,-0.0018 v -3.53e-4 c 0,-7.05e-4 0,-0.0014 0,-0.0021 0,0 0,0 0,-3.53e-4 0,-7.06e-4 -3.5e-4,-0.0011 -3.5e-4,-0.0018 v -3.53e-4 c 0,-7.05e-4 0,-0.0014 0,-0.0021 v 0 c -0.01,-0.183092 -0.15346,-0.329848 -0.33126,-0.338667 v -0.330906 c 0.33972,0.0088 0.61701,0.277284 0.65017,0.620184 v 0 c 0,0.0014 3.5e-4,0.0028 3.5e-4,0.0042 0,0 0,0 0,3.53e-4 3.5e-4,0.0011 3.5e-4,0.0025 3.5e-4,0.0039 0,0 0,3.53e-4 0,7.06e-4 3.6e-4,0.0011 3.6e-4,0.0025 3.6e-4,0.0035 0,3.53e-4 0,7.05e-4 0,7.05e-4 3.5e-4,0.0014 3.5e-4,0.0025 3.5e-4,0.0035 0,3.53e-4 0,7.06e-4 0,0.0011 3.5e-4,0.0011 3.5e-4,0.0021 3.5e-4,0.0032 0,3.53e-4 0,0.0011 0,0.0014 0,0.0011 3.6e-4,0.0021 3.6e-4,0.0032 0,3.52e-4 0,7.05e-4 0,0.0011 0,0.0011 0,0.0021 0,0.0032 3.5e-4,3.53e-4 3.5e-4,0.0011 3.5e-4,0.0014 0,0.0011 0,0.0021 0,0.0028 0,7.06e-4 0,0.0011 0,0.0018 0,7.06e-4 3.5e-4,0.0018 3.5e-4,0.0028 0,3.53e-4 0,0.0011 0,0.0014 0,0.0011 0,0.0018 0,0.0028 0,7.05e-4 0,0.0014 0,0.0018 0,0.0011 3.5e-4,0.0018 3.5e-4,0.0025 0,7.06e-4 0,0.0018 0,0.0025 0,7.06e-4 0,0.0014 0,0.0021 0,7.06e-4 0,0.0014 0,0.0025 0,7.05e-4 0,0.0011 0,0.0018 0,0.0011 0,0.0018 0,0.0028 0,7.05e-4 0,0.0011 0,0.0018 0,0.0011 0,0.0021 0,0.0028 0,7.05e-4 0,0.0011 3.6e-4,0.0014 0,0.0018 0,0.0032 0,0.0046 v 0 c 0,0.0014 0,0.0028 0,0.0046 -3.6e-4,3.53e-4 -3.6e-4,7.06e-4 -3.6e-4,0.0014 0,7.06e-4 0,0.0018 0,0.0028 0,7.06e-4 0,0.0011 0,0.0018 0,0.0011 0,0.0018 0,0.0028 0,3.52e-4 0,0.0011 0,0.0018 0,7.06e-4 0,0.0018 0,0.0025 0,7.05e-4 0,0.0014 0,0.0021 0,7.05e-4 0,0.0014 0,0.0025 0,7.06e-4 -3.5e-4,0.0014 -3.5e-4,0.0021 0,7.05e-4 0,0.0014 0,0.0021 0,7.06e-4 0,0.0018 0,0.0025 0,7.05e-4 0,0.0014 0,0.0018 0,0.0011 -3.5e-4,0.0018 -3.5e-4,0.0028 0,3.53e-4 0,0.0011 0,0.0018 0,7.05e-4 0,0.0018 0,0.0025 0,7.06e-4 0,0.0014 -3.5e-4,0.0018 0,0.0011 0,0.0018 0,0.0028 0,3.53e-4 0,0.0011 0,0.0014 0,0.0011 -3.6e-4,0.0021 -3.6e-4,0.0032 0,3.53e-4 0,7.06e-4 0,0.0014 0,0.0011 0,0.0018 -3.5e-4,0.0028 0,3.53e-4 0,0.0011 0,0.0014 0,0.0011 0,0.0021 -3.5e-4,0.0032 0,3.53e-4 0,7.05e-4 0,0.0011 0,0.0011 0,0.0021 -3.6e-4,0.0032 0,3.53e-4 0,7.06e-4 0,0.0011 0,0.0014 0,0.0025 -3.5e-4,0.0035 0,3.53e-4 0,7.06e-4 0,7.06e-4 0,0.0014 -3.5e-4,0.0025 -3.5e-4,0.0039 0,0 0,3.53e-4 0,7.06e-4 0,0.0011 -3.5e-4,0.0025 -3.5e-4,0.0035 0,3.53e-4 0,3.53e-4 0,7.05e-4 -3.6e-4,0.0011 -3.6e-4,0.0025 -3.6e-4,0.0039 0,0 0,0 -3.5e-4,3.53e-4 -0.0173,0.160514 -0.0885,0.304447 -0.19438,0.412044"
       style="fill:#607784;fill-opacity:1;fill-rule:nonzero;stroke:none;stroke-width:0.0352778"
       id="path1502" />
    <path
       d="m 193.08358,32.026338 c 0,1.586441 1.24848,2.872669 2.78836,2.872669 1.53987,0 2.78835,-1.286228 2.78835,-2.872669 0,-1.586442 -1.24848,-2.872317 -2.78835,-2.872317 -1.53988,0 -2.78836,1.285875 -2.78836,2.872317"
       style="fill:#e9f3f4;fill-opacity:1;fill-rule:nonzero;stroke:none;stroke-width:0.0352778"
       id="path1504" />
    <path
       d="m 194.62452,29.458115 c 0.37535,-0.194028 0.79868,-0.304094 1.24742,-0.304094 0.44873,0 0.87207,0.110066 1.24742,0.304094 h -2.49484"
       style="fill:#254254;fill-opacity:1;fill-rule:nonzero;stroke:none;stroke-width:0.0352778"
       id="path1506" />
    <path
       d="m 198.38548,30.785265 c 0.1651,0.354189 0.26247,0.748595 0.27305,1.165578 h -5.57318 c 0.0106,-0.416983 0.10759,-0.811389 0.27269,-1.165578 h 5.02744"
       style="fill:#254254;fill-opacity:1;fill-rule:nonzero;stroke:none;stroke-width:0.0352778"
       id="path1508" />
    <path
       d="m 197.55434,34.315513 h -3.36515 c -0.35313,-0.276578 -0.641,-0.637117 -0.83362,-1.053748 h 5.03273 c -0.19297,0.416631 -0.48048,0.77717 -0.83396,1.053748"
       style="fill:#254254;fill-opacity:1;fill-rule:nonzero;stroke:none;stroke-width:0.0352778"
       id="path1510" />
    <path
       d="m 198.65218,32.246824 v -3.53e-4 c 0,0 0,0 0,3.53e-4 m 0.002,-0.03669 v -3.53e-4 3.53e-4 m 7.1e-4,-0.0092 v 0 0 m 3.5e-4,-0.0088 c 0,-3.53e-4 0,-3.53e-4 0,-7.05e-4 0,3.52e-4 0,3.52e-4 0,7.05e-4 m 7e-4,-0.0092 c 0,-3.53e-4 0,-7.06e-4 0,-0.0011 0,3.52e-4 0,7.05e-4 0,0.0011 m 3.6e-4,-0.0092 c 0,-3.53e-4 0,-0.0011 0,-0.0014 0,3.52e-4 0,0.0011 0,0.0014 m 3.5e-4,-0.0092 c 0,-7.06e-4 0,-0.0014 0,-0.0018 0,3.52e-4 0,0.0011 0,0.0018 m 3.5e-4,-0.0092 c 0,-7.05e-4 0,-0.0014 3.5e-4,-0.0021 -3.5e-4,7.05e-4 -3.5e-4,0.0014 -3.5e-4,0.0021 m 3.5e-4,-0.0092 c 0,-7.05e-4 0,-0.0014 3.6e-4,-0.0021 -3.6e-4,7.06e-4 -3.6e-4,0.0014 -3.6e-4,0.0021 m 3.6e-4,-0.0092 c 0,-7.06e-4 0,-0.0011 0,-0.0018 0,3.53e-4 0,0.0011 0,0.0018 m 3.5e-4,-0.0092 c 0,-7.06e-4 0,-0.0018 0,-0.0025 0,7.06e-4 0,0.0018 0,0.0025 m 3.5e-4,-0.0092 c 0,-7.05e-4 0,-0.0014 0,-0.0021 0,7.05e-4 0,0.0014 0,0.0021 m 3.6e-4,-0.0092 c 0,-7.05e-4 0,-0.0018 0,-0.0025 0,7.05e-4 0,0.0018 0,0.0025 m 3.5e-4,-0.0092 c 0,-0.0011 0,-0.0021 0,-0.0028 0,0.0011 0,0.0018 0,0.0028 m 0,-0.0092 c 0,-7.06e-4 0,-0.0014 0,-0.0018 0,3.53e-4 0,0.0011 0,0.0018 m 3.5e-4,-0.0092 c 0,-0.0011 0,-0.0021 0,-0.0028 0,7.06e-4 0,0.0018 0,0.0028 m 0,-0.0095 c 0,-0.0011 0,-0.0021 0,-0.0035 0,0.0011 0,0.0025 0,0.0035 m 0,-0.0092 c 3.5e-4,-0.0018 3.5e-4,-0.0035 3.5e-4,-0.0056 0,0.0021 0,0.0039 -3.5e-4,0.0056 m 3.5e-4,-0.0092 c 0,-0.0018 0,-0.0039 0,-0.0056 0,0.0018 0,0.0039 0,0.0056 m 0,-0.0092 c 0,-0.0028 0,-0.0053 0,-0.0078 0,0.0025 0,0.0049 0,0.0078 m 0,-0.0092 c 0,-0.0032 0,-0.0063 0,-0.0095 v 0 c 0,0.0032 0,0.0063 0,0.0095 m 0,-0.0095 c 0,-0.0032 0,-0.006 0,-0.0092 0,0.0032 0,0.0064 0,0.0092 m 0,-0.01058 c 0,-0.0025 0,-0.0053 0,-0.0078 0,0.0025 0,0.0053 0,0.0078 m 0,-0.01094 c 0,-0.0021 0,-0.0042 0,-0.0064 0,0.0021 0,0.0042 0,0.0064 m 0,-0.0092 c 0,-0.0021 0,-0.0042 -3.5e-4,-0.0064 3.5e-4,0.0021 3.5e-4,0.0042 3.5e-4,0.0064 m -3.5e-4,-0.01129 c 0,-0.0014 0,-0.0028 0,-0.0042 0,0.0014 0,0.0028 0,0.0042 m 0,-0.0099 c 0,-0.0014 0,-0.0025 0,-0.0035 0,0.0011 0,0.0021 0,0.0035 m -3.5e-4,-0.01023 c 0,-7.06e-4 0,-0.0018 0,-0.0025 0,7.06e-4 0,0.0014 0,0.0025 m 0,-0.0081 c 0,-0.0014 0,-0.0025 0,-0.0035 0,0.0011 0,0.0021 0,0.0035 m -3.5e-4,-0.0095 c 0,-0.0011 0,-0.0021 0,-0.0035 0,0.0014 0,0.0025 0,0.0035 m -3.6e-4,-0.0092 c 0,-0.0011 0,-0.0025 0,-0.0035 0,0.0011 0,0.0025 0,0.0035 m 0,-0.0088 c -3.5e-4,-0.0014 -3.5e-4,-0.0025 -3.5e-4,-0.0039 0,0.0014 0,0.0025 3.5e-4,0.0039 m -3.5e-4,-0.0095 c 0,-0.0011 -3.5e-4,-0.0021 -3.5e-4,-0.0035 0,0.0011 3.5e-4,0.0025 3.5e-4,0.0035 m -3.5e-4,-0.0092 c 0,-0.0014 -3.6e-4,-0.0025 -3.6e-4,-0.0035 0,0.0011 3.6e-4,0.0021 3.6e-4,0.0035 m -3.6e-4,-0.0088 c 0,-0.0014 -3.5e-4,-0.0025 -3.5e-4,-0.0039 0,0.0014 3.5e-4,0.0025 3.5e-4,0.0039 m -3.5e-4,-0.0092 c -3.5e-4,-0.0014 -3.5e-4,-0.0025 -3.5e-4,-0.0039 0,0.0014 0,0.0025 3.5e-4,0.0039 m -7e-4,-0.0099 c 0,-0.0011 0,-0.0021 0,-0.0032 0,0.0014 0,0.0021 0,0.0032 m -3.6e-4,-0.0095 c 0,-7.06e-4 0,-0.0018 0,-0.0028 0,0.0011 0,0.0021 0,0.0028 m -3.5e-4,-0.0092 c -3.5e-4,-0.0011 -3.5e-4,-0.0018 -3.5e-4,-0.0025 0,7.05e-4 0,0.0014 3.5e-4,0.0025 m -7e-4,-0.0095 c 0,-7.05e-4 0,-0.0014 0,-0.0021 0,7.05e-4 0,0.0014 0,0.0021 m -3.6e-4,-0.0088 c -3.5e-4,-7.06e-4 -3.5e-4,-0.0018 -3.5e-4,-0.0025 0,7.06e-4 0,0.0018 3.5e-4,0.0025 m -7e-4,-0.0095 c 0,-7.06e-4 0,-0.0014 0,-0.0021 0,7.06e-4 0,0.0014 0,0.0021 m -7.1e-4,-0.0092 c 0,-7.06e-4 0,-0.0014 0,-0.0021 0,7.05e-4 0,0.0014 0,0.0021 m -7e-4,-0.0092 c 0,-7.05e-4 0,-0.0014 0,-0.0021 0,7.05e-4 0,0.0014 0,0.0021 m -3.6e-4,-0.0085 c -3.5e-4,-0.0011 -3.5e-4,-0.0018 -3.5e-4,-0.0028 0,0.0011 0,0.0018 3.5e-4,0.0028 m -7e-4,-0.0095 c 0,-7.06e-4 -3.6e-4,-0.0014 -3.6e-4,-0.0021 0,7.06e-4 3.6e-4,0.0014 3.6e-4,0.0021 m -7.1e-4,-0.0088 c 0,-0.0011 -3.5e-4,-0.0018 -3.5e-4,-0.0025 0,7.05e-4 3.5e-4,0.0014 3.5e-4,0.0025 m -7e-4,-0.0095 c -3.6e-4,-7.05e-4 -3.6e-4,-0.0014 -3.6e-4,-0.0021 0,7.05e-4 0,0.0014 3.6e-4,0.0021 m -10e-4,-0.0092 c 0,-7.06e-4 0,-0.0014 0,-0.0018 0,7.06e-4 0,0.0011 0,0.0018 m -7.1e-4,-0.0092 c 0,-3.53e-4 0,-0.0011 0,-0.0018 0,7.05e-4 0,0.0014 0,0.0018 m -7e-4,-0.0092 c 0,-3.53e-4 0,-0.0011 -3.6e-4,-0.0018 3.6e-4,7.05e-4 3.6e-4,0.0011 3.6e-4,0.0018 m -0.001,-0.0092 c 0,-7.05e-4 0,-0.0011 0,-0.0014 0,3.53e-4 0,0.0011 0,0.0014 m -7.1e-4,-0.0095 c 0,-3.52e-4 0,-7.05e-4 0,-0.0011 0,3.53e-4 0,0.0011 0,0.0011 m -10e-4,-0.0092 c 0,-3.53e-4 0,-3.53e-4 0,-7.05e-4 0,3.52e-4 0,7.05e-4 0,7.05e-4 m -7e-4,-0.0088 c 0,-3.53e-4 -3.5e-4,-7.06e-4 -3.5e-4,-0.0011 0,3.53e-4 3.5e-4,7.06e-4 3.5e-4,0.0011 m -10e-4,-0.0092 c 0,-3.52e-4 0,-7.05e-4 0,-7.05e-4 0,0 0,3.53e-4 0,7.05e-4 m -0.001,-0.0095 v 0 0 m -0.001,-0.0092 v 0 0 m -0.001,-0.0088 v 0 0"
       style="fill:#f9fcfc;fill-opacity:1;fill-rule:nonzero;stroke:none;stroke-width:0.0352778"
       id="path1512" />
    <path
       d="m 195.88852,34.898302 v -0.582789 h 1.66582 c 0.35348,-0.276578 0.64099,-0.637117 0.83396,-1.053748 h -2.49978 v -1.310922 h 2.77001 v 0 c -0.0106,-0.416983 -0.10795,-0.811389 -0.27305,-1.165578 h -2.49696 v -1.32715 h 1.23084 v 0 c -0.21837,-0.112889 -0.45261,-0.197203 -0.69885,-0.248355 1.16981,0.240594 2.07539,1.234369 2.21968,2.47015 v 0 c 3.5e-4,0.0028 7e-4,0.006 0.001,0.0088 v 0 c 3.6e-4,0.0032 7.1e-4,0.006 0.001,0.0092 v 0 c 3.6e-4,0.0032 7.1e-4,0.006 0.001,0.0088 0,0 0,3.53e-4 0,7.05e-4 3.5e-4,0.0028 7.1e-4,0.0053 7.1e-4,0.0081 0,3.53e-4 3.5e-4,7.06e-4 3.5e-4,0.0011 0,0.0028 3.5e-4,0.0053 7e-4,0.0081 0,3.52e-4 0,3.52e-4 0,7.05e-4 3.6e-4,0.0028 7.1e-4,0.0056 0.001,0.0081 0,3.53e-4 0,7.06e-4 0,0.0011 3.6e-4,0.0028 3.6e-4,0.0053 7.1e-4,0.0081 0,3.53e-4 0,7.06e-4 0,0.0014 3.5e-4,0.0025 7e-4,0.0049 7e-4,0.0074 3.6e-4,7.05e-4 3.6e-4,0.0014 3.6e-4,0.0018 0,0.0025 3.5e-4,0.0049 7e-4,0.0074 0,7.05e-4 0,0.0014 0,0.0018 3.6e-4,0.0025 3.6e-4,0.0049 7.1e-4,0.0074 0,3.53e-4 0,0.0011 0,0.0018 3.5e-4,0.0021 7e-4,0.0049 7e-4,0.0071 0,7.05e-4 0,0.0014 3.6e-4,0.0021 0,0.0025 3.5e-4,0.0046 3.5e-4,0.0071 0,7.05e-4 3.5e-4,0.0014 3.5e-4,0.0025 0,0.0021 3.5e-4,0.0042 3.5e-4,0.0067 0,7.06e-4 3.6e-4,0.0014 3.6e-4,0.0021 0,0.0025 3.5e-4,0.0046 3.5e-4,0.0067 0,0.0011 0,0.0018 3.5e-4,0.0028 0,0.0021 3.6e-4,0.0042 3.6e-4,0.0064 0,7.05e-4 0,0.0014 0,0.0021 3.5e-4,0.0025 3.5e-4,0.0049 7e-4,0.0071 0,7.05e-4 0,0.0014 0,0.0021 3.5e-4,0.0021 3.5e-4,0.0046 7.1e-4,0.0071 0,7.06e-4 0,0.0014 0,0.0021 0,0.0025 3.5e-4,0.0046 3.5e-4,0.0071 0,7.06e-4 0,0.0018 3.5e-4,0.0025 0,0.0021 0,0.0046 3.6e-4,0.0067 0,7.05e-4 0,0.0014 0,0.0021 0,0.0021 3.5e-4,0.0046 3.5e-4,0.0071 0,7.05e-4 0,0.0014 3.5e-4,0.0025 0,0.0021 0,0.0042 3.5e-4,0.0063 0,0.0011 0,0.0021 0,0.0028 0,0.0021 3.6e-4,0.0042 3.6e-4,0.0063 0,0.0011 0,0.0021 0,0.0032 3.5e-4,0.0021 3.5e-4,0.0042 3.5e-4,0.006 0,0.0014 0,0.0025 3.5e-4,0.0039 0,0.0018 0,0.0035 0,0.0053 0,0.0014 3.5e-4,0.0025 3.5e-4,0.0039 0,0.0018 0,0.0035 0,0.0053 0,0.0011 3.6e-4,0.0021 3.6e-4,0.0035 0,0.0018 0,0.0039 0,0.0056 0,0.0014 3.5e-4,0.0025 3.5e-4,0.0035 0,0.0018 0,0.0039 0,0.0056 0,0.0014 0,0.0025 3.5e-4,0.0039 0,0.0018 0,0.0035 0,0.0053 0,0.0011 0,0.0025 0,0.0035 3.6e-4,0.0018 3.6e-4,0.0039 3.6e-4,0.0056 0,0.0014 0,0.0025 0,0.0035 0,0.0021 0,0.0039 3.5e-4,0.006 0,0.0011 0,0.0021 0,0.0035 0,0.0018 0,0.0035 0,0.0056 0,7.06e-4 0,0.0018 0,0.0025 0,0.0021 3.5e-4,0.0046 3.5e-4,0.0067 0,0.0011 0,0.0021 0,0.0035 0,0.0018 0,0.0039 0,0.0056 0,0.0014 0,0.0028 0,0.0042 0,0.0018 0,0.0035 0,0.0049 3.5e-4,0.0021 3.5e-4,0.0042 3.5e-4,0.0064 0,0.0011 0,0.0018 0,0.0028 0,0.0021 0,0.0042 0,0.0064 0,0.0011 0,0.0021 0,0.0032 0,0.0025 0,0.0053 0,0.0078 0,7.06e-4 0,0.0011 0,0.0014 0,0.0032 0,0.006 0,0.0092 v 0 c 0,0.0032 0,0.0063 0,0.0095 0,3.52e-4 0,7.05e-4 0,0.0014 0,0.0025 0,0.0049 0,0.0078 0,0.0011 0,0.0021 0,0.0035 0,0.0018 0,0.0039 0,0.0056 0,0.0011 0,0.0025 0,0.0035 0,0.0021 0,0.0039 -3.5e-4,0.0056 0,0.0021 0,0.0039 0,0.0056 0,0.0014 0,0.0025 0,0.0035 0,0.0021 0,0.0046 0,0.0067 0,7.06e-4 0,0.0018 0,0.0028 -3.5e-4,0.0025 -3.5e-4,0.0049 -3.5e-4,0.0074 0,3.53e-4 0,0.0011 0,0.0018 0,0.0021 0,0.0042 0,0.0064 0,7.05e-4 0,0.0018 0,0.0028 -3.5e-4,0.0021 -3.5e-4,0.0042 -3.5e-4,0.0067 0,7.05e-4 0,0.0018 0,0.0025 0,0.0021 -3.6e-4,0.0046 -3.6e-4,0.0071 0,7.05e-4 0,0.0014 0,0.0021 0,0.0021 0,0.0042 -3.5e-4,0.0067 0,7.06e-4 0,0.0018 0,0.0025 0,0.0025 0,0.0049 -3.5e-4,0.0074 0,7.06e-4 0,0.0011 0,0.0018 0,0.0025 0,0.0049 0,0.0071 -3.6e-4,7.06e-4 -3.6e-4,0.0014 -3.6e-4,0.0021 0,0.0025 0,0.0046 0,0.0071 -3.5e-4,7.05e-4 -3.5e-4,0.0014 -3.5e-4,0.0021 0,0.0025 0,0.0049 -3.5e-4,0.0074 0,3.52e-4 0,0.0011 0,0.0018 0,0.0025 -3.5e-4,0.0053 -3.5e-4,0.0078 0,3.52e-4 0,0.0011 0,0.0014 -3.6e-4,0.0028 -3.6e-4,0.0053 -3.6e-4,0.0081 0,3.52e-4 0,7.05e-4 0,0.0011 -3.5e-4,0.0028 -3.5e-4,0.0056 -7e-4,0.0085 0,3.52e-4 0,3.52e-4 0,7.05e-4 0,0.0028 -3.5e-4,0.0056 -3.5e-4,0.0088 v 0 c -3.6e-4,0.0032 -3.6e-4,0.006 -7.1e-4,0.0088 v 3.53e-4 c -7.1e-4,0.01235 -10e-4,0.02434 -0.002,0.03634 v 3.53e-4 c -0.10866,1.477786 -1.30316,2.642658 -2.76366,2.651478"
       style="fill:#e9f3f4;fill-opacity:1;fill-rule:nonzero;stroke:none;stroke-width:0.0352778"
       id="path1514" />
    <path
       d="m 197.11936,29.458115 h -1.23084 v -0.303741 c 0.18203,0.0011 0.35983,0.02011 0.53199,0.05539 0.24624,0.05115 0.48048,0.135466 0.69885,0.248355"
       style="fill:#607784;fill-opacity:1;fill-rule:nonzero;stroke:none;stroke-width:0.0352778"
       id="path1516" />
    <path
       d="m 198.65853,31.950843 h -2.77001 v -1.165578 h 2.49696 c 0.1651,0.354189 0.26247,0.748595 0.27305,1.165578"
       style="fill:#607784;fill-opacity:1;fill-rule:nonzero;stroke:none;stroke-width:0.0352778"
       id="path1518" />
    <path
       d="m 197.55434,34.315513 h -1.66582 v -1.053748 h 2.49978 c -0.19297,0.416631 -0.48048,0.77717 -0.83396,1.053748"
       style="fill:#607784;fill-opacity:1;fill-rule:nonzero;stroke:none;stroke-width:0.0352778"
       id="path1520" />
  </g>
</svg>
