<?xml version="1.0" encoding="UTF-8" standalone="no"?>
<!-- Created with Inkscape (http://www.inkscape.org/) -->

<svg
   width="52.279022mm"
   height="20.402199mm"
   viewBox="0 0 52.279023 20.402199"
   version="1.1"
   id="svg11017"
   inkscape:export-filename="2.svg"
   inkscape:export-xdpi="96"
   inkscape:export-ydpi="96"
   xmlns:inkscape="http://www.inkscape.org/namespaces/inkscape"
   xmlns:sodipodi="http://sodipodi.sourceforge.net/DTD/sodipodi-0.dtd"
   xmlns="http://www.w3.org/2000/svg"
   xmlns:svg="http://www.w3.org/2000/svg">
  <sodipodi:namedview
     id="namedview11019"
     pagecolor="#ffffff"
     bordercolor="#000000"
     borderopacity="0.25"
     inkscape:showpageshadow="2"
     inkscape:pageopacity="0.0"
     inkscape:pagecheckerboard="0"
     inkscape:deskcolor="#d1d1d1"
     inkscape:document-units="mm"
     showgrid="false" />
  <defs
     id="defs11014" />
  <g
     inkscape:label="Layer 1"
     inkscape:groupmode="layer"
     id="layer1"
     transform="translate(-91.802359,-27.399221)">
    <path
       d="m 128.29299,42.061372 h -0.0981 V 36.94433 h 0.0981 v 5.117042"
       style="fill:#29516a;fill-opacity:1;fill-rule:nonzero;stroke:none;stroke-width:0.0352778"
       id="path1326" />
    <path
       d="m 139.51097,40.044188 h -0.0984 v -1.672872 h 0.0984 v 1.672872"
       style="fill:#29516a;fill-opacity:1;fill-rule:nonzero;stroke:none;stroke-width:0.0352778"
       id="path1328" />
    <path
       d="m 138.92077,40.732811 h -0.0984 v -1.672873 h 0.0984 v 1.672873"
       style="fill:#29516a;fill-opacity:1;fill-rule:nonzero;stroke:none;stroke-width:0.0352778"
       id="path1330" />
    <path
       d="m 133.01633,39.847338 h -0.0984 v -1.672872 h 0.0984 v 1.672872"
       style="fill:#29516a;fill-opacity:1;fill-rule:nonzero;stroke:none;stroke-width:0.0352778"
       id="path1332" />
    <path
       d="m 130.75326,40.142613 h -0.0984 v -1.672872 h 0.0984 v 1.672872"
       style="fill:#29516a;fill-opacity:1;fill-rule:nonzero;stroke:none;stroke-width:0.0352778"
       id="path1334" />
    <path
       d="m 129.37566,39.748913 h -0.0984 v -1.672872 h 0.0984 v 1.672872"
       style="fill:#29516a;fill-opacity:1;fill-rule:nonzero;stroke:none;stroke-width:0.0352778"
       id="path1336" />
    <path
       d="m 101.62613,39.748913 h -0.0984 v -1.672872 h 0.0984 v 1.672872"
       style="fill:#29516a;fill-opacity:1;fill-rule:nonzero;stroke:none;stroke-width:0.0352778"
       id="path1338" />
    <path
       d="m 100.54366,39.650488 h -0.0984 v -1.672872 h 0.0984 v 1.672872"
       style="fill:#29516a;fill-opacity:1;fill-rule:nonzero;stroke:none;stroke-width:0.0352778"
       id="path1340" />
    <path
       d="m 101.87208,40.486925 h 0.59052 v -2.263423 h -0.59052 v 2.263423"
       style="fill:#29516a;fill-opacity:1;fill-rule:nonzero;stroke:none;stroke-width:0.0352778"
       id="path1342" />
    <path
       d="m 131.88497,40.7822 h 0.5902 v -2.263423 h -0.5902 V 40.7822"
       style="fill:#29516a;fill-opacity:1;fill-rule:nonzero;stroke:none;stroke-width:0.0352778"
       id="path1344" />
    <path
       d="m 135.42721,41.323361 h 2.7619 v -2.263423 h -2.7619 v 2.263423"
       style="fill:#29516a;fill-opacity:1;fill-rule:nonzero;stroke:none;stroke-width:0.0352778"
       id="path1346" />
    <path
       d="m 140.04896,40.641441 h 1.18745 v -1.293283 h -1.18745 v 1.293283"
       style="fill:#29516a;fill-opacity:1;fill-rule:nonzero;stroke:none;stroke-width:0.0352778"
       id="path1348" />
    <path
       d="m 110.17079,28.219429 c 0,0.452967 0.3671,0.819856 0.81993,0.819856 0.45297,0 0.82007,-0.366889 0.82007,-0.819856 0,-0.452966 -0.3671,-0.820208 -0.82007,-0.820208 -0.45283,0 -0.81993,0.367242 -0.81993,0.820208"
       style="fill:#6b99b5;fill-opacity:1;fill-rule:nonzero;stroke:none;stroke-width:0.0352778"
       id="path1350" />
    <path
       d="m 106.90054,36.115655 c -0.0422,0.269875 0.15022,0.490008 0.42997,0.490008 h 4.9149 c 0.32152,0 0.55591,-0.251883 0.52394,-0.557742 l -0.67592,-6.474178 c -0.0215,-0.205669 -0.24832,-0.370416 -0.50683,-0.370416 h -3.1381 c -0.25866,0 -0.49774,0.188736 -0.53425,0.422627 l -1.01371,6.489701"
       style="fill:#6b99b5;fill-opacity:1;fill-rule:nonzero;stroke:none;stroke-width:0.0352778"
       id="path1352" />
    <path
       d="m 110.71358,35.108827 -0.58812,-5.633509 c -0.0115,-0.108302 -0.0805,-0.204258 -0.18041,-0.271991 h 1.64155 c 0.25851,0 0.48531,0.164747 0.50683,0.370416 l 0.57796,5.535084 h -1.95781"
       style="fill:#9dc0e1;fill-opacity:1;fill-rule:nonzero;stroke:none;stroke-width:0.0352778"
       id="path1354" />
    <path
       d="m 106.40845,39.166124 c -0.042,0.269875 0.15036,0.490009 0.42997,0.490009 h 14.31339 c 0.27976,0 0.50645,-0.220134 0.50645,-0.490009 v -6.4897 c 0,-0.233892 -0.20962,-0.422628 -0.46828,-0.422628 h -13.23357 c -0.25852,0 -0.4976,0.188736 -0.53411,0.422628 l -1.01385,6.4897"
       style="fill:#6b99b5;fill-opacity:1;fill-rule:nonzero;stroke:none;stroke-width:0.0352778"
       id="path1356" />
    <path
       d="m 118.70622,32.253796 h 2.48376 c 0.25866,0 0.46828,0.188736 0.46828,0.422628 v 6.4897 c 0,0.269875 -0.22669,0.490009 -0.50645,0.490009 h -2.44559 v -7.402337"
       style="fill:#9dc0e1;fill-opacity:1;fill-rule:nonzero;stroke:none;stroke-width:0.0352778"
       id="path1358" />
    <path
       d="m 106.1082,41.879691 c -0.0387,0.29845 0.17431,0.542573 0.47611,0.542573 h 17.34108 c 0.3018,0 0.51484,-0.244123 0.47611,-0.542573 l -0.79015,-6.096353 c -0.0321,-0.247297 -0.27824,-0.446264 -0.54984,-0.446264 h -15.61317 c -0.27175,0 -0.51788,0.198967 -0.54984,0.446264 l -0.7903,6.096353"
       style="fill:#29516a;fill-opacity:1;fill-rule:nonzero;stroke:none;stroke-width:0.0352778"
       id="path1360" />
    <path
       d="m 121.71047,35.337074 h 1.35104 c 0.2716,0 0.51773,0.198967 0.54984,0.446264 l 0.79015,6.096353 c 0.0387,0.29845 -0.17431,0.542573 -0.47611,0.542573 h -1.50135 l -0.71357,-7.08519"
       style="fill:#466480;fill-opacity:1;fill-rule:nonzero;stroke:none;stroke-width:0.0352778"
       id="path1362" />
    <path
       d="m 121.97904,39.633908 c 0,0.271992 0.22024,0.492125 0.49199,0.492125 h 3.54252 c 0.27175,0 0.49195,-0.220133 0.49195,-0.492125 V 37.73173 c 0,-0.271992 -0.2202,-0.492125 -0.49195,-0.492125 h -3.54252 c -0.27175,0 -0.49199,0.220133 -0.49199,0.492125 v 1.902178"
       style="fill:#6b99b5;fill-opacity:1;fill-rule:nonzero;stroke:none;stroke-width:0.0352778"
       id="path1364" />
    <path
       d="m 113.64756,40.946241 c 0,0.271639 0.22034,0.491772 0.49212,0.491772 h 3.54239 c 0.27174,0 0.49209,-0.220133 0.49209,-0.491772 v -1.90253 c 0,-0.271639 -0.22035,-0.492125 -0.49209,-0.492125 h -3.54239 c -0.27178,0 -0.49212,0.220486 -0.49212,0.492125 v 1.90253"
       style="fill:#6b99b5;fill-opacity:1;fill-rule:nonzero;stroke:none;stroke-width:0.0352778"
       id="path1366" />
    <path
       d="m 103.41386,40.880625 c 0,0.271638 0.22021,0.491772 0.49195,0.491772 h 3.54253 c 0.27174,0 0.49195,-0.220134 0.49195,-0.491772 v -1.902531 c 0,-0.271639 -0.22021,-0.492125 -0.49195,-0.492125 h -3.54253 c -0.27174,0 -0.49195,0.220486 -0.49195,0.492125 v 1.902531"
       style="fill:#6b99b5;fill-opacity:1;fill-rule:nonzero;stroke:none;stroke-width:0.0352778"
       id="path1368" />
    <path
       d="m 109.5147,35.435499 c 0,0.19932 0.1615,0.360892 0.36092,0.360892 h 8.8561 c 0.19925,0 0.36075,-0.161572 0.36075,-0.360892 0,-0.199319 -0.1615,-0.360891 -0.36075,-0.360891 h -8.8561 c -0.19942,0 -0.36092,0.161572 -0.36092,0.360891"
       style="fill:#588399;fill-opacity:1;fill-rule:nonzero;stroke:none;stroke-width:0.0352778"
       id="path1370" />
    <path
       d="m 120.33781,32.647496 h 0.91956 v 0.7874 h -0.91956 v -0.7874"
       style="fill:#254254;fill-opacity:1;fill-rule:nonzero;stroke:none;stroke-width:0.0352778"
       id="path1372" />
    <path
       d="m 120.20898,32.647496 v 0.7874 h -1.31438 v -0.7874 h 1.31438"
       style="fill:#254254;fill-opacity:1;fill-rule:nonzero;stroke:none;stroke-width:0.0352778"
       id="path1374" />
    <path
       d="m 118.76573,32.647496 v 0.7874 h -1.70808 v -0.7874 h 1.70808"
       style="fill:#254254;fill-opacity:1;fill-rule:nonzero;stroke:none;stroke-width:0.0352778"
       id="path1376" />
    <path
       d="m 116.92882,32.647496 v 0.7874 h -1.77229 v -0.7874 h 1.77229"
       style="fill:#254254;fill-opacity:1;fill-rule:nonzero;stroke:none;stroke-width:0.0352778"
       id="path1378" />
    <path
       d="m 110.43315,33.238046 h 3.47695 V 32.77873 h -3.47695 v 0.459316"
       style="fill:#254254;fill-opacity:1;fill-rule:nonzero;stroke:none;stroke-width:0.0352778"
       id="path1380" />
    <path
       d="m 108.0059,35.796391 h 9.05302 v 0.524933 h -9.05302 v -0.524933"
       style="fill:#254254;fill-opacity:1;fill-rule:nonzero;stroke:none;stroke-width:0.0352778"
       id="path1382" />
    <path
       d="m 107.7694,29.194507 c 0,0.161925 0.1312,0.293159 0.29312,0.293159 h 4.17682 c 0.16179,0 0.29298,-0.131234 0.29298,-0.293159 0,-0.161925 -0.13119,-0.293158 -0.29298,-0.293158 h -4.17682 c -0.16192,0 -0.29312,0.131233 -0.29312,0.293158"
       style="fill:#29516a;fill-opacity:1;fill-rule:nonzero;stroke:none;stroke-width:0.0352778"
       id="path1384" />
    <path
       d="m 94.623202,35.501116 c 0,0.271639 0.220349,0.492125 0.491963,0.492125 h 2.755395 c 0.271604,0 0.491949,-0.220486 0.491949,-0.492125 v -0.459317 c 0,-0.271639 -0.220345,-0.491772 -0.491949,-0.491772 h -2.755395 c -0.271614,0 -0.491963,0.220133 -0.491963,0.491772 v 0.459317"
       style="fill:#466480;fill-opacity:1;fill-rule:nonzero;stroke:none;stroke-width:0.0352778"
       id="path1386" />
    <path
       d="m 96.591177,39.633908 c 0,0.271992 -0.220204,0.492125 -0.491949,0.492125 H 95.96803 c -0.271745,0 -0.491949,-0.220133 -0.491949,-0.492125 v -3.673475 c 0,-0.271639 0.220204,-0.492125 0.491949,-0.492125 h 0.131198 c 0.271745,0 0.491949,0.220486 0.491949,0.492125 v 3.673475"
       style="fill:#6b99b5;fill-opacity:1;fill-rule:nonzero;stroke:none;stroke-width:0.0352778"
       id="path1388" />
    <path
       d="m 99.280825,37.947277 c 0,0.297392 -0.239501,0.513645 -0.530825,0.483306 l -2.162528,-0.225072 c -0.253012,-0.02646 -0.455471,-0.267759 -0.455471,-0.539398 v -5.248275 c 0,-0.271639 0.202459,-0.509058 0.455471,-0.530225 L 98.75,31.705932 c 0.291324,-0.02434 0.530825,0.19685 0.530825,0.494242 v 5.747103"
       style="fill:#588399;fill-opacity:1;fill-rule:nonzero;stroke:none;stroke-width:0.0352778"
       id="path1390" />
    <path
       d="m 93.048794,45.308692 h 27.619046 c 0.0176,-1.343731 1.11153,-2.427465 2.45911,-2.427465 h 16.07252 c 1.35854,0 2.45992,1.101373 2.45992,2.460273 0,1.358547 -1.10138,2.459919 -2.45992,2.459919 h -9.47703 -6.59549 -30.078156 c -0.688468,0 -1.246435,-0.558094 -1.246435,-1.246364 0,-0.688269 0.557967,-1.246363 1.246435,-1.246363"
       style="fill:#254254;fill-opacity:1;fill-rule:nonzero;stroke:none;stroke-width:0.0352778"
       id="path1392" />
    <path
       d="m 94.885581,45.443805 c 0,0.07056 0.125264,0.127353 0.279604,0.127353 h 24.320985 c 3.28003,0 12.20019,-0.136172 19.28679,-2.624314 3.01519,-1.058333 7.24182,-2.144536 4.32964,-2.755194 -0.32032,-0.06703 -13.27503,-0.983898 -14.16967,-0.983898 H 95.279288 c -0.217456,0 -0.393707,0.245181 -0.393707,0.540456 v 5.695597"
       style="fill:#588399;fill-opacity:1;fill-rule:nonzero;stroke:none;stroke-width:0.0352778"
       id="path1394" />
    <path
       d="m 140.59329,41.913558 c -7.0866,2.488142 -16.00658,2.624314 -19.28671,2.624314 H 96.985723 c -0.154481,0 -0.279611,-0.0568 -0.279611,-0.127353 v -5.202767 h -1.426824 c -0.217456,0 -0.393707,0.245181 -0.393707,0.540456 v 5.695597 c 0,0.07056 0.125264,0.127353 0.279604,0.127353 h 24.320985 c 3.28003,0 12.20019,-0.136172 19.28679,-2.624314 2.26342,-0.794455 5.20912,-1.604433 5.30578,-2.217561 -1.0347,0.380647 -2.34633,0.784578 -3.48545,1.184275"
       style="fill:#254254;fill-opacity:1;fill-rule:nonzero;stroke:none;stroke-width:0.0352778"
       id="path1396" />
    <path
       d="m 135.68968,42.093122 c 1.44322,0 3.86327,0.579261 3.08328,0.853722 -7.08484,2.493081 -16.00676,2.624314 -19.28679,2.624314 H 92.803641 c -0.154478,0 -0.279604,-0.0568 -0.279604,-0.127353 l 2.361544,-3.350683 h 40.804099"
       style="fill:#6b99b5;fill-opacity:1;fill-rule:nonzero;stroke:none;stroke-width:0.0352778"
       id="path1398" />
    <path
       d="m 120.33891,41.831714 c 0,0.217311 0.17625,0.3937 0.3937,0.3937 h 3.4768 c 0.21745,0 0.3937,-0.176389 0.3937,-0.3937 0,-0.217312 -0.17625,-0.393701 -0.3937,-0.393701 h -3.4768 c -0.21745,0 -0.3937,0.176389 -0.3937,0.393701"
       style="fill:#466480;fill-opacity:1;fill-rule:nonzero;stroke:none;stroke-width:0.0352778"
       id="path1400" />
    <path
       d="m 107.12036,41.831714 c 0,0.217311 0.17611,0.3937 0.39356,0.3937 h 3.4768 c 0.21745,0 0.3937,-0.176389 0.3937,-0.3937 0,-0.217312 -0.17625,-0.393701 -0.3937,-0.393701 h -3.4768 c -0.21745,0 -0.39356,0.176389 -0.39356,0.393701"
       style="fill:#466480;fill-opacity:1;fill-rule:nonzero;stroke:none;stroke-width:0.0352778"
       id="path1402" />
    <path
       d="m 124.99667,44.455675 h 0.72157 v -1.508831 h -0.72157 v 1.508831"
       style="fill:#466480;fill-opacity:1;fill-rule:nonzero;stroke:none;stroke-width:0.0352778"
       id="path1404" />
    <path
       d="m 123.94705,44.455675 h 0.72168 v -1.508831 h -0.72168 v 1.508831"
       style="fill:#466480;fill-opacity:1;fill-rule:nonzero;stroke:none;stroke-width:0.0352778"
       id="path1406" />
    <path
       d="m 96.788097,44.455675 h 0.721537 v -1.508831 h -0.721537 v 1.508831"
       style="fill:#466480;fill-opacity:1;fill-rule:nonzero;stroke:none;stroke-width:0.0352778"
       id="path1408" />
    <path
       d="m 95.738442,44.455675 h 0.721536 v -1.508831 h -0.721536 v 1.508831"
       style="fill:#466480;fill-opacity:1;fill-rule:nonzero;stroke:none;stroke-width:0.0352778"
       id="path1410" />
    <path
       d="m 92.029046,45.839622 c 0.122921,0.559153 0.62053,0.9779 1.216534,0.9779 h 30.07829 6.59542 9.47703 c 1.01564,0 1.88701,-0.615597 2.26271,-1.494014 l 3.6e-4,0.01799 c 0,1.358547 -1.10138,2.459919 -2.45992,2.459919 h -9.47703 -6.59549 -30.078156 c -0.688468,0 -1.246435,-0.558094 -1.246435,-1.246364 0,-0.266347 0.08434,-0.512938 0.226687,-0.715433"
       style="fill:#162b35;fill-opacity:1;fill-rule:nonzero;stroke:none;stroke-width:0.0352778"
       id="path1412" />
    <path
       d="m 112.09026,34.015216 h 2.49714 v -0.249767 h -2.49714 v 0.249767"
       style="fill:#588399;fill-opacity:1;fill-rule:nonzero;stroke:none;stroke-width:0.0352778"
       id="path1414" />
    <path
       d="m 117.17823,34.695019 h 1.21723 v -0.454731 h -1.21723 v 0.454731"
       style="fill:#588399;fill-opacity:1;fill-rule:nonzero;stroke:none;stroke-width:0.0352778"
       id="path1416" />
    <path
       d="m 115.52391,34.788858 h 1.21737 v -0.455084 h -1.21737 v 0.455084"
       style="fill:#588399;fill-opacity:1;fill-rule:nonzero;stroke:none;stroke-width:0.0352778"
       id="path1418" />
    <path
       d="m 143.56545,40.58535 c -0.3302,-0.06738 -13.67367,-0.984251 -14.59513,-0.984251 H 94.900877 c 0.04699,-0.225072 0.198437,-0.393347 0.378411,-0.393347 h 33.653642 c 0.89464,0 13.84935,0.91687 14.16967,0.983898 0.71191,0.149225 0.99625,0.327025 0.9772,0.525638 -0.13935,-0.04621 -0.30904,-0.09031 -0.51435,-0.131938"
       style="fill:#e4355c;fill-opacity:1;fill-rule:nonzero;stroke:none;stroke-width:0.0352778"
       id="path1420" />
    <path
       d="m 124.39173,36.559097 2.14464,-1.047751 -0.0239,-0.04868 -2.14464,1.04775 0.0238,0.04868"
       style="fill:#1e4559;fill-opacity:1;fill-rule:nonzero;stroke:none;stroke-width:0.0352778"
       id="path1422" />
    <path
       d="m 124.918,36.402463 0.72993,-0.356658 -0.11091,-0.227189 -0.72997,0.356658 0.11095,0.227189"
       style="fill:#29516a;fill-opacity:1;fill-rule:nonzero;stroke:none;stroke-width:0.0352778"
       id="path1424" />
    <path
       d="m 123.03215,37.239605 c -0.0584,-0.254706 0.10295,-0.528814 0.27535,-0.8128 0.23685,-0.390172 0.44439,-0.66287 0.80338,-0.591961 l 0.60716,0.120297 c 0.29683,0.05891 0.39907,0.290336 0.53041,0.660753 0.0744,0.209903 0.0845,0.430036 0.028,0.623711 h -2.24427"
       style="fill:#9dc0e1;fill-opacity:1;fill-rule:nonzero;stroke:none;stroke-width:0.0352778"
       id="path1426" />
    <path
       d="m 138.77296,42.946844 c -0.12559,0.0441 -0.25153,0.08749 -0.37818,0.130175 -0.71085,-0.165805 -1.65523,-0.295275 -2.37067,-0.295275 H 94.400098 l 0.485483,-0.688622 h 40.804099 c 1.44322,0 3.86327,0.579261 3.08328,0.853722"
       style="fill:#f2736d;fill-opacity:1;fill-rule:nonzero;stroke:none;stroke-width:0.0352778"
       id="path1428" />
    <path
       d="m 98.998603,33.181955 -2.866602,0.1651 v -0.929217 c 0,-0.271639 0.202459,-0.509058 0.455471,-0.530225 L 98.75,31.705932 c 0.291324,-0.02434 0.530825,0.19685 0.530825,0.494242 v 1.0033 c -0.08763,-0.01905 -0.182704,-0.02716 -0.282222,-0.02152"
       style="fill:#6b99b5;fill-opacity:1;fill-rule:nonzero;stroke:none;stroke-width:0.0352778"
       id="path1430" />
    <path
       d="m 99.239374,37.118602 0.04145,0.0018 v 0.826911 c 0,0.297392 -0.239501,0.513645 -0.530825,0.483306 L 96.587472,38.205511 C 96.33446,38.179052 96.132001,37.937752 96.132001,37.666113 V 36.89353 l 3.107373,0.225072"
       style="fill:#447284;fill-opacity:1;fill-rule:nonzero;stroke:none;stroke-width:0.0352778"
       id="path1432" />
  </g>
</svg>
