<?xml version="1.0" encoding="UTF-8" standalone="no"?>
<!-- Created with Inkscape (http://www.inkscape.org/) -->

<svg
   width="84.482117mm"
   height="16.435846mm"
   viewBox="0 0 84.482119 16.435846"
   version="1.1"
   id="svg11017"
   inkscape:export-filename="4.svg"
   inkscape:export-xdpi="96"
   inkscape:export-ydpi="96"
   xmlns:inkscape="http://www.inkscape.org/namespaces/inkscape"
   xmlns:sodipodi="http://sodipodi.sourceforge.net/DTD/sodipodi-0.dtd"
   xmlns="http://www.w3.org/2000/svg"
   xmlns:svg="http://www.w3.org/2000/svg">
  <sodipodi:namedview
     id="namedview11019"
     pagecolor="#ffffff"
     bordercolor="#000000"
     borderopacity="0.25"
     inkscape:showpageshadow="2"
     inkscape:pageopacity="0.0"
     inkscape:pagecheckerboard="0"
     inkscape:deskcolor="#d1d1d1"
     inkscape:document-units="mm"
     showgrid="false" />
  <defs
     id="defs11014" />
  <g
     inkscape:label="Layer 1"
     inkscape:groupmode="layer"
     id="layer1"
     transform="translate(-182.19698,-29.512134)">
    <path
       d="m 189.09187,45.612153 c -0.0228,0.05815 -0.10308,0.105144 -0.17956,0.105144 h -4.80039 c -0.0765,0 -0.13851,-0.04699 -0.13851,-0.105144 v -3.959665 c 0,-0.09977 0.0823,-0.18161 0.18384,-0.18161 h 6.37134 c 0.10157,0 0.15187,0.08184 0.11271,0.18161 l -1.54943,3.959665"
       style="fill:#254254;fill-opacity:1;fill-rule:nonzero;stroke:none;stroke-width:0.0352778"
       id="path14" />
    <path
       d="m 192.32709,40.217811 c 0.14675,0.624135 -0.26956,1.153972 -0.93694,1.153972 h -3.62508 c -0.66738,0 -1.2084,0.822289 -1.2084,0.198155 v -6.252281 c 0,-0.381988 0.39909,-0.681179 0.89147,-0.681179 h 2.67423 c 0.49237,0 0.96171,0.299191 1.0517,0.681179 l 1.15302,4.900154"
       style="fill:#254254;fill-opacity:1;fill-rule:nonzero;stroke:none;stroke-width:0.0352778"
       id="path16" />
    <path
       d="m 187.22518,35.082425 h 2.67434 c 0.49223,0 0.96174,0.298767 1.05174,0.681178 l 1.15284,4.899731 c 0.0345,0.146086 0.0368,0.286491 0.0135,0.416737 0.20203,-0.213889 0.2891,-0.523523 0.20948,-0.86226 l -1.15302,-4.900154 c -0.09,-0.381988 -0.55933,-0.681179 -1.0517,-0.681179 h -2.67423 c -0.48948,0 -0.8865,0.295593 -0.89105,0.674829 0.1633,-0.141111 0.40171,-0.228882 0.66809,-0.228882"
       style="fill:#008096;fill-opacity:1;fill-rule:nonzero;stroke:none;stroke-width:0.0352778"
       id="path18" />
    <path
       d="m 216.55573,32.507147 c 0,0.163971 -0.133,0.296968 -0.29704,0.296968 -0.16404,0 -0.29704,-0.132997 -0.29704,-0.296968 v -2.476465 c 0,-0.164148 0.133,-0.29711 0.29704,-0.29711 0.16404,0 0.29704,0.132962 0.29704,0.29711 v 2.476465"
       style="fill:#29516a;fill-opacity:1;fill-rule:nonzero;stroke:none;stroke-width:0.0352778"
       id="path20" />
    <path
       d="m 218.05397,33.249779 c 0,0.164395 -0.13299,0.297357 -0.29739,0.297357 -0.16404,0 -0.29704,-0.132962 -0.29704,-0.297357 v -2.476218 c 0,-0.163971 0.133,-0.296968 0.29704,-0.296968 0.1644,0 0.29739,0.132997 0.29739,0.296968 v 2.476218"
       style="fill:#29516a;fill-opacity:1;fill-rule:nonzero;stroke:none;stroke-width:0.0352778"
       id="path22" />
    <path
       d="m 219.14335,33.002129 c 0,0.164395 -0.133,0.297392 -0.29704,0.297392 -0.16404,0 -0.29704,-0.132997 -0.29704,-0.297392 v -2.476182 c 0,-0.164007 0.133,-0.296969 0.29704,-0.296969 0.16404,0 0.29704,0.132962 0.29704,0.296969 v 2.476182"
       style="fill:#29516a;fill-opacity:1;fill-rule:nonzero;stroke:none;stroke-width:0.0352778"
       id="path24" />
    <path
       d="m 224.11293,32.216528 c 0,0.07084 -0.0575,0.12827 -0.12841,0.12827 -0.0713,0 -0.12876,-0.05743 -0.12876,-0.12827 v -2.464646 c 0,-0.0708 0.0575,-0.12827 0.12876,-0.12827 0.0709,0 0.12841,0.05747 0.12841,0.12827 v 2.464646"
       style="fill:#29516a;fill-opacity:1;fill-rule:nonzero;stroke:none;stroke-width:0.0352778"
       id="path26" />
    <path
       d="m 224.85553,32.105051 c 0,0.0708 -0.0575,0.12827 -0.12841,0.12827 -0.0709,0 -0.12841,-0.05747 -0.12841,-0.12827 v -2.464647 c 0,-0.07084 0.0575,-0.12827 0.12841,-0.12827 0.0709,0 0.12841,0.05743 0.12841,0.12827 v 2.464647"
       style="fill:#29516a;fill-opacity:1;fill-rule:nonzero;stroke:none;stroke-width:0.0352778"
       id="path28" />
    <path
       d="m 226.47302,36.073378 c 0,0.516749 -0.43075,0.940082 -0.95956,0.940082 H 213.5333 c -0.45833,0 -0.76771,-0.391231 -0.69412,-0.869527 l 0.53728,-3.493206 c 0.0673,-0.436703 0.47117,-0.7983 0.90498,-0.811389 l 11.29129,-0.344628 c 0.496,-0.01517 0.90029,0.348509 0.90029,0.817033 v 3.761635"
       style="fill:#008096;fill-opacity:1;fill-rule:nonzero;stroke:none;stroke-width:0.0352778"
       id="path30" />
    <path
       d="m 266.6791,41.542104 c 0,2.433489 -1.97238,4.405877 -4.40584,4.405877 h -54.52841 c -2.43335,0 -20.94177,-1.972388 -20.94177,-4.405877 0,-2.433038 18.50842,-4.405454 20.94177,-4.405454 h 54.52841 c 2.43346,0 4.40584,1.972416 4.40584,4.405454"
       style="fill:#008096;fill-opacity:1;fill-rule:nonzero;stroke:none;stroke-width:0.0352778"
       id="path32" />
    <path
       d="m 209.38845,37.13665 c 1.04108,1.206218 3.60066,2.059481 6.59578,2.059481 h 5.49275 c 2.99508,0 5.55484,-0.853263 6.59588,-2.059481 h -18.68441"
       style="fill:#254254;fill-opacity:1;fill-rule:nonzero;stroke:none;stroke-width:0.0352778"
       id="path34" />
    <path
       d="m 188.63241,40.193858 c -0.74055,0.277671 -1.29423,0.567196 -1.58792,0.866069 h 79.6078 c -0.0324,-0.298873 -0.096,-0.588398 -0.18521,-0.866069 h -77.83467"
       style="fill:#f2736d;fill-opacity:1;fill-rule:nonzero;stroke:none;stroke-width:0.0352778"
       id="path36" />
    <path
       d="m 227.69927,37.13665 c -0.0826,-1.011732 -1.65594,-1.699648 -4.33317,-1.699648 h -5.449 c -2.67656,0 -5.75194,0.688199 -8.04842,1.699648 h 17.83059"
       style="fill:#f2736d;fill-opacity:1;fill-rule:nonzero;stroke:none;stroke-width:0.0352778"
       id="path38" />
    <path
       d="m 187.35733,40.806668 c -0.35514,0.239077 -0.55425,0.485069 -0.55425,0.735436 0,2.433489 18.50842,4.405877 20.94177,4.405877 h 54.52841 c 2.43346,0 4.40584,-1.972388 4.40584,-4.405877 0,-0.25079 -0.0219,-0.496359 -0.0621,-0.735436 h -79.25968"
       style="fill:#29516a;fill-opacity:1;fill-rule:nonzero;stroke:none;stroke-width:0.0352778"
       id="path40" />
    <path
       d="m 226.34566,31.883718 c -0.15734,-0.242676 -0.4445,-0.399203 -0.77293,-0.389008 l -11.29129,0.344628 c -0.32054,0.0099 -0.62385,0.210291 -0.78797,0.490044 l 12.85219,-0.445664"
       style="fill:#f2736d;fill-opacity:1;fill-rule:nonzero;stroke:none;stroke-width:0.0352778"
       id="path42" />
    <path
       d="m 263.22505,38.845153 c 0,0.08184 -0.0667,0.148555 -0.14851,0.148555 h -6.97901 c -0.0822,0 -0.14887,-0.06671 -0.14887,-0.148555 v -0.183409 c 0,-0.08227 0.0667,-0.148555 0.14887,-0.148555 h 6.97901 c 0.0818,0 0.14851,0.06629 0.14851,0.148555 v 0.183409"
       style="fill:#254254;fill-opacity:1;fill-rule:nonzero;stroke:none;stroke-width:0.0352778"
       id="path44" />
    <path
       d="m 262.46094,39.005279 c 0,0.08227 -0.0667,0.148837 -0.14887,0.148837 h -2.63561 c -0.0822,0 -0.14852,-0.06657 -0.14852,-0.148837 v -0.508353 c 0,-0.08185 0.0663,-0.148555 0.14852,-0.148555 h 2.63561 c 0.0822,0 0.14887,0.06671 0.14887,0.148555 v 0.508353"
       style="fill:#e4355c;fill-opacity:1;fill-rule:nonzero;stroke:none;stroke-width:0.0352778"
       id="path46" />
    <path
       d="m 254.74675,40.010025 c 0,0.05539 0.0452,0.100577 0.10054,0.100577 h 1.00718 c 0.0557,0 0.10089,-0.04519 0.10089,-0.100577 v -0.251919 c 0,-0.05567 -0.0452,-0.100859 -0.10089,-0.100859 h -1.00718 c -0.0554,0 -0.10054,0.04519 -0.10054,0.100859 v 0.251919"
       style="fill:#254254;fill-opacity:1;fill-rule:nonzero;stroke:none;stroke-width:0.0352778"
       id="path48" />
    <path
       d="m 253.3434,40.010025 c 0,0.05539 0.0452,0.100577 0.10054,0.100577 h 1.00718 c 0.0557,0 0.10089,-0.04519 0.10089,-0.100577 v -0.251919 c 0,-0.05567 -0.0452,-0.100859 -0.10089,-0.100859 h -1.00718 c -0.0554,0 -0.10054,0.04519 -0.10054,0.100859 v 0.251919"
       style="fill:#254254;fill-opacity:1;fill-rule:nonzero;stroke:none;stroke-width:0.0352778"
       id="path50" />
    <path
       d="m 251.94005,40.010025 c 0,0.05539 0.0451,0.100577 0.10054,0.100577 h 1.00718 c 0.0557,0 0.10089,-0.04519 0.10089,-0.100577 v -0.251919 c 0,-0.05567 -0.0452,-0.100859 -0.10089,-0.100859 h -1.00718 c -0.0554,0 -0.10054,0.04519 -0.10054,0.100859 v 0.251919"
       style="fill:#254254;fill-opacity:1;fill-rule:nonzero;stroke:none;stroke-width:0.0352778"
       id="path52" />
    <path
       d="m 250.5367,40.010025 c 0,0.05539 0.0452,0.100577 0.10054,0.100577 h 1.00718 c 0.0557,0 0.10089,-0.04519 0.10089,-0.100577 v -0.251919 c 0,-0.05567 -0.0451,-0.100859 -0.10089,-0.100859 h -1.00718 c -0.0554,0 -0.10054,0.04519 -0.10054,0.100859 v 0.251919"
       style="fill:#254254;fill-opacity:1;fill-rule:nonzero;stroke:none;stroke-width:0.0352778"
       id="path54" />
    <path
       d="m 249.13335,40.010025 c 0,0.05539 0.0448,0.100577 0.10054,0.100577 h 1.00718 c 0.0557,0 0.10054,-0.04519 0.10054,-0.100577 v -0.251919 c 0,-0.05567 -0.0448,-0.100859 -0.10054,-0.100859 h -1.00718 c -0.0557,0 -0.10054,0.04519 -0.10054,0.100859 v 0.251919"
       style="fill:#254254;fill-opacity:1;fill-rule:nonzero;stroke:none;stroke-width:0.0352778"
       id="path56" />
    <path
       d="m 247.73,40.010025 c 0,0.05539 0.0448,0.100577 0.10054,0.100577 h 1.00718 c 0.0557,0 0.10054,-0.04519 0.10054,-0.100577 v -0.251919 c 0,-0.05567 -0.0448,-0.100859 -0.10054,-0.100859 h -1.00718 c -0.0557,0 -0.10054,0.04519 -0.10054,0.100859 v 0.251919"
       style="fill:#254254;fill-opacity:1;fill-rule:nonzero;stroke:none;stroke-width:0.0352778"
       id="path58" />
    <path
       d="m 242.05345,40.010025 c 0,0.05539 0.0452,0.100577 0.10089,0.100577 h 1.00718 c 0.0554,0 0.10054,-0.04519 0.10054,-0.100577 v -0.251919 c 0,-0.05567 -0.0451,-0.100859 -0.10054,-0.100859 h -1.00718 c -0.0557,0 -0.10089,0.04519 -0.10089,0.100859 v 0.251919"
       style="fill:#254254;fill-opacity:1;fill-rule:nonzero;stroke:none;stroke-width:0.0352778"
       id="path60" />
    <path
       d="m 240.6501,40.010025 c 0,0.05539 0.0451,0.100577 0.10089,0.100577 h 1.00718 c 0.0554,0 0.10054,-0.04519 0.10054,-0.100577 v -0.251919 c 0,-0.05567 -0.0452,-0.100859 -0.10054,-0.100859 h -1.00718 c -0.0557,0 -0.10089,0.04519 -0.10089,0.100859 v 0.251919"
       style="fill:#254254;fill-opacity:1;fill-rule:nonzero;stroke:none;stroke-width:0.0352778"
       id="path62" />
    <path
       d="m 239.24675,40.010025 c 0,0.05539 0.0452,0.100577 0.10089,0.100577 h 1.00718 c 0.0554,0 0.10054,-0.04519 0.10054,-0.100577 v -0.251919 c 0,-0.05567 -0.0452,-0.100859 -0.10054,-0.100859 h -1.00718 c -0.0557,0 -0.10089,0.04519 -0.10089,0.100859 v 0.251919"
       style="fill:#254254;fill-opacity:1;fill-rule:nonzero;stroke:none;stroke-width:0.0352778"
       id="path64" />
    <path
       d="m 237.8434,40.010025 c 0,0.05539 0.0452,0.100577 0.10089,0.100577 h 1.00718 c 0.0554,0 0.10054,-0.04519 0.10054,-0.100577 v -0.251919 c 0,-0.05567 -0.0452,-0.100859 -0.10054,-0.100859 h -1.00718 c -0.0557,0 -0.10089,0.04519 -0.10089,0.100859 v 0.251919"
       style="fill:#254254;fill-opacity:1;fill-rule:nonzero;stroke:none;stroke-width:0.0352778"
       id="path66" />
    <path
       d="m 236.44005,40.010025 c 0,0.05539 0.0451,0.100577 0.10089,0.100577 h 1.00718 c 0.0554,0 0.10054,-0.04519 0.10054,-0.100577 v -0.251919 c 0,-0.05567 -0.0452,-0.100859 -0.10054,-0.100859 h -1.00718 c -0.0557,0 -0.10089,0.04519 -0.10089,0.100859 v 0.251919"
       style="fill:#254254;fill-opacity:1;fill-rule:nonzero;stroke:none;stroke-width:0.0352778"
       id="path68" />
    <path
       d="m 235.0367,40.010025 c 0,0.05539 0.0452,0.100577 0.10089,0.100577 h 1.00683 c 0.0557,0 0.10089,-0.04519 0.10089,-0.100577 v -0.251919 c 0,-0.05567 -0.0451,-0.100859 -0.10089,-0.100859 h -1.00683 c -0.0557,0 -0.10089,0.04519 -0.10089,0.100859 v 0.251919"
       style="fill:#254254;fill-opacity:1;fill-rule:nonzero;stroke:none;stroke-width:0.0352778"
       id="path70" />
    <path
       d="m 229.3605,40.010025 c 0,0.05539 0.0452,0.100577 0.10054,0.100577 h 1.00718 c 0.0557,0 0.1009,-0.04519 0.1009,-0.100577 v -0.251919 c 0,-0.05567 -0.0452,-0.100859 -0.1009,-0.100859 h -1.00718 c -0.0554,0 -0.10054,0.04519 -0.10054,0.100859 v 0.251919"
       style="fill:#254254;fill-opacity:1;fill-rule:nonzero;stroke:none;stroke-width:0.0352778"
       id="path72" />
    <path
       d="m 227.95715,40.010025 c 0,0.05539 0.0448,0.100577 0.10054,0.100577 h 1.00718 c 0.0557,0 0.1009,-0.04519 0.1009,-0.100577 v -0.251919 c 0,-0.05567 -0.0452,-0.100859 -0.1009,-0.100859 h -1.00718 c -0.0557,0 -0.10054,0.04519 -0.10054,0.100859 v 0.251919"
       style="fill:#254254;fill-opacity:1;fill-rule:nonzero;stroke:none;stroke-width:0.0352778"
       id="path74" />
    <path
       d="m 226.5538,40.010025 c 0,0.05539 0.0452,0.100577 0.10054,0.100577 h 1.00718 c 0.0557,0 0.1009,-0.04519 0.1009,-0.100577 v -0.251919 c 0,-0.05567 -0.0452,-0.100859 -0.1009,-0.100859 h -1.00718 c -0.0554,0 -0.10054,0.04519 -0.10054,0.100859 v 0.251919"
       style="fill:#254254;fill-opacity:1;fill-rule:nonzero;stroke:none;stroke-width:0.0352778"
       id="path76" />
    <path
       d="m 225.15045,40.010025 c 0,0.05539 0.0448,0.100577 0.10054,0.100577 h 1.00718 c 0.0557,0 0.10055,-0.04519 0.10055,-0.100577 v -0.251919 c 0,-0.05567 -0.0448,-0.100859 -0.10055,-0.100859 h -1.00718 c -0.0557,0 -0.10054,0.04519 -0.10054,0.100859 v 0.251919"
       style="fill:#254254;fill-opacity:1;fill-rule:nonzero;stroke:none;stroke-width:0.0352778"
       id="path78" />
    <path
       d="m 223.7471,40.010025 c 0,0.05539 0.0448,0.100577 0.10054,0.100577 h 1.00718 c 0.0557,0 0.10055,-0.04519 0.10055,-0.100577 v -0.251919 c 0,-0.05567 -0.0448,-0.100859 -0.10055,-0.100859 h -1.00718 c -0.0557,0 -0.10054,0.04519 -0.10054,0.100859 v 0.251919"
       style="fill:#254254;fill-opacity:1;fill-rule:nonzero;stroke:none;stroke-width:0.0352778"
       id="path80" />
    <path
       d="m 222.34375,40.010025 c 0,0.05539 0.0448,0.100577 0.10054,0.100577 h 1.00718 c 0.0557,0 0.10055,-0.04519 0.10055,-0.100577 v -0.251919 c 0,-0.05567 -0.0448,-0.100859 -0.10055,-0.100859 h -1.00718 c -0.0557,0 -0.10054,0.04519 -0.10054,0.100859 v 0.251919"
       style="fill:#254254;fill-opacity:1;fill-rule:nonzero;stroke:none;stroke-width:0.0352778"
       id="path82" />
    <path
       d="m 241.02969,41.272582 c 0,0.05581 0.0452,0.100859 0.10089,0.100859 h 1.00683 c 0.0557,0 0.10089,-0.04505 0.10089,-0.100859 v -0.251496 c 0,-0.05567 -0.0452,-0.100894 -0.10089,-0.100894 h -1.00683 c -0.0557,0 -0.10089,0.04523 -0.10089,0.100894 v 0.251496"
       style="fill:#162d38;fill-opacity:1;fill-rule:nonzero;stroke:none;stroke-width:0.0352778"
       id="path84" />
    <path
       d="m 239.62634,41.272582 c 0,0.05581 0.0452,0.100859 0.10054,0.100859 h 1.00718 c 0.0557,0 0.10089,-0.04505 0.10089,-0.100859 v -0.251496 c 0,-0.05567 -0.0451,-0.100894 -0.10089,-0.100894 h -1.00718 c -0.0554,0 -0.10054,0.04523 -0.10054,0.100894 v 0.251496"
       style="fill:#162d38;fill-opacity:1;fill-rule:nonzero;stroke:none;stroke-width:0.0352778"
       id="path86" />
    <path
       d="m 238.22299,41.272582 c 0,0.05581 0.0451,0.100859 0.10054,0.100859 h 1.00718 c 0.0557,0 0.10089,-0.04505 0.10089,-0.100859 v -0.251496 c 0,-0.05567 -0.0452,-0.100894 -0.10089,-0.100894 h -1.00718 c -0.0554,0 -0.10054,0.04523 -0.10054,0.100894 v 0.251496"
       style="fill:#162d38;fill-opacity:1;fill-rule:nonzero;stroke:none;stroke-width:0.0352778"
       id="path88" />
    <path
       d="m 236.81964,41.272582 c 0,0.05581 0.0452,0.100859 0.10054,0.100859 h 1.00718 c 0.0557,0 0.10089,-0.04505 0.10089,-0.100859 v -0.251496 c 0,-0.05567 -0.0452,-0.100894 -0.10089,-0.100894 h -1.00718 c -0.0554,0 -0.10054,0.04523 -0.10054,0.100894 v 0.251496"
       style="fill:#162d38;fill-opacity:1;fill-rule:nonzero;stroke:none;stroke-width:0.0352778"
       id="path90" />
    <path
       d="m 235.41629,41.272582 c 0,0.05581 0.0452,0.100859 0.10054,0.100859 h 1.00718 c 0.0557,0 0.10089,-0.04505 0.10089,-0.100859 v -0.251496 c 0,-0.05567 -0.0452,-0.100894 -0.10089,-0.100894 h -1.00718 c -0.0554,0 -0.10054,0.04523 -0.10054,0.100894 v 0.251496"
       style="fill:#162d38;fill-opacity:1;fill-rule:nonzero;stroke:none;stroke-width:0.0352778"
       id="path92" />
    <path
       d="m 234.01294,41.272582 c 0,0.05581 0.0452,0.100859 0.10054,0.100859 h 1.00718 c 0.0557,0 0.10089,-0.04505 0.10089,-0.100859 v -0.251496 c 0,-0.05567 -0.0452,-0.100894 -0.10089,-0.100894 h -1.00718 c -0.0554,0 -0.10054,0.04523 -0.10054,0.100894 v 0.251496"
       style="fill:#162d38;fill-opacity:1;fill-rule:nonzero;stroke:none;stroke-width:0.0352778"
       id="path94" />
    <path
       d="m 230.53067,41.272582 c 0,0.05581 0.0452,0.100859 0.10054,0.100859 h 1.00718 c 0.0557,0 0.10089,-0.04505 0.10089,-0.100859 v -0.251496 c 0,-0.05567 -0.0452,-0.100894 -0.10089,-0.100894 h -1.00718 c -0.0554,0 -0.10054,0.04523 -0.10054,0.100894 v 0.251496"
       style="fill:#162d38;fill-opacity:1;fill-rule:nonzero;stroke:none;stroke-width:0.0352778"
       id="path96" />
    <path
       d="m 229.12732,41.272582 c 0,0.05581 0.0452,0.100859 0.10054,0.100859 h 1.00718 c 0.0557,0 0.10089,-0.04505 0.10089,-0.100859 v -0.251496 c 0,-0.05567 -0.0451,-0.100894 -0.10089,-0.100894 h -1.00718 c -0.0554,0 -0.10054,0.04523 -0.10054,0.100894 v 0.251496"
       style="fill:#162d38;fill-opacity:1;fill-rule:nonzero;stroke:none;stroke-width:0.0352778"
       id="path98" />
    <path
       d="m 227.72397,41.272582 c 0,0.05581 0.0451,0.100859 0.10054,0.100859 h 1.00718 c 0.0557,0 0.10089,-0.04505 0.10089,-0.100859 v -0.251496 c 0,-0.05567 -0.0452,-0.100894 -0.10089,-0.100894 h -1.00718 c -0.0554,0 -0.10054,0.04523 -0.10054,0.100894 v 0.251496"
       style="fill:#162d38;fill-opacity:1;fill-rule:nonzero;stroke:none;stroke-width:0.0352778"
       id="path100" />
    <path
       d="m 226.32062,41.272582 c 0,0.05581 0.0452,0.100859 0.10054,0.100859 h 1.00718 c 0.0557,0 0.10089,-0.04505 0.10089,-0.100859 v -0.251496 c 0,-0.05567 -0.0452,-0.100894 -0.10089,-0.100894 h -1.00718 c -0.0554,0 -0.10054,0.04523 -0.10054,0.100894 v 0.251496"
       style="fill:#162d38;fill-opacity:1;fill-rule:nonzero;stroke:none;stroke-width:0.0352778"
       id="path102" />
    <path
       d="m 224.91727,41.272582 c 0,0.05581 0.0452,0.100859 0.10054,0.100859 h 1.00718 c 0.0557,0 0.10089,-0.04505 0.10089,-0.100859 v -0.251496 c 0,-0.05567 -0.0452,-0.100894 -0.10089,-0.100894 h -1.00718 c -0.0554,0 -0.10054,0.04523 -0.10054,0.100894 v 0.251496"
       style="fill:#162d38;fill-opacity:1;fill-rule:nonzero;stroke:none;stroke-width:0.0352778"
       id="path104" />
    <path
       d="m 223.51392,41.272582 c 0,0.05581 0.0451,0.100859 0.10054,0.100859 h 1.00718 c 0.0557,0 0.10089,-0.04505 0.10089,-0.100859 v -0.251496 c 0,-0.05567 -0.0452,-0.100894 -0.10089,-0.100894 h -1.00718 c -0.0554,0 -0.10054,0.04523 -0.10054,0.100894 v 0.251496"
       style="fill:#162d38;fill-opacity:1;fill-rule:nonzero;stroke:none;stroke-width:0.0352778"
       id="path106" />
    <path
       d="m 220.03165,41.272582 c 0,0.05581 0.0451,0.100859 0.10054,0.100859 h 1.00718 c 0.0557,0 0.10054,-0.04505 0.10054,-0.100859 v -0.251496 c 0,-0.05567 -0.0448,-0.100894 -0.10054,-0.100894 h -1.00718 c -0.0554,0 -0.10054,0.04523 -0.10054,0.100894 v 0.251496"
       style="fill:#162d38;fill-opacity:1;fill-rule:nonzero;stroke:none;stroke-width:0.0352778"
       id="path108" />
    <path
       d="m 218.6283,41.272582 c 0,0.05581 0.0448,0.100859 0.10054,0.100859 h 1.00718 c 0.0557,0 0.10089,-0.04505 0.10089,-0.100859 v -0.251496 c 0,-0.05567 -0.0451,-0.100894 -0.10089,-0.100894 h -1.00718 c -0.0557,0 -0.10054,0.04523 -0.10054,0.100894 v 0.251496"
       style="fill:#162d38;fill-opacity:1;fill-rule:nonzero;stroke:none;stroke-width:0.0352778"
       id="path110" />
    <path
       d="m 217.22495,41.272582 c 0,0.05581 0.0452,0.100859 0.10054,0.100859 h 1.00718 c 0.0557,0 0.10054,-0.04505 0.10054,-0.100859 v -0.251496 c 0,-0.05567 -0.0448,-0.100894 -0.10054,-0.100894 h -1.00718 c -0.0554,0 -0.10054,0.04523 -0.10054,0.100894 v 0.251496"
       style="fill:#162d38;fill-opacity:1;fill-rule:nonzero;stroke:none;stroke-width:0.0352778"
       id="path112" />
    <path
       d="m 215.8216,41.272582 c 0,0.05581 0.0448,0.100859 0.10054,0.100859 h 1.00718 c 0.0557,0 0.10054,-0.04505 0.10054,-0.100859 v -0.251496 c 0,-0.05567 -0.0448,-0.100894 -0.10054,-0.100894 h -1.00718 c -0.0557,0 -0.10054,0.04523 -0.10054,0.100894 v 0.251496"
       style="fill:#162d38;fill-opacity:1;fill-rule:nonzero;stroke:none;stroke-width:0.0352778"
       id="path114" />
    <path
       d="m 214.41814,41.272582 c 0,0.05581 0.0451,0.100859 0.10072,0.100859 h 1.00707 c 0.0557,0 0.10076,-0.04505 0.10076,-0.100859 v -0.251496 c 0,-0.05567 -0.0451,-0.100894 -0.10076,-0.100894 h -1.00707 c -0.0557,0 -0.10072,0.04523 -0.10072,0.100894 v 0.251496"
       style="fill:#162d38;fill-opacity:1;fill-rule:nonzero;stroke:none;stroke-width:0.0352778"
       id="path116" />
    <path
       d="m 213.01472,41.272582 c 0,0.05581 0.0451,0.100859 0.10075,0.100859 h 1.00708 c 0.0557,0 0.10072,-0.04505 0.10072,-0.100859 v -0.251496 c 0,-0.05567 -0.0451,-0.100894 -0.10072,-0.100894 h -1.00708 c -0.0557,0 -0.10075,0.04523 -0.10075,0.100894 v 0.251496"
       style="fill:#162d38;fill-opacity:1;fill-rule:nonzero;stroke:none;stroke-width:0.0352778"
       id="path118" />
    <path
       d="m 263.0656,43.945554 h -59.6445 c -1.67294,0 -10.29271,-0.802844 -16.46548,-2.021992 1.76029,2.254466 18.48447,4.024419 20.78923,4.024419 h 54.52841 c 2.09656,0 3.84951,-1.464441 4.29507,-3.425804 -0.87842,0.87588 -2.12231,1.423377 -3.50273,1.423377"
       style="fill:#254254;fill-opacity:1;fill-rule:nonzero;stroke:none;stroke-width:0.0352778"
       id="path120" />
    <path
       d="m 210.04437,41.272582 c 0,0.05581 0.0451,0.100859 0.10075,0.100859 h 1.00707 c 0.0557,0 0.10072,-0.04505 0.10072,-0.100859 v -0.251496 c 0,-0.05567 -0.0451,-0.100894 -0.10072,-0.100894 h -1.00707 c -0.0557,0 -0.10075,0.04523 -0.10075,0.100894 v 0.251496"
       style="fill:#162d38;fill-opacity:1;fill-rule:nonzero;stroke:none;stroke-width:0.0352778"
       id="path122" />
    <path
       d="m 208.64098,41.272582 c 0,0.05581 0.045,0.100859 0.10072,0.100859 h 1.00721 c 0.0555,0 0.10076,-0.04505 0.10076,-0.100859 v -0.251496 c 0,-0.05567 -0.0452,-0.100894 -0.10076,-0.100894 h -1.00721 c -0.0557,0 -0.10072,0.04523 -0.10072,0.100894 v 0.251496"
       style="fill:#162d38;fill-opacity:1;fill-rule:nonzero;stroke:none;stroke-width:0.0352778"
       id="path124" />
    <path
       d="m 207.23774,41.272582 c 0,0.05581 0.0451,0.100859 0.10057,0.100859 h 1.00722 c 0.0555,0 0.10072,-0.04505 0.10072,-0.100859 v -0.251496 c 0,-0.05567 -0.0452,-0.100894 -0.10072,-0.100894 h -1.00722 c -0.0555,0 -0.10057,0.04523 -0.10057,0.100894 v 0.251496"
       style="fill:#162d38;fill-opacity:1;fill-rule:nonzero;stroke:none;stroke-width:0.0352778"
       id="path126" />
    <path
       d="m 205.83432,41.272582 c 0,0.05581 0.0451,0.100859 0.10075,0.100859 h 1.00707 c 0.0557,0 0.10072,-0.04505 0.10072,-0.100859 v -0.251496 c 0,-0.05567 -0.0451,-0.100894 -0.10072,-0.100894 h -1.00707 c -0.0557,0 -0.10075,0.04523 -0.10075,0.100894 v 0.251496"
       style="fill:#162d38;fill-opacity:1;fill-rule:nonzero;stroke:none;stroke-width:0.0352778"
       id="path128" />
    <path
       d="m 204.43093,41.272582 c 0,0.05581 0.0451,0.100859 0.10075,0.100859 h 1.00708 c 0.0557,0 0.10072,-0.04505 0.10072,-0.100859 v -0.251496 c 0,-0.05567 -0.0451,-0.100894 -0.10072,-0.100894 h -1.00708 c -0.0557,0 -0.10075,0.04523 -0.10075,0.100894 v 0.251496"
       style="fill:#162d38;fill-opacity:1;fill-rule:nonzero;stroke:none;stroke-width:0.0352778"
       id="path130" />
    <path
       d="m 203.02754,41.272582 c 0,0.05581 0.0452,0.100859 0.10072,0.100859 h 1.00722 c 0.0555,0 0.10075,-0.04505 0.10075,-0.100859 v -0.251496 c 0,-0.05567 -0.0452,-0.100894 -0.10075,-0.100894 h -1.00722 c -0.0555,0 -0.10072,0.04523 -0.10072,0.100894 v 0.251496"
       style="fill:#162d38;fill-opacity:1;fill-rule:nonzero;stroke:none;stroke-width:0.0352778"
       id="path132" />
    <path
       d="m 199.7434,41.272582 c 0,0.05581 0.0451,0.100859 0.10075,0.100859 h 1.00707 c 0.0557,0 0.10072,-0.04505 0.10072,-0.100859 v -0.251496 c 0,-0.05567 -0.0451,-0.100894 -0.10072,-0.100894 h -1.00707 c -0.0557,0 -0.10075,0.04523 -0.10075,0.100894 v 0.251496"
       style="fill:#162d38;fill-opacity:1;fill-rule:nonzero;stroke:none;stroke-width:0.0352778"
       id="path134" />
    <path
       d="m 198.34001,41.272582 c 0,0.05581 0.0451,0.100859 0.10072,0.100859 h 1.00707 c 0.0557,0 0.10076,-0.04505 0.10076,-0.100859 v -0.251496 c 0,-0.05567 -0.0451,-0.100894 -0.10076,-0.100894 h -1.00707 c -0.0557,0 -0.10072,0.04523 -0.10072,0.100894 v 0.251496"
       style="fill:#162d38;fill-opacity:1;fill-rule:nonzero;stroke:none;stroke-width:0.0352778"
       id="path136" />
    <path
       d="m 196.93677,41.272582 c 0,0.05581 0.0451,0.100859 0.10057,0.100859 h 1.00722 c 0.0555,0 0.10072,-0.04505 0.10072,-0.100859 v -0.251496 c 0,-0.05567 -0.0452,-0.100894 -0.10072,-0.100894 h -1.00722 c -0.0555,0 -0.10057,0.04523 -0.10057,0.100894 v 0.251496"
       style="fill:#162d38;fill-opacity:1;fill-rule:nonzero;stroke:none;stroke-width:0.0352778"
       id="path138" />
    <path
       d="m 195.53334,41.272582 c 0,0.05581 0.0451,0.100859 0.10076,0.100859 h 1.00707 c 0.0557,0 0.10072,-0.04505 0.10072,-0.100859 v -0.251496 c 0,-0.05567 -0.0451,-0.100894 -0.10072,-0.100894 h -1.00707 c -0.0557,0 -0.10076,0.04523 -0.10076,0.100894 v 0.251496"
       style="fill:#162d38;fill-opacity:1;fill-rule:nonzero;stroke:none;stroke-width:0.0352778"
       id="path140" />
    <path
       d="m 194.12996,41.272582 c 0,0.05581 0.045,0.100859 0.10075,0.100859 h 1.00704 c 0.0557,0 0.10076,-0.04505 0.10076,-0.100859 v -0.251496 c 0,-0.05567 -0.0451,-0.100894 -0.10076,-0.100894 h -1.00704 c -0.0557,0 -0.10075,0.04523 -0.10075,0.100894 v 0.251496"
       style="fill:#162d38;fill-opacity:1;fill-rule:nonzero;stroke:none;stroke-width:0.0352778"
       id="path142" />
    <path
       d="m 192.72657,41.272582 c 0,0.05581 0.0451,0.100859 0.10072,0.100859 h 1.00708 c 0.0557,0 0.10075,-0.04505 0.10075,-0.100859 v -0.251496 c 0,-0.05567 -0.0451,-0.100894 -0.10075,-0.100894 h -1.00708 c -0.0557,0 -0.10072,0.04523 -0.10072,0.100894 v 0.251496"
       style="fill:#162d38;fill-opacity:1;fill-rule:nonzero;stroke:none;stroke-width:0.0352778"
       id="path144" />
    <path
       d="m 190.90659,41.047545 h -6.23189 c -0.31573,0 -2.47772,0.256187 -2.47772,0.571888 0,0.315701 2.16199,0.571888 2.47772,0.571888 h 6.23189 v -1.143776"
       style="fill:#008096;fill-opacity:1;fill-rule:nonzero;stroke:none;stroke-width:0.0352778"
       id="path146" />
    <path
       d="m 209.4335,37.507772 c 0,0.08213 -0.0666,0.148555 -0.14856,0.148555 h -1.89219 c -0.0821,0 -0.1487,-0.06643 -0.1487,-0.148555 v -0.07578 c 0,-0.08227 0.0666,-0.148554 0.1487,-0.148554 h 1.89219 c 0.082,0 0.14856,0.06629 0.14856,0.148554 v 0.07578"
       style="fill:#e4355c;fill-opacity:1;fill-rule:nonzero;stroke:none;stroke-width:0.0352778"
       id="path148" />
    <path
       d="m 207.11934,37.52019 c 0,0.08213 -0.0666,0.148802 -0.14855,0.148802 h -0.54804 c -0.082,0 -0.14856,-0.06668 -0.14856,-0.148802 v -0.07595 c 0,-0.08213 0.0666,-0.148555 0.14856,-0.148555 h 0.54804 c 0.082,0 0.14855,0.06643 0.14855,0.148555 v 0.07595"
       style="fill:#e4355c;fill-opacity:1;fill-rule:nonzero;stroke:none;stroke-width:0.0352778"
       id="path150" />
    <path
       d="m 231.42214,37.507772 c 0,0.08213 -0.0663,0.148555 -0.14852,0.148555 h -1.8923 c -0.0818,0 -0.14852,-0.06643 -0.14852,-0.148555 v -0.07578 c 0,-0.08227 0.0667,-0.148554 0.14852,-0.148554 h 1.8923 c 0.0822,0 0.14852,0.06629 0.14852,0.148554 v 0.07578"
       style="fill:#e4355c;fill-opacity:1;fill-rule:nonzero;stroke:none;stroke-width:0.0352778"
       id="path152" />
    <path
       d="m 229.10791,37.52019 c 0,0.08213 -0.0663,0.148802 -0.14852,0.148802 h -0.54786 c -0.0822,0 -0.14852,-0.06668 -0.14852,-0.148802 v -0.07595 c 0,-0.08213 0.0663,-0.148555 0.14852,-0.148555 h 0.54786 c 0.0822,0 0.14852,0.06643 0.14852,0.148555 v 0.07595"
       style="fill:#e4355c;fill-opacity:1;fill-rule:nonzero;stroke:none;stroke-width:0.0352778"
       id="path154" />
    <path
       d="m 234.83949,37.507772 c 0,0.08213 -0.0667,0.148555 -0.14851,0.148555 h -1.89231 c -0.0822,0 -0.14851,-0.06643 -0.14851,-0.148555 v -0.07578 c 0,-0.08227 0.0663,-0.148554 0.14851,-0.148554 h 1.89231 c 0.0818,0 0.14851,0.06629 0.14851,0.148554 v 0.07578"
       style="fill:#e4355c;fill-opacity:1;fill-rule:nonzero;stroke:none;stroke-width:0.0352778"
       id="path156" />
    <path
       d="m 232.52527,37.52019 c 0,0.08213 -0.0667,0.148802 -0.14852,0.148802 h -0.54821 c -0.0819,0 -0.14852,-0.06668 -0.14852,-0.148802 v -0.07595 c 0,-0.08213 0.0667,-0.148555 0.14852,-0.148555 h 0.54821 c 0.0819,0 0.14852,0.06643 0.14852,0.148555 v 0.07595"
       style="fill:#e4355c;fill-opacity:1;fill-rule:nonzero;stroke:none;stroke-width:0.0352778"
       id="path158" />
    <path
       d="m 238.2565,37.507772 c 0,0.08213 -0.0663,0.148555 -0.14852,0.148555 h -1.8923 c -0.0818,0 -0.14852,-0.06643 -0.14852,-0.148555 v -0.07578 c 0,-0.08227 0.0667,-0.148554 0.14852,-0.148554 h 1.8923 c 0.0822,0 0.14852,0.06629 0.14852,0.148554 v 0.07578"
       style="fill:#e4355c;fill-opacity:1;fill-rule:nonzero;stroke:none;stroke-width:0.0352778"
       id="path160" />
    <path
       d="m 235.94263,37.52019 c 0,0.08213 -0.0667,0.148802 -0.14887,0.148802 h -0.54787 c -0.0822,0 -0.14851,-0.06668 -0.14851,-0.148802 v -0.07595 c 0,-0.08213 0.0663,-0.148555 0.14851,-0.148555 h 0.54787 c 0.0822,0 0.14887,0.06643 0.14887,0.148555 v 0.07595"
       style="fill:#e4355c;fill-opacity:1;fill-rule:nonzero;stroke:none;stroke-width:0.0352778"
       id="path162" />
    <path
       d="m 241.67386,37.507772 c 0,0.08213 -0.0667,0.148555 -0.14852,0.148555 h -1.8923 c -0.0822,0 -0.14852,-0.06643 -0.14852,-0.148555 v -0.07578 c 0,-0.08227 0.0663,-0.148554 0.14852,-0.148554 h 1.8923 c 0.0818,0 0.14852,0.06629 0.14852,0.148554 v 0.07578"
       style="fill:#e4355c;fill-opacity:1;fill-rule:nonzero;stroke:none;stroke-width:0.0352778"
       id="path164" />
    <path
       d="m 239.35964,37.52019 c 0,0.08213 -0.0663,0.148802 -0.14852,0.148802 h -0.54822 c -0.0818,0 -0.14852,-0.06668 -0.14852,-0.148802 v -0.07595 c 0,-0.08213 0.0667,-0.148555 0.14852,-0.148555 h 0.54822 c 0.0822,0 0.14852,0.06643 0.14852,0.148555 v 0.07595"
       style="fill:#e4355c;fill-opacity:1;fill-rule:nonzero;stroke:none;stroke-width:0.0352778"
       id="path166" />
  </g>
</svg>
